<?xml version="1.0" encoding="utf-8"?>
<!-- Generator: Adobe Illustrator 16.0.0, SVG Export Plug-In . SVG Version: 6.00 Build 0)  -->
<!DOCTYPE svg PUBLIC "-//W3C//DTD SVG 1.1//EN" "http://www.w3.org/Graphics/SVG/1.1/DTD/svg11.dtd">
<svg version="1.1" id="Layer_1" xmlns="http://www.w3.org/2000/svg" xmlns:xlink="http://www.w3.org/1999/xlink" x="0px" y="0px"
	 width="24.875px" height="36px" viewBox="0 0 24.875 36" enable-background="new 0 0 24.875 36" xml:space="preserve">
<path fill-rule="evenodd" clip-rule="evenodd" fill="#FFFFFF" d="M12.764,20.267c-4.396,0.002-7.978-3.583-7.972-7.978
	C4.798,7.903,8.36,4.345,12.75,4.338c4.407-0.007,7.989,3.559,7.989,7.954C20.739,16.691,17.166,20.265,12.764,20.267z"/>
<path fill-rule="evenodd" clip-rule="evenodd" fill="#E01E26" d="M1.617,11.999c0-5.063,3.875-9.706,9.129-10.651
	c6.065-1.091,11.842,2.85,12.963,8.877c0.554,2.977,0.025,5.782-1.708,8.271c-1.402,2.016-2.939,3.938-4.427,5.893
	c-1.267,1.665-2.482,3.358-3.316,5.292c-0.494,1.144-0.84,2.328-0.978,3.569c-0.04,0.357-0.229,0.557-0.522,0.553
	c-0.268-0.003-0.463-0.192-0.498-0.505c-0.235-2.153-1.068-4.085-2.19-5.909c-1.138-1.849-2.545-3.498-3.861-5.216
	c-1.018-1.328-2.021-2.673-2.937-4.073C2.126,16.349,1.637,14.375,1.617,11.999z M12.764,20.267
	c4.402-0.002,7.975-3.575,7.975-7.975c0-4.395-3.582-7.961-7.989-7.954C8.36,4.345,4.798,7.903,4.792,12.289
	C4.786,16.684,8.369,20.269,12.764,20.267z"/>
<g>
	<path fill="#E01E26" d="M17.549,11.597c-0.001-1.243-0.487-2.413-1.368-3.294c-0.883-0.882-2.053-1.368-3.295-1.368
		c-0.001,0-0.003,0-0.005,0c-1.244,0-2.414,0.486-3.296,1.368c-0.882,0.882-1.368,2.054-1.368,3.298s0.486,2.415,1.368,3.298
		c0.882,0.882,2.053,1.368,3.298,1.368v-0.093c-1.22,0-2.367-0.477-3.231-1.341c-0.865-0.865-1.341-2.012-1.341-3.231
		s0.476-2.367,1.341-3.232c0.864-0.864,2.011-1.34,3.229-1.34c0.001,0,0.003,0,0.005,0c1.217,0,2.364,0.476,3.229,1.34
		c0.863,0.863,1.339,2.01,1.34,3.232c0,1.176-0.447,2.29-1.258,3.144c-0.075-0.053-0.166-0.085-0.264-0.085
		c-0.253,0-0.459,0.206-0.459,0.459c0,0.253,0.206,0.459,0.459,0.459s0.459-0.206,0.459-0.459c0-0.121-0.048-0.23-0.125-0.313
		C17.094,13.935,17.549,12.8,17.549,11.597z M15.935,15.484c-0.202,0-0.366-0.164-0.366-0.366c0-0.201,0.164-0.365,0.366-0.365
		s0.365,0.164,0.365,0.365C16.3,15.32,16.136,15.484,15.935,15.484z"/>
	<g>
		<path fill="#064368" d="M12.479,10.91l0.023,0.059c0.007,0.019,0.182,0.458,0.2,0.77c0.011,0.188-0.023,0.72-0.053,1.188
			c-0.019,0.288-0.035,0.537-0.035,0.625c0,0.131,0.042,0.585,0.076,0.95c0.029,0.318,0.047,0.516,0.047,0.569
			c0,0.085,0.063,0.647,0.104,1.005l0.188,0.948l-0.152,0.483l0.155,0.162l0.048-0.697c-0.02-0.11-0.117-0.667-0.1-0.858
			c0.017-0.189,0.139-2.238,0.14-2.259l0.006-0.1h0.213l0.006,0.1c0.001,0.021,0.123,2.07,0.14,2.259
			c0.018,0.2-0.038,0.822-0.041,0.849l0.005,0.705l0.152-0.146l-0.121-0.501l0.146-0.948c0.042-0.354,0.104-0.916,0.104-1.001
			c0-0.054,0.018-0.251,0.047-0.569c0.034-0.365,0.076-0.819,0.076-0.95c0-0.088-0.016-0.337-0.034-0.625
			c-0.03-0.469-0.064-1.001-0.053-1.189c0.018-0.312,0.193-0.751,0.2-0.77l0.023-0.059l2.044-0.235c0.008,0,0.206-0.008,0.358-0.008
			c0.127,0,0.166,0.005,0.188,0.011c0.013,0.003,0.028,0.009,0.044,0.018c0.008-0.025,0.022-0.055,0.044-0.09h-0.003
			c-0.009,0-0.976,0.053-1.292,0.035l-0.311-0.017c-0.717-0.038-1.425-0.076-1.507-0.09c-0.169-0.028-0.204-0.273-0.211-0.378
			l-0.001-0.022l0.008-0.021c0.016-0.042,0.075-0.184,0.175-0.233c0.008-0.008,0.021-0.063,0.001-0.111l-0.046-0.113l0.003-0.027
			c0.005-0.052,0.003-0.207-0.072-0.291c-0.04-0.044-0.096-0.065-0.173-0.065h-0.013c-0.077,0-0.134,0.021-0.173,0.065
			c-0.076,0.084-0.078,0.239-0.072,0.292l0.002,0.026L12.94,9.767c-0.019,0.049-0.006,0.104,0.005,0.113
			c0.097,0.047,0.156,0.189,0.172,0.231l0.008,0.021l-0.001,0.023c-0.007,0.104-0.042,0.349-0.212,0.377
			c-0.083,0.014-0.791,0.052-1.508,0.09l-0.31,0.017"/>
		<path fill="#FFFFFF" d="M13.66,10.91l-0.023,0.059c-0.007,0.019-0.182,0.458-0.2,0.77c-0.011,0.188,0.023,0.72,0.053,1.188
			c0.019,0.288,0.034,0.537,0.034,0.625c0,0.131-0.042,0.585-0.075,0.95c-0.029,0.318-0.047,0.516-0.047,0.569
			c0,0.085-0.063,0.647-0.104,1.005l-0.188,0.948l0.151,0.483l-0.155,0.162l-0.048-0.697c0.02-0.11,0.117-0.667,0.099-0.858
			c-0.017-0.189-0.139-2.238-0.14-2.259l-0.006-0.1h-0.212l-0.006,0.1c-0.018,0.287,0.109,1.904,0.077,2.259
			c-0.018,0.2-0.179,0.822-0.177,0.849l-0.004,0.705l-0.152-0.146l0.121-0.501l-0.292-0.906c-0.042-0.354,0.042-0.957,0.042-1.042
			c0-0.054-0.018-0.251-0.047-0.569c-0.034-0.365-0.075-0.819-0.075-0.95c0-0.088,0.016-0.337,0.034-0.625
			c0.03-0.469,0.064-1.001,0.053-1.189c-0.018-0.312-0.193-0.751-0.2-0.77l-0.023-0.059l-2.044-0.235
			c-0.008,0-0.206-0.008-0.358-0.008c-0.127,0-0.166,0.005-0.188,0.011c-0.014,0.003-0.028,0.009-0.044,0.018
			c-0.009-0.025-0.022-0.055-0.044-0.09h0.003c0.008,0,0.976,0.053,1.292,0.035l0.311-0.017c0.717-0.038,1.424-0.076,1.507-0.09
			c0.169-0.028,0.204-0.273,0.211-0.378l0.001-0.022l-0.008-0.021c-0.016-0.042-0.075-0.184-0.175-0.233
			c-0.008-0.008-0.021-0.063-0.001-0.111l0.045-0.113l-0.003-0.027c-0.005-0.052-0.003-0.207,0.072-0.291
			c0.04-0.044,0.096-0.065,0.173-0.065h0.013c0.077,0,0.134,0.021,0.173,0.065c0.076,0.084,0.078,0.239,0.073,0.292l-0.003,0.026
			l0.045,0.112c0.02,0.049,0.006,0.104-0.004,0.113c-0.097,0.047-0.156,0.189-0.172,0.231l-0.008,0.021l0.001,0.023
			c0.007,0.104,0.042,0.349,0.211,0.377c0.083,0.014,0.791,0.052,1.508,0.09l0.31,0.017"/>
		<path fill="#E01E26" d="M13.373,10.91l-0.024,0.059c-0.007,0.019-0.182,0.458-0.2,0.77c-0.011,0.188,0.023,0.72,0.053,1.188
			c0.018,0.288,0.034,0.537,0.034,0.625c0,0.131-0.042,0.585-0.075,0.95c-0.029,0.318-0.047,0.516-0.047,0.569
			c0,0.085-0.063,0.647-0.104,1.005l-0.188,0.948l0.151,0.483l-0.155,0.162l-0.048-0.697c0.02-0.11,0.117-0.667,0.099-0.858
			c-0.017-0.189-0.139-2.238-0.14-2.259l-0.006-0.1H12.51l-0.006,0.1c-0.001,0.021-0.123,2.07-0.14,2.259
			c-0.018,0.2,0.038,0.822,0.041,0.849L12.4,17.667l-0.152-0.146l0.121-0.501l-0.145-0.948c-0.042-0.354-0.104-0.916-0.104-1.001
			c0-0.054-0.018-0.251-0.047-0.569c-0.034-0.365-0.076-0.819-0.076-0.95c0-0.088,0.016-0.337,0.034-0.625
			c0.03-0.469,0.064-1.001,0.054-1.189c-0.019-0.312-0.193-0.751-0.2-0.77l-0.023-0.059l-2.045-0.235
			c-0.008,0-0.205-0.008-0.357-0.008c-0.127,0-0.166,0.005-0.189,0.011c-0.013,0.003-0.028,0.009-0.044,0.018
			c-0.008-0.025-0.022-0.055-0.043-0.09h0.003c0.008,0,0.976,0.053,1.292,0.035l0.311-0.017c0.717-0.038,1.424-0.076,1.507-0.09
			c0.169-0.028,0.204-0.273,0.211-0.378l0.001-0.022l-0.008-0.021c-0.016-0.042-0.075-0.184-0.175-0.233
			c-0.008-0.008-0.021-0.063-0.001-0.111l0.045-0.113l-0.003-0.027c-0.006-0.052-0.003-0.207,0.072-0.291
			c0.04-0.044,0.096-0.065,0.173-0.065h0.013c0.077,0,0.133,0.021,0.173,0.065c0.076,0.084,0.078,0.239,0.072,0.292l-0.002,0.026
			l0.045,0.112c0.02,0.049,0.006,0.104-0.004,0.113c-0.097,0.047-0.156,0.189-0.172,0.231l-0.008,0.021l0.001,0.023
			c0.007,0.104,0.042,0.349,0.211,0.377c0.083,0.014,0.791,0.052,1.508,0.09l0.309,0.017"/>
	</g>
</g>
</svg>
