<?xml version="1.0" encoding="utf-8"?>
<!-- Generator: Adobe Illustrator 16.0.0, SVG Export Plug-In . SVG Version: 6.00 Build 0)  -->
<!DOCTYPE svg PUBLIC "-//W3C//DTD SVG 1.1//EN" "http://www.w3.org/Graphics/SVG/1.1/DTD/svg11.dtd">
<svg version="1.1" id="Layer_1" xmlns="http://www.w3.org/2000/svg" xmlns:xlink="http://www.w3.org/1999/xlink" x="0px" y="0px"
	 width="24.875px" height="36px" viewBox="0 0 24.875 36" enable-background="new 0 0 24.875 36" xml:space="preserve">
<path fill-rule="evenodd" clip-rule="evenodd" fill="#FFFFFF" d="M12.764,20.267c-4.396,0.002-7.978-3.583-7.972-7.978
	C4.798,7.903,8.36,4.345,12.75,4.338c4.407-0.007,7.989,3.559,7.989,7.954C20.739,16.691,17.166,20.265,12.764,20.267z"/>
<g>
	<path fill="#E01E26" d="M11.132,16.287c0,0.394-0.319,0.713-0.713,0.713H8.779c-0.394,0-0.713-0.319-0.713-0.713V7.53
		c0-0.394,0.319-0.713,0.713-0.713h1.641c0.394,0,0.713,0.319,0.713,0.713V16.287z"/>
	<path fill="#E01E26" d="M17.088,16.287c0,0.394-0.319,0.713-0.713,0.713h-1.64c-0.394,0-0.713-0.319-0.713-0.713V7.53
		c0-0.394,0.319-0.713,0.713-0.713h1.64c0.394,0,0.713,0.319,0.713,0.713V16.287z"/>
	<path fill="#E01E26" d="M15.834,12.218c0,0.394-0.246,0.713-0.55,0.713h-5.136c-0.303,0-0.549-0.319-0.549-0.713v-1.692
		c0-0.394,0.246-0.713,0.549-0.713h5.136c0.304,0,0.55,0.319,0.55,0.713V12.218z"/>
</g>
<path fill-rule="evenodd" clip-rule="evenodd" fill="#39B54A" d="M1.617,11.999c0-5.063,3.875-9.706,9.129-10.651
	c6.065-1.091,11.842,2.85,12.963,8.877c0.554,2.977,0.025,5.782-1.708,8.271c-1.402,2.016-2.939,3.938-4.427,5.893
	c-1.267,1.665-2.482,3.358-3.316,5.292c-0.494,1.144-0.84,2.328-0.978,3.569c-0.04,0.357-0.229,0.557-0.522,0.553
	c-0.268-0.003-0.463-0.192-0.498-0.505c-0.235-2.153-1.068-4.085-2.19-5.909c-1.138-1.849-2.545-3.498-3.861-5.216
	c-1.018-1.328-2.021-2.673-2.937-4.073C2.126,16.349,1.637,14.375,1.617,11.999z M12.764,20.267
	c4.402-0.002,7.975-3.575,7.975-7.975c0-4.395-3.582-7.961-7.989-7.954C8.36,4.345,4.798,7.903,4.792,12.289
	C4.786,16.684,8.369,20.269,12.764,20.267z"/>
</svg>
