<?xml version="1.0" encoding="utf-8"?>
<!-- Generator: Adobe Illustrator 16.0.0, SVG Export Plug-In . SVG Version: 6.00 Build 0)  -->
<!DOCTYPE svg PUBLIC "-//W3C//DTD SVG 1.1//EN" "http://www.w3.org/Graphics/SVG/1.1/DTD/svg11.dtd">
<svg version="1.1" id="Layer_2" xmlns="http://www.w3.org/2000/svg" xmlns:xlink="http://www.w3.org/1999/xlink" x="0px" y="0px"
	 width="966.537px" height="163.672px" viewBox="0 0 966.537 163.672" enable-background="new 0 0 966.537 163.672"
	 xml:space="preserve">
<text transform="matrix(1 0 0 1 387.5103 63.8555)" fill="#7A7978" font-family="'YouYuan'" font-size="30" letter-spacing="12">你的第二</text>
<text transform="matrix(1 0 0 1 387.5103 99.8555)" fill="#7A7978" font-family="'YouYuan'" font-size="30" letter-spacing="12">意见专家</text>
<g>
	<g>
		<path fill="#E20613" d="M136.474,67.515c-0.012-14.415-5.646-27.979-15.859-38.197C110.377,19.09,96.809,13.46,82.4,13.46
			c-0.02,0-0.041,0-0.063,0c-14.422,0-27.993,5.633-38.217,15.856c-10.228,10.236-15.859,23.82-15.859,38.248
			c0,14.424,5.632,28.004,15.859,38.237c10.232,10.23,23.813,15.867,38.239,15.867v-1.084c-14.138,0-27.446-5.521-37.473-15.551
			C34.864,95.008,29.344,81.697,29.344,67.564c0-14.139,5.521-27.449,15.544-37.479c10.019-10.022,23.319-15.542,37.45-15.542
			c0.021,0,0.041,0,0.062,0c14.117,0,27.416,5.519,37.447,15.542c10.011,10.013,15.53,23.306,15.542,37.479
			c0,13.633-5.18,26.549-14.583,36.452c-0.865-0.613-1.919-0.98-3.058-0.98c-2.937,0-5.323,2.389-5.323,5.318
			c0,2.938,2.388,5.323,5.323,5.323c2.933,0,5.318-2.39,5.318-5.323c0-1.4-0.557-2.672-1.445-3.623
			C131.199,94.63,136.474,81.463,136.474,67.515z M117.75,112.596c-2.338,0-4.24-1.902-4.24-4.24c0-2.336,1.902-4.234,4.24-4.234
			c2.336,0,4.234,1.898,4.234,4.234C121.984,110.693,120.086,112.596,117.75,112.596z"/>
		<g>
			<path fill="#004267" d="M77.67,59.543l0.271,0.681c0.084,0.216,2.109,5.309,2.324,8.923c0.126,2.182-0.266,8.345-0.615,13.783
				c-0.213,3.342-0.396,6.229-0.396,7.252c0,1.52,0.482,6.785,0.873,11.021c0.338,3.688,0.545,5.977,0.545,6.599
				c0,0.99,0.726,7.515,1.214,11.649l2.183,10.99l-1.757,5.604l1.795,1.877l0.558-8.075c-0.23-1.283-1.354-7.729-1.152-9.957
				c0.199-2.188,1.607-25.955,1.623-26.19l0.07-1.155h2.467l0.066,1.155c0.016,0.235,1.428,24.004,1.625,26.19
				c0.209,2.316-0.441,9.536-0.472,9.844l0.052,8.177l1.764-1.698L89.31,130.4l1.688-10.988c0.482-4.102,1.205-10.618,1.205-11.607
				c0-0.623,0.207-2.912,0.547-6.6c0.394-4.23,0.877-9.502,0.877-11.02c0-1.023-0.186-3.902-0.397-7.24
				c-0.351-5.44-0.746-11.61-0.619-13.793c0.211-3.614,2.235-8.707,2.32-8.921l0.272-0.682l23.709-2.727
				c0.092-0.008,2.381-0.101,4.148-0.101c1.477,0,1.924,0.063,2.188,0.126c0.154,0.039,0.326,0.107,0.519,0.205
				c0.096-0.293,0.26-0.638,0.506-1.042l-0.032,0.001c-0.101,0.005-11.32,0.612-14.979,0.403l-3.606-0.191
				c-8.318-0.438-16.518-0.883-17.479-1.041c-1.967-0.326-2.367-3.171-2.448-4.378l-0.017-0.265l0.095-0.25
				c0.181-0.487,0.871-2.131,2.03-2.705c0.09-0.095,0.24-0.727,0.016-1.289l-0.525-1.308l0.034-0.309
				c0.063-0.604,0.037-2.396-0.838-3.373c-0.459-0.509-1.114-0.753-2.006-0.753h-0.151c-0.892,0-1.55,0.244-2.007,0.753
				c-0.877,0.975-0.901,2.77-0.84,3.379l0.03,0.303l-0.521,1.304c-0.226,0.563-0.072,1.198,0.053,1.313
				c1.121,0.549,1.813,2.188,1.994,2.68l0.096,0.249L85.154,50.8c-0.082,1.209-0.486,4.052-2.453,4.378
				c-0.959,0.158-9.166,0.604-17.49,1.042l-3.588,0.19"/>
			<path fill="#FFFFFF" d="M91.369,59.543l-0.273,0.681c-0.084,0.216-2.109,5.309-2.322,8.923
				c-0.126,2.182,0.266,8.345,0.613,13.783c0.214,3.342,0.398,6.229,0.398,7.252c0,1.52-0.483,6.785-0.873,11.021
				c-0.34,3.688-0.547,5.977-0.547,6.599c0,0.99-0.726,7.515-1.213,11.649l-2.184,10.99l1.757,5.604l-1.794,1.877l-0.557-8.075
				c0.229-1.283,1.353-7.729,1.15-9.957c-0.199-2.188-1.607-25.955-1.622-26.19l-0.069-1.156h-2.467l-0.068,1.154
				c-0.203,3.319,1.266,22.084,0.896,26.19c-0.207,2.317-2.078,9.538-2.049,9.844l-0.053,8.179l-1.764-1.698l1.399-5.813
				l-3.385-10.51c-0.482-4.103,0.495-11.103,0.495-12.093c0-0.621-0.211-2.912-0.551-6.598c-0.392-4.232-0.875-9.502-0.875-11.021
				c0-1.021,0.185-3.9,0.397-7.238c0.351-5.441,0.746-11.611,0.618-13.794c-0.211-3.614-2.236-8.707-2.319-8.921l-0.272-0.682
				l-23.71-2.725c-0.092-0.008-2.381-0.101-4.146-0.101c-1.479,0-1.926,0.063-2.188,0.126c-0.154,0.038-0.326,0.107-0.517,0.204
				c-0.101-0.293-0.261-0.637-0.506-1.042l0.032,0.001c0.1,0.006,11.318,0.613,14.978,0.404l3.607-0.191
				c8.317-0.438,16.517-0.883,17.478-1.041c1.967-0.326,2.368-3.172,2.448-4.378l0.019-0.265l-0.095-0.25
				c-0.183-0.488-0.873-2.131-2.032-2.705c-0.088-0.095-0.24-0.727-0.014-1.289l0.523-1.308l-0.034-0.309
				c-0.063-0.604-0.037-2.398,0.838-3.373c0.459-0.509,1.114-0.753,2.008-0.753h0.152c0.89,0,1.547,0.244,2.004,0.753
				c0.878,0.975,0.901,2.77,0.842,3.379l-0.032,0.303l0.521,1.304c0.227,0.563,0.07,1.198-0.055,1.314
				c-1.119,0.549-1.811,2.188-1.992,2.68l-0.096,0.249l0.019,0.267c0.081,1.209,0.485,4.053,2.45,4.379
				c0.961,0.158,9.17,0.603,17.492,1.042l3.588,0.19"/>
			<path fill="#E20613" d="M88.039,59.543l-0.273,0.681c-0.085,0.216-2.107,5.309-2.323,8.923
				c-0.126,2.182,0.267,8.345,0.614,13.783c0.213,3.342,0.396,6.229,0.396,7.252c0,1.52-0.481,6.785-0.873,11.021
				c-0.34,3.688-0.545,5.977-0.545,6.599c0,0.99-0.726,7.515-1.213,11.649l-2.183,10.99l1.756,5.604l-1.795,1.877l-0.558-8.075
				c0.23-1.283,1.354-7.729,1.152-9.957c-0.199-2.188-1.607-25.955-1.623-26.19l-0.068-1.156h-2.469l-0.066,1.154
				c-0.016,0.237-1.428,24.004-1.624,26.19c-0.209,2.317,0.442,9.538,0.473,9.844l-0.053,8.179l-1.765-1.698l1.398-5.813
				l-1.688-10.985c-0.481-4.103-1.203-10.619-1.203-11.61c0-0.621-0.209-2.912-0.549-6.599c-0.393-4.231-0.877-9.5-0.877-11.021
				c0-1.021,0.188-3.901,0.397-7.238c0.351-5.44,0.746-11.61,0.619-13.793c-0.211-3.614-2.233-8.707-2.32-8.921l-0.272-0.682
				L46.795,56.82c-0.092-0.008-2.383-0.101-4.148-0.101c-1.477,0-1.925,0.063-2.188,0.126c-0.156,0.039-0.326,0.107-0.518,0.205
				c-0.097-0.293-0.261-0.638-0.507-1.042l0.033,0.001c0.1,0.005,11.319,0.612,14.978,0.403l3.606-0.191
				c8.317-0.438,16.521-0.883,17.479-1.041c1.967-0.326,2.368-3.171,2.448-4.378l0.017-0.265l-0.094-0.25
				c-0.182-0.487-0.871-2.131-2.031-2.705c-0.09-0.095-0.24-0.727-0.015-1.289l0.525-1.308l-0.034-0.309
				c-0.064-0.604-0.038-2.398,0.837-3.373c0.459-0.509,1.114-0.753,2.007-0.753h0.152c0.89,0,1.548,0.244,2.005,0.753
				c0.877,0.975,0.903,2.771,0.84,3.379l-0.03,0.303l0.522,1.304c0.226,0.563,0.069,1.198-0.054,1.313
				c-1.123,0.549-1.813,2.188-1.995,2.68l-0.097,0.249l0.019,0.268c0.082,1.209,0.485,4.052,2.453,4.378
				c0.96,0.158,9.168,0.604,17.491,1.042l3.586,0.19"/>
		</g>
	</g>
	<g>
		<path fill="#E10717" d="M148.615,44.639c-0.09-0.726-0.361-1.39-0.966-2.325c2.235,0.271,7.036,0.271,11.354-0.271
			c4.166-0.514,5.857-0.876,7.549-1.51c0.543,0.966,1.479,2.204,1.871,2.627c0.363,0.394,0.212,0.604-0.15,0.515
			c-1.208-0.272-1.902-0.333-3.201-0.213c-2.023,0.213-3.835,0.394-5.496,0.515v2.777c6.221,0,9.301-0.061,11.777-0.212v2.387
			c-2.416-0.182-5.466-0.211-9.18-0.211c2.205,2.867,5.285,4.499,10.177,5.013c-0.755,0.905-1.358,2.113-1.601,2.959
			c-1.48-0.483-2.778-1.026-3.957-1.631c-0.06,0.482-0.09,1.146-0.09,2.204v6.433c0,1.358,0.03,2.506,0.151,3.774h-2.657v-1.781
			h-11.838v2.144h-2.537c0.092-1.389,0.121-2.416,0.121-3.772v-6.795c0-0.784-0.029-1.358-0.06-1.872
			c-0.997,0.574-2.083,1.117-3.322,1.661c-0.604-0.906-1.147-1.511-2.083-2.114c4.137-1.207,6.311-2.536,10.78-6.25
			c-3.927-0.03-7.036,0.061-9.573,0.241v-2.387c2.445,0.151,5.436,0.212,11.475,0.212v-2.566
			C153.598,44.488,150.91,44.609,148.615,44.639z M150.547,54.996h6.613v-5.979C154.896,51.675,152.933,53.486,150.547,54.996z
			 M164.197,56.929h-11.838v2.354h11.838V56.929L164.197,56.929z M164.197,61.308h-11.838v2.354h11.838V61.308L164.197,61.308z
			 M159.578,48.716v6.279h7.004c-2.988-1.601-5.133-3.684-6.521-6.279H159.578z"/>
		<path fill="#E10717" d="M184.041,53.546c-1.086-0.905-3.262-2.324-4.619-2.897l1.51-2.084c1.51,0.846,3.291,1.842,4.619,2.778
			L184.041,53.546z M184.011,62.001c-0.363,1.57-0.756,3.322-1.088,5.194c-1.117-0.846-2.145-1.479-3.17-1.872
			c0.785-1.208,1.479-2.839,2.053-4.438c0.664-1.934,1.178-3.865,1.329-5.164c0.544,0.756,1.298,1.178,2.204,1.479
			C184.947,58.439,184.494,60.1,184.011,62.001z M184.947,46.33c-1.058-1.117-2.598-2.295-4.076-3.171l1.631-1.963
			c1.479,0.938,2.808,1.933,4.016,2.929L184.947,46.33z M202.612,54.393c1.025,0.725,2.987,1.479,4.59,1.479
			c-0.967,0.876-1.448,1.723-1.603,2.748c-1.418-0.514-2.959-1.389-4.258-2.536c-0.028,0.814-0.06,1.54-0.06,2.415
			c0,1.087,0.06,2.387,0.119,3.171c-1.179-0.061-2.113-0.12-3.381-0.12h-5.738v1.901c0,0.997,0.182,1.329,1.358,1.359
			c1.601,0.061,3.744,0.061,6.341-0.091c1.69-0.092,2.508-0.726,2.629-3.291c0.36,0.572,1.389,1.025,2.565,1.328
			c-0.967,3.473-1.752,4.047-5.015,4.138c-2.747,0.09-4.891,0.12-6.521,0.06c-3.171-0.12-3.594-0.573-3.594-2.174v-8.123
			c-0.815,0.694-1.842,1.51-2.869,2.234c-0.453-0.694-0.996-1.238-1.721-1.722c1.299-0.635,2.146-1.178,3.653-2.445
			c1.479-1.238,2.354-2.113,2.929-2.959c-1.781,0-4.349,0.061-5.707,0.211V49.47c1.327,0.149,3.743,0.271,5.467,0.271v-3.654
			c-1.42,0.03-3.172,0.092-4.196,0.242v-2.537c1.024,0.151,2.776,0.242,4.196,0.272c-0.03-2.235-0.092-3.021-0.213-3.594
			c0.877,0.121,1.724,0.181,2.778,0.181c0.481,0,0.543,0.242,0.121,0.483c-0.272,0.15-0.394,0.452-0.394,0.755v2.175h4.138
			c0-2.416-0.092-3.201-0.211-3.806c0.875,0.12,1.721,0.182,2.775,0.182c0.574,0,0.543,0.271,0.121,0.514
			c-0.271,0.15-0.393,0.453-0.393,0.755v2.355c1.51-0.03,3.563-0.121,4.68-0.272v2.537c-1.117-0.15-3.17-0.212-4.68-0.242v3.654
			c1.78,0,4.348-0.091,5.736-0.271v2.506c-1.54-0.15-4.077-0.211-5.828-0.211C201.011,52.943,201.797,53.818,202.612,54.393z
			 M198.174,51.766h-3.715c-0.785,1.117-1.632,2.144-2.988,3.563c2.959,0.121,6.129,0.091,9.06-0.028
			C199.381,54.061,198.627,52.913,198.174,51.766z M192.284,59.647h6.886V57.17h-6.886V59.647z M198.233,49.742v-3.655h-4.138v3.654
			L198.233,49.742L198.233,49.742z"/>
		<path fill="#E10717" d="M224.509,44.79c-3.291,0-6.553,0.063-8.879,0.211v-2.748c2.537,0.213,6.041,0.362,12.865,0.362
			c7.729,0,10.326-0.12,12.982-0.362v2.748c-1.963-0.149-4.349-0.211-9.271-0.211v4.167c2.536,0,5.345-0.091,6.886-0.211
			c-0.121,0.814-0.184,2.386-0.184,3.412v7.247c0,2.748,0.121,5.707,0.271,7.459h-2.748V64.69h-16.096v2.688h-2.688
			c0.119-1.751,0.24-5.224,0.24-7.972v-7.247c0-1.026-0.09-2.628-0.181-3.412c1.539,0.12,4.228,0.211,6.793,0.211V44.79H224.509z
			 M226.743,51.04c-0.12,4.591-1.479,6.824-4.075,9.392c-0.362-0.514-1.3-1.238-2.022-1.54c2.627-1.963,3.774-4.106,3.864-7.852
			h-4.167v11.505h16.096V51.04h-4.228v4.65c0,1.479,0.692,1.721,3.353,1.146c-0.304,0.785-0.394,1.57-0.363,2.296
			c-0.813,0.06-2.627,0.09-3.381,0.06c-1.391-0.06-1.873-0.725-1.873-2.113V51.04H226.743z M229.944,44.79h-3.201v4.167h3.201V44.79
			z"/>
		<path fill="#E10717" d="M269.418,51.946c1.207,0,2.354-0.061,3.08-0.15l-0.968,11.021c-0.271,3.231-0.847,3.956-5.89,4.741
			c-0.149-1.179-0.875-2.567-1.963-3.654c3.532,0.815,4.862,0.121,5.073-1.601l0.938-8.002h-8.306
			c-0.755,5.919-2.354,8.546-7.487,13.136c-0.636-1.087-1.723-1.781-2.932-2.113c4.439-2.175,7.189-6.281,7.854-11.083
			c0.241-1.751,0.361-3.744,0.422-6.13c-3.864,0.03-6.34,0.091-8.877,0.212v-2.718c3.109,0.149,7.338,0.211,12.955,0.211
			c5.676,0,9.993-0.062,12.983-0.211v2.718c-2.959-0.151-8.576-0.212-14.255-0.212c-0.119,1.359-0.239,2.567-0.393,3.835H269.418
			L269.418,51.946z M262.26,45.454c-0.302-1.299-1.117-3.171-1.661-4.105l3.262-1.027c0.242,1.088,0.937,2.869,1.57,3.986
			L262.26,45.454z"/>
		<path fill="#E10717" d="M298.772,66.592c-8.816,0-10.449,0-12.199,0.15c0.121-1.178,0.181-3.321,0.181-5.164V47.115
			c0-1.782-0.06-4.077-0.181-5.255c1.75,0.242,3.32,0.362,12.199,0.362c8.032,0,9.754-0.12,11.477-0.362v2.628
			c-1.026-0.091-3.291-0.182-8.123-0.182h-12.924v20.021h13.559c4.893,0,5.979-0.091,7.67-0.332v2.748
			C308.709,66.592,307.649,66.592,298.772,66.592z M309.342,53.608v2.536c-2.354-0.182-4.438-0.271-8.696-0.271
			c-1.117,3.563-3.262,5.313-7.883,7.398c-0.543-0.694-1.146-1.329-1.963-1.993c4.168-1.51,6.342-2.868,7.398-5.405
			c-3.322,0.03-5.617,0.121-7.642,0.271v-2.477c2.175,0.12,4.591,0.182,8.214,0.211c0.211-1.116,0.332-2.416,0.361-3.955h-4.105
			c-0.483,0.846-1.058,1.781-1.511,2.536c-0.726-0.302-1.661-0.544-2.386-0.604c1.781-1.358,3.352-4.499,3.531-6.703
			c0.816,0.211,1.963,0.423,2.72,0.513c0.271,0.03,0.271,0.092-0.091,0.394c-0.151,0.15-0.545,0.726-1.117,1.782
			c9.904,0,10.962-0.03,12.048-0.121v2.324c-0.996-0.091-2.808-0.12-4.56-0.12h-1.994c-0.119,1.511-0.301,2.809-0.512,3.955
			C305.084,53.878,307.077,53.788,309.342,53.608z M307.257,63.209c-1.963-1.721-4.137-3.109-6.643-4.379l1.146-1.721
			c2.718,1.208,5.438,2.657,7.097,3.865L307.257,63.209z"/>
		<path fill="#E10717" d="M346.85,43.34v2.747c-1.721-0.149-3.896-0.24-10.688-0.24h-8.637c0.028,12.834-0.726,16.85-4.287,21.833
			c-0.847-0.785-1.722-1.45-2.599-1.752c2.748-2.688,3.836-5.346,4.259-10.569c-1.449,0.876-3.322,2.084-4.47,2.93
			c-0.271-0.997-0.573-1.901-1.026-2.93c1.873-0.513,4.075-1.358,5.646-2.265c0.092-2.688,0.03-5.979-0.242-9.754
			c1.479,0.15,3.986,0.271,9.572,0.303c-0.211-0.967-0.479-1.963-0.845-2.931l3.108-0.331c0.119,0.996,0.332,2.022,0.636,3.262
			C343.228,43.643,345.219,43.522,346.85,43.34z M320.911,52.007c0-2.023-0.211-3.806-0.482-5.587l2.385-0.303
			c0.15,1.723,0.363,3.594,0.664,5.496L320.911,52.007z M338.878,55.48v8.999c0,2.265-0.271,2.627-5.313,3.261
			c-0.063-1.087-0.483-2.144-1.392-3.08c3.834,0.183,4.019,0.062,4.019-1.117v-4.167c0-1.872-0.213-4.137-0.453-4.86
			c1.722-0.755,3.412-1.782,5.496-3.231c-5.681,0-9.394,0.062-11.838,0.332v-2.688c2.295,0.182,4.286,0.24,8.334,0.24
			c4.739,0,6.854-0.119,8.063-0.24v2.656C344.495,51.915,343.317,52.521,338.878,55.48z"/>
		<path fill="#E10717" d="M151,109.115h-2.656c0.211-1.723,0.332-3.896,0.332-6.521v-9.783c-0.846,1.479-1.752,2.93-2.506,4.045
			c-0.424-0.691-1.088-1.389-1.813-1.934c1.299-1.146,2.688-3.021,4.137-6.703c0.846-2.146,1.479-4.35,1.631-5.947
			c1.058,0.421,1.873,0.664,2.869,0.875c0.635,0.121,0.756,0.361,0.03,0.906c-0.241,0.211-0.483,0.604-2.022,4.166v20.896H151
			L151,109.115z M171.082,95.587v2.323c-1.842-0.149-3.806-0.241-6.613-0.271c2.355,4.26,4.287,5.525,8.273,6.465
			c-0.814,0.662-1.66,1.9-2.113,2.896c-3.744-1.723-6.101-4.832-7.428-9.361h-0.182v6.613c0,1.357,0.121,3.172,0.303,4.832h-2.93
			c0.182-1.604,0.271-3.021,0.271-4.832v-6.611h-0.15c-1.359,4.196-2.99,6.674-6.521,10.059c-0.515-0.516-1.179-1.025-2.447-1.602
			c3.231-2.354,5.92-5.406,7.158-8.429c-2.567,0.03-4.349,0.121-6.101,0.241v-2.323c2.174,0.149,4.378,0.239,8.063,0.271v-3.713
			c-2.688,0-3.926,0.028-5.315,0.119c0.091-1.117,0.121-2.354,0.121-4.438c0-1.479-0.03-3.383-0.121-4.5
			c1.722,0.15,3.05,0.185,6.854,0.185c3.293,0,5.043-0.063,6.765-0.185c-0.091,1.117-0.121,3.021-0.121,4.5s0.03,3.32,0.121,4.438
			c-1.479-0.119-3.171-0.119-5.949-0.119v3.713C166.643,95.828,168.908,95.736,171.082,95.587z M157.795,90.212h8.697v-4.711h-8.697
			V90.212z"/>
		<path fill="#E10717" d="M181.142,96.191c-0.423-0.785-0.936-1.479-1.57-2.084c1.117-1.358,1.813-2.508,2.688-4.771
			c0.604-1.568,1.479-5.134,1.631-6.766c0.905,0.395,1.54,0.636,2.537,0.848c0.633,0.12,0.692,0.303,0.211,0.664
			c-0.183,0.12-0.394,0.543-1.601,3.411v21.713h-2.295c0.211-2.021,0.301-3.653,0.301-5.827V92.264
			C182.289,93.986,181.746,95.072,181.142,96.191z M190.504,94.893c-1.33,0.027-1.963,0.148-3.08,0.48
			c-0.092-0.693-0.242-1.115-0.574-1.658c0.757-0.242,1.179-0.604,1.421-1.451l1.75-5.521c-1.117,0-1.842,0.027-2.535,0.117v-1.99
			c1.389,0.091,3.412,0.121,5.071,0c-0.754,2.688-1.659,5.679-2.565,8.242c1.178-0.063,1.873-0.119,2.565-0.211
			c-0.211,4.924-0.543,7.762-1.569,10.146c2.266,2.446,6.612,3.838,15.342,2.84c-0.453,0.998-0.635,1.813-0.694,2.537
			c-9.513,0.332-13.438-1.209-15.612-3.563c-0.634,1.024-1.449,2.021-2.477,3.172c-0.514-0.482-1.147-0.877-1.993-1.209
			c1.42-1.146,2.446-2.295,3.172-3.652c-1.116-1.781-1.935-3.744-2.235-5.678l1.873-0.395c0.211,1.391,0.604,2.719,1.269,3.955
			C190.14,99.391,190.411,97.428,190.504,94.893z M205.179,96.915v2.114c-1.51-0.151-2.537-0.213-5.617-0.213v2.354
			c2.869,0,4.5-0.063,5.949-0.24v2.113c-1.389-0.148-3.051-0.212-5.949-0.212c0.031,0.938,0.092,1.843,0.182,2.931h-2.232
			c0.09-1.06,0.12-1.963,0.148-2.931c-1.9,0.028-3.141,0.063-4.228,0.212v-2.113c1.087,0.15,2.354,0.211,4.228,0.24v-2.354
			c-1.812,0.029-2.688,0.062-3.834,0.213v-2.114c1.179,0.151,2.022,0.213,3.834,0.241V94.68c-1.812,0-2.838,0.063-3.684,0.148v-1.93
			c0.846,0.09,1.872,0.119,3.684,0.147V90.63c-2.144,0-3.319,0.091-4.648,0.211v-2.084c1.329,0.121,2.508,0.185,4.648,0.185v-2.324
			c-1.659,0-2.354,0.029-3.623,0.15v-1.99c1.179,0.09,1.843,0.119,3.623,0.146c-0.028-1.418-0.09-2.563-0.211-3.109
			c0.875,0.121,1.449,0.15,2.326,0.15c0.844,0,0.904,0.211,0.211,0.604c-0.271,0.15-0.424,0.666-0.424,1.146v1.207
			c2.748,0,3.775-0.063,5.073-0.271c-0.091,0.604-0.091,1.025-0.091,1.724v2.563c1.057,0,1.842-0.061,2.326-0.182v2.021
			c-0.484-0.092-1.299-0.121-2.326-0.148v1.688c0,0.938,0.031,1.662,0.121,2.447c-0.967-0.063-2.053-0.093-5.104-0.093v2.478
			C202.642,97.156,203.608,97.096,205.179,96.915z M202.461,88.943v-2.326h-2.897v2.326H202.461z M199.562,90.635v2.414h2.898
			v-2.414H199.562z"/>
		<path fill="#E10717" d="M215.601,88.037v-2.598c2.598,0.148,4.893,0.24,8.969,0.271c0.635-1.603,1.117-3.319,1.299-4.229
			c1.207,0.422,2.175,0.635,3.322,0.784c0.604,0.09,0.633,0.301,0.09,0.635c-0.754,0.48-1.328,1.328-1.871,2.81
			c9.691,0,11.232,0,14.313-0.271v2.598c-3.411-0.241-5.646-0.303-15.34-0.303c-0.604,1.146-1.271,2.232-1.963,3.32h5.344
			c3.052,0,5.979-0.092,8.095-0.305c-0.121,0.85-0.242,2.443-0.242,4.105v10.235c0,2.931-0.09,3.142-4.771,3.983
			c-0.061-0.903-0.452-2.084-1.117-3.079c2.84,0.452,3.321,0.149,3.321-1.66v-1.722h-11.054v6.312h-2.807
			c0.18-1.538,0.271-3.108,0.271-4.317v-9.512c-1.328,1.661-2.746,3.2-4.104,4.59c-0.604-0.664-1.603-1.328-2.296-1.568
			c3.291-2.324,6.281-5.891,8.576-10.354C220.069,87.766,217.957,87.857,215.601,88.037z M235.049,93.02h-11.053v2.658h11.053V93.02
			z M223.995,100.63h11.054v-2.961h-11.054V100.63z"/>
		<path fill="#E10717" d="M256.944,92.9c1.902,2.23,2.778,4.377,2.688,6.49c-0.091,2.145-1.179,3.863-4.349,4.35
			c-0.031-0.938-0.303-1.842-1.147-2.838c2.416,0,2.628-0.121,2.989-1.963c0.332-1.449-0.332-3.477-2.205-5.588l2.416-7.854h-3.473
			v23.279h-2.508c0.092-2.719,0.121-4.527,0.121-7.063v-15.52c0-1.146-0.091-2.354-0.211-3.145c1.146,0.15,2.598,0.242,4.74,0.242
			c2.113,0,3.473-0.092,4.62-0.242L256.944,92.9z M273.282,95.617c0.513,0.726,1.449,1.604,1.992,1.963
			c0.183,0.119,0.15,0.304-0.063,0.361c-0.664,0.211-2.082,1.209-4.98,3.474c1.237,1.844,3.773,3.411,6.612,4.14
			c-0.847,0.965-1.358,2.084-1.569,2.896c-2.386-0.938-4.832-2.774-6.342-5.162c-1.328-2.112-2.113-4.5-2.507-8.063h-2.265v9.938
			c1.086-0.604,2.354-1.329,3.109-1.813c0.092,0.902,0.211,1.567,0.452,2.354l-3.805,2.175c-0.726,0.425-1.511,0.995-1.935,1.39
			c-0.332-0.785-0.754-1.511-1.269-2.232c0.784-0.395,1.147-0.996,1.147-2.627V86.255c0-1.235-0.031-2.231-0.152-3.17
			c1.089,0.149,3.686,0.271,6.281,0.271c2.777,0,5.346-0.119,6.313-0.271c-0.092,1.058-0.15,1.963-0.15,3.17v5.828
			c0,0.967,0.062,2.146,0.183,3.383c-0.906-0.12-2.446-0.211-5.89-0.239c0.211,1.602,0.574,3.229,0.968,4.407
			C271.106,98.335,272.346,97.005,273.282,95.617z M264.132,85.169v3.319h7.701v-3.319H264.132z M264.132,90.273v3.139h7.701v-3.139
			H264.132z"/>
		<path fill="#E10717" d="M295.903,84.686c-0.271,0.121-1.146,1.604-1.722,2.777c-0.784,1.779-3.927,7.127-7.036,10.086
			c-0.543-0.516-1.902-1.299-2.897-1.723c4.168-2.867,7.729-9.061,8.817-12.863c0.967,0.516,2.203,0.967,2.896,1.088
			C296.418,84.141,296.388,84.414,295.903,84.686z M301.036,99.512l2.234-1.207c2.022,2.627,4.229,5.855,5.828,8.574l-2.96,1.752
			c-0.332-0.848-0.784-1.813-1.299-2.869c-8.575,0.574-14.769,1.449-15.944,1.873c-0.181-0.938-0.604-2.021-1.086-2.932
			c0.664-0.18,1.086-0.543,1.813-1.418c3.594-4.35,5.617-8.336,6.463-11.203c1.178,0.635,2.477,1.208,3.08,1.391
			c0.725,0.213,0.604,0.453-0.03,0.785c-0.241,0.119-0.726,0.725-1.269,1.568c-1.512,2.324-4.047,6.01-6.041,8.639l11.867-0.756
			C302.849,102.23,301.914,100.749,301.036,99.512z M309.765,97.398c-5.375-4.684-8.184-9.604-9.604-14.104
			c1.146,0,1.994-0.147,2.809-0.543c1.631,5.403,4.379,9.147,9.422,11.838C311.336,95.255,310.368,96.281,309.765,97.398z"/>
		<path fill="#E10717" d="M330.694,91.449c-4.377,0-6.582,0.091-9.479,0.271v-2.656c2.931,0.18,5.162,0.271,9.479,0.271
			c4.649,0,5.588-0.028,8.063-0.271v2.656C336.161,91.51,335.344,91.449,330.694,91.449z M325.803,103.227v3.143h-2.776
			c0.181-1.418,0.332-3.439,0.332-4.832V97.58c0-1.088-0.093-2.387-0.213-3.141c0.997,0.119,4.139,0.211,7.579,0.211
			c3.441,0,5.828-0.092,6.765-0.211c-0.09,0.543-0.211,1.898-0.211,3.107v3.98c0,1.395,0.062,2.297,0.211,3.414h-2.627v-1.723h-9.06
			V103.227L325.803,103.227z M343.921,87.102v18.725c0,2.654-1.178,3.742-5.797,3.623c-0.092-1.059-0.363-1.965-1.027-3.08
			c3.654,0.271,4.197-0.028,4.197-1.355v-18.97h-8.637c-5.918,0-8.002,0.062-9.604,0.183v-2.718
			c2.326,0.212,5.524,0.271,10.146,0.271c4.647,0,8.517-0.117,10.841-0.271C343.952,84.384,343.921,85.048,343.921,87.102z
			 M334.862,101.053v-4.26H325.8v4.26H334.862z"/>
	</g>
</g>
</svg>
