<?xml version="1.0" encoding="utf-8"?>
<!-- Generator: Adobe Illustrator 16.0.0, SVG Export Plug-In . SVG Version: 6.00 Build 0)  -->
<!DOCTYPE svg PUBLIC "-//W3C//DTD SVG 1.1//EN" "http://www.w3.org/Graphics/SVG/1.1/DTD/svg11.dtd">
<svg version="1.1" id="Layer_2" xmlns="http://www.w3.org/2000/svg" xmlns:xlink="http://www.w3.org/1999/xlink" x="0px" y="0px"
	 width="966.074px" height="163.672px" viewBox="0 0 966.074 163.672" enable-background="new 0 0 966.074 163.672"
	 xml:space="preserve">
<g>
	<g>
		<path fill="#E20613" d="M154.528,42.47h-8.762v-3.163h21.325v3.163h-8.804v25.642h-3.76L154.528,42.47L154.528,42.47z"/>
		<path fill="#E20613" d="M180.298,59.051l-2.992,9.061h-3.846l9.788-28.805h4.486l9.83,28.805h-3.975l-3.078-9.061H180.298z
			 M189.742,56.145l-2.82-8.291c-0.643-1.88-1.068-3.59-1.496-5.257h-0.084c-0.428,1.71-0.898,3.462-1.455,5.214l-2.82,8.334
			H189.742z"/>
		<path fill="#E20613" d="M214.058,39.307v28.805h-3.719V39.307H214.058z"/>
		<path fill="#E20613" d="M229.099,39.65c1.795-0.3,4.146-0.557,7.137-0.557c3.676,0,6.369,0.854,8.076,2.394
			c1.582,1.366,2.521,3.462,2.521,6.024c0,2.607-0.77,4.658-2.223,6.154c-1.965,2.094-5.172,3.162-8.803,3.162
			c-1.111,0-2.137-0.043-2.99-0.256V68.11h-3.721V39.65H229.099z M232.818,53.538c0.813,0.214,1.836,0.299,3.076,0.299
			c4.488,0,7.225-2.18,7.225-6.153c0-3.804-2.693-5.642-6.797-5.642c-1.625,0-2.863,0.128-3.504,0.299V53.538L232.818,53.538z"/>
		<path fill="#E20613" d="M261.451,59.051l-2.992,9.061h-3.846l9.787-28.805h4.486l9.83,28.805h-3.977l-3.074-9.061H261.451z
			 M270.894,56.145l-2.82-8.291c-0.641-1.88-1.068-3.59-1.494-5.257h-0.086c-0.428,1.71-0.896,3.462-1.453,5.214l-2.82,8.334
			H270.894z"/>
		<path fill="#E20613" d="M291.492,68.112V39.307h4.059l9.232,14.573c2.137,3.376,3.805,6.411,5.17,9.359l0.086-0.043
			c-0.34-3.847-0.426-7.351-0.426-11.838V39.307h3.502v28.805h-3.76l-9.146-14.616c-2.008-3.205-3.934-6.496-5.387-9.615
			l-0.129,0.042c0.217,3.633,0.301,7.095,0.301,11.881v12.309L291.492,68.112L291.492,68.112z"/>
		<path fill="#004267" d="M151.776,86.161V97.32h12.901V86.161h3.483v26.676h-3.483v-12.508h-12.901v12.508h-3.444V86.161H151.776z"
			/>
		<path fill="#004267" d="M195.867,100.329h-10.369v9.618h11.557v2.89h-15V86.161h14.406v2.889h-10.963v8.433h10.369V100.329
			L195.867,100.329z"/>
		<path fill="#004267" d="M213.753,104.447l-2.77,8.392h-3.563l9.063-26.676h4.156l9.104,26.676h-3.682l-2.85-8.392H213.753z
			 M222.501,101.754l-2.613-7.678c-0.594-1.742-0.988-3.326-1.385-4.869h-0.08c-0.395,1.584-0.83,3.207-1.344,4.83l-2.613,7.717
			H222.501L222.501,101.754z"/>
		<path fill="#004267" d="M241.578,86.161h3.443v23.786h11.398v2.89h-14.842L241.578,86.161L241.578,86.161z"/>
		<path fill="#004267" d="M269.755,89.09h-8.113v-2.93h19.75v2.93h-8.152v23.746h-3.482V89.09H269.755z"/>
		<path fill="#004267" d="M295.72,86.161V97.32h12.9V86.161h3.48v26.676h-3.48v-12.508h-12.9v12.508h-3.443V86.161H295.72z"/>
	</g>
	<g>
		<path fill="#E20613" d="M136.583,67.514c-0.012-14.415-5.646-27.979-15.859-38.196C110.486,19.089,96.918,13.46,82.509,13.46
			c-0.02,0-0.041,0-0.062,0c-14.422,0-27.994,5.632-38.217,15.857C34.001,39.552,28.37,53.136,28.37,67.564
			c0,14.424,5.632,28.004,15.86,38.239c10.232,10.23,23.812,15.867,38.239,15.867v-1.084c-14.138,0-27.446-5.523-37.473-15.551
			c-10.022-10.027-15.542-23.337-15.542-37.47c0-14.14,5.521-27.45,15.544-37.48c10.019-10.023,23.319-15.542,37.45-15.542
			c0.021,0,0.041,0,0.062,0c14.117,0,27.416,5.518,37.447,15.542c10.011,10.012,15.53,23.305,15.542,37.48
			c0,13.633-5.18,26.548-14.583,36.451c-0.865-0.613-1.919-0.979-3.058-0.979c-2.937,0-5.323,2.387-5.323,5.316
			c0,2.938,2.388,5.323,5.323,5.323c2.933,0,5.318-2.39,5.318-5.323c0-1.4-0.557-2.672-1.445-3.623
			C131.308,94.629,136.583,81.463,136.583,67.514z M117.858,112.596c-2.338,0-4.24-1.902-4.24-4.242c0-2.336,1.902-4.23,4.24-4.23
			c2.336,0,4.234,1.896,4.234,4.23C122.093,110.693,120.194,112.596,117.858,112.596z"/>
		<g>
			<path fill="#004267" d="M77.778,59.543l0.272,0.68c0.084,0.216,2.109,5.309,2.324,8.923c0.126,2.182-0.266,8.346-0.615,13.784
				c-0.213,3.342-0.397,6.229-0.397,7.252c0,1.521,0.483,6.783,0.874,11.021c0.338,3.688,0.545,5.975,0.545,6.598
				c0,0.992,0.725,7.516,1.213,11.651l2.183,10.989l-1.757,5.604l1.795,1.877l0.557-8.075c-0.23-1.285-1.354-7.729-1.152-9.957
				c0.199-2.188,1.607-25.955,1.623-26.191l0.07-1.153h2.467l0.067,1.153c0.015,0.236,1.428,24.005,1.624,26.191
				c0.21,2.317-0.441,9.536-0.471,9.842l0.052,8.18l1.763-1.698l-1.398-5.813l1.688-10.983c0.482-4.104,1.205-10.619,1.205-11.61
				c0-0.621,0.207-2.91,0.547-6.599c0.394-4.229,0.877-9.5,0.877-11.021c0-1.021-0.186-3.902-0.397-7.239
				c-0.352-5.442-0.747-11.612-0.62-13.794c0.211-3.614,2.235-8.706,2.32-8.921l0.272-0.681l23.709-2.727
				c0.092-0.008,2.381-0.101,4.148-0.101c1.477,0,1.924,0.063,2.188,0.126c0.154,0.039,0.326,0.108,0.519,0.205
				c0.096-0.293,0.26-0.637,0.506-1.042l-0.032,0.001c-0.101,0.005-11.32,0.613-14.979,0.404l-3.606-0.192
				c-8.318-0.438-16.518-0.882-17.478-1.041c-1.967-0.326-2.368-3.171-2.449-4.378l-0.016-0.264l0.094-0.25
				c0.181-0.488,0.871-2.131,2.031-2.705c0.09-0.095,0.24-0.727,0.015-1.289l-0.526-1.308l0.035-0.309
				c0.064-0.604,0.037-2.397-0.838-3.373c-0.459-0.508-1.114-0.753-2.006-0.753h-0.152c-0.891,0-1.549,0.245-2.006,0.753
				c-0.877,0.975-0.902,2.77-0.84,3.379l0.03,0.303l-0.521,1.304c-0.226,0.563-0.072,1.198,0.053,1.314
				c1.121,0.549,1.813,2.189,1.994,2.68l0.095,0.249L85.259,50.8c-0.082,1.209-0.486,4.052-2.453,4.378
				c-0.959,0.159-9.167,0.604-17.49,1.042l-3.588,0.191"/>
			<path fill="#FFFFFF" d="M91.478,59.543l-0.273,0.68c-0.084,0.216-2.109,5.309-2.322,8.923c-0.126,2.182,0.266,8.346,0.613,13.784
				c0.214,3.342,0.398,6.229,0.398,7.252c0,1.521-0.483,6.783-0.873,11.021c-0.34,3.688-0.547,5.975-0.547,6.598
				c0,0.992-0.725,7.516-1.212,11.651l-2.184,10.989l1.757,5.604l-1.794,1.877l-0.557-8.075c0.229-1.285,1.353-7.729,1.151-9.957
				c-0.199-2.188-1.607-25.955-1.622-26.191l-0.069-1.153h-2.468l-0.067,1.153c-0.204,3.32,1.265,22.084,0.896,26.191
				c-0.208,2.317-2.078,9.536-2.049,9.842l-0.053,8.18l-1.764-1.698l1.4-5.813l-3.387-10.508
				c-0.482-4.101,0.495-11.101,0.495-12.093c0-0.623-0.21-2.911-0.55-6.598c-0.392-4.232-0.875-9.502-0.875-11.021
				c0-1.022,0.184-3.902,0.397-7.238c0.351-5.441,0.746-11.611,0.618-13.794c-0.211-3.614-2.236-8.707-2.319-8.921l-0.273-0.681
				l-23.71-2.727c-0.092-0.008-2.381-0.101-4.146-0.101c-1.479,0-1.926,0.063-2.189,0.126c-0.154,0.039-0.326,0.108-0.516,0.205
				c-0.1-0.293-0.261-0.637-0.506-1.042l0.032,0.001c0.1,0.005,11.319,0.613,14.978,0.404l3.607-0.192
				c8.318-0.438,16.517-0.882,17.478-1.041c1.966-0.326,2.368-3.171,2.448-4.378l0.018-0.264l-0.094-0.25
				c-0.183-0.488-0.873-2.131-2.033-2.705c-0.088-0.095-0.24-0.727-0.013-1.289l0.524-1.308l-0.035-0.309
				c-0.063-0.604-0.037-2.398,0.838-3.373c0.459-0.508,1.114-0.753,2.008-0.753h0.152c0.89,0,1.547,0.245,2.004,0.753
				c0.878,0.975,0.902,2.771,0.842,3.379L85.6,44.984l0.521,1.304c0.226,0.563,0.071,1.198-0.054,1.314
				c-1.12,0.549-1.811,2.189-1.992,2.68l-0.096,0.249l0.018,0.267c0.081,1.209,0.485,4.052,2.451,4.378
				c0.961,0.159,9.169,0.603,17.492,1.042l3.588,0.191"/>
			<path fill="#E20613" d="M88.147,59.543l-0.273,0.68c-0.085,0.216-2.108,5.309-2.323,8.923c-0.126,2.182,0.266,8.346,0.614,13.784
				c0.213,3.342,0.397,6.229,0.397,7.252c0,1.521-0.482,6.783-0.874,11.021c-0.339,3.688-0.545,5.975-0.545,6.598
				c0,0.992-0.725,7.516-1.213,11.651l-2.182,10.989l1.756,5.604l-1.795,1.877l-0.557-8.075c0.23-1.285,1.354-7.729,1.152-9.957
				c-0.199-2.188-1.607-25.955-1.623-26.191l-0.069-1.153h-2.468l-0.067,1.153c-0.015,0.236-1.428,24.005-1.624,26.191
				c-0.209,2.317,0.443,9.536,0.473,9.842l-0.053,8.18l-1.765-1.698l1.399-5.813l-1.687-10.983
				c-0.482-4.104-1.204-10.619-1.204-11.61c0-0.621-0.209-2.91-0.549-6.599c-0.392-4.229-0.877-9.5-0.877-11.021
				c0-1.021,0.188-3.902,0.398-7.239c0.351-5.44,0.746-11.61,0.619-13.793c-0.211-3.614-2.234-8.706-2.32-8.921l-0.273-0.681
				l-23.709-2.729c-0.092-0.008-2.382-0.101-4.148-0.101c-1.477,0-1.925,0.063-2.188,0.126c-0.156,0.039-0.326,0.108-0.517,0.205
				c-0.097-0.293-0.261-0.637-0.507-1.042l0.033,0.001c0.1,0.005,11.32,0.613,14.978,0.404l3.606-0.192
				c8.317-0.438,16.52-0.882,17.479-1.041c1.967-0.326,2.369-3.171,2.449-4.378l0.016-0.264l-0.093-0.25
				c-0.182-0.488-0.872-2.131-2.031-2.705c-0.09-0.095-0.241-0.726-0.015-1.289l0.525-1.308l-0.034-0.309
				c-0.065-0.604-0.038-2.398,0.837-3.373c0.459-0.508,1.114-0.753,2.007-0.753h0.152c0.89,0,1.548,0.245,2.005,0.753
				c0.877,0.975,0.903,2.77,0.84,3.379l-0.031,0.303l0.523,1.304c0.225,0.563,0.07,1.198-0.054,1.314
				c-1.122,0.549-1.813,2.189-1.995,2.68l-0.096,0.249l0.018,0.267c0.082,1.209,0.486,4.052,2.453,4.378
				c0.96,0.159,9.168,0.604,17.491,1.042l3.586,0.191"/>
		</g>
	</g>
</g>
<rect x="344.51" y="62.923" fill="none" width="772.001" height="150"/>
<g enable-background="new    ">
	<path fill="#7A7978" d="M354.04,77.84c-0.812-1.373-1.918-3.587-3.318-6.646c-0.984-2.148-1.679-3.572-2.085-4.275
		c-0.407-0.703-0.965-1.517-1.674-2.442c-0.943-1.19-1.524-2.041-1.743-2.554c-0.218-0.513-0.327-1.049-0.327-1.611
		c0-0.265,0.157-0.615,0.472-1.055c0.315-0.436,0.604-0.657,0.868-0.657c0.619,0,1.436,0.76,2.45,2.282
		c1.015,1.521,1.933,3.125,2.755,4.81c2.506,5.174,4.059,8.066,4.657,8.677c0.599-1.074,1.229-2.172,1.888-3.296
		c3.349-5.652,5.388-9.322,6.119-11.007c0.801-1.818,1.598-2.727,2.39-2.727c0.304,0,0.542,0.235,0.715,0.708
		c0.172,0.469,0.259,0.945,0.259,1.425c0,0.447-0.383,1.405-1.15,2.876c-0.766,1.47-2.793,4.991-6.081,10.56
		c-1.583,2.678-2.511,4.406-2.786,5.183c-0.275,0.776-0.539,3.033-0.792,6.769c-0.253,3.735-0.431,6.662-0.533,8.777
		c-0.061,1.289-0.143,2.015-0.243,2.182c-0.101,0.166-0.315,0.332-0.639,0.51c-0.325,0.172-0.584,0.258-0.776,0.258
		c-0.76,0-1.142-1.042-1.142-3.124c0-1.289,0.163-3.578,0.488-6.869c0.304-3.155,0.456-5.271,0.456-6.346
		C354.268,79.302,354.191,78.5,354.04,77.84z"/>
	<path fill="#7A7978" d="M370.053,96.358c-1.391,0-2.537-0.859-3.441-2.577c-0.904-1.719-1.354-3.844-1.354-6.373
		c0-4.265,0.88-8.467,2.642-12.604c1.76-4.143,3.868-6.211,6.324-6.211c1.625,0,2.941,1.017,3.95,3.049
		c1.009,2.033,1.515,4.455,1.515,7.264c0,4.298-1.042,8.281-3.127,11.951C374.474,94.525,372.306,96.358,370.053,96.358z
		 M367.937,86.764c0,1.669,0.216,3.033,0.647,4.091c0.432,1.058,1.002,1.588,1.713,1.588c1.512,0,3.029-1.352,4.552-4.054
		c1.522-2.704,2.283-5.707,2.283-9.013c0-2.032-0.292-3.681-0.875-4.947c-0.584-1.263-1.368-1.896-2.352-1.896
		c-1.633,0-3.036,1.634-4.208,4.898S367.937,83.805,367.937,86.764z"/>
	<path fill="#7A7978" d="M393.98,84.333c-1.299,3.555-2.627,6.307-3.988,8.255c-1.36,1.95-2.623,2.928-3.79,2.928
		c-0.67,0-1.352-0.637-2.047-1.909s-1.042-3.231-1.042-5.876c0-2.165,0.32-5.354,0.959-9.569c0.539-3.521,0.806-5.992,0.806-7.413
		c0.294-0.992,0.757-1.487,1.385-1.487c0.426,0,0.766,0.245,1.02,0.732c0.253,0.488,0.38,0.996,0.38,1.524
		c0,1.157-0.248,2.801-0.746,4.934c-0.944,4.147-1.415,7.71-1.415,10.684c0,2.712,0.385,4.066,1.156,4.066
		c0.984,0,2.237-1.365,3.76-4.091c1.522-2.728,2.826-6.528,3.912-11.404c0.426-1.949,0.774-3.218,1.042-3.807
		c0.269-0.585,0.632-0.879,1.088-0.879c0.69,0,1.035,0.743,1.035,2.231c0,0.181-0.097,0.785-0.29,1.809
		c-0.609,3.62-0.913,7.041-0.913,10.263c0,3.869,0.391,6.373,1.172,7.512c0.407,0.611,0.609,1.107,0.609,1.487
		c0,0.463-0.206,0.884-0.616,1.265c-0.411,0.382-0.784,0.57-1.12,0.57c-0.71,0-1.283-0.86-1.719-2.579
		c-0.437-1.715-0.655-4.254-0.655-7.609v-0.818C393.966,84.889,393.972,84.614,393.98,84.333z"/>
	<path fill="#7A7978" d="M405.321,85.276c0.102-0.299,0.223-0.711,0.366-1.239c0.69-2.577,1.324-4.601,1.903-6.061
		c0.579-1.464,1.215-2.863,1.91-4.202c0.695-1.339,1.33-2.356,1.903-3.05c0.574-0.693,1.094-1.176,1.56-1.45
		c0.467-0.271,0.918-0.408,1.355-0.408c0.883,0,1.604,0.436,2.162,1.301c0.558,0.871,0.837,1.881,0.837,3.039
		c0,0.512-0.098,0.974-0.297,1.388c-0.199,0.413-0.5,0.618-0.906,0.618c-0.426,0-0.817-0.306-1.173-0.917
		c-0.365-0.61-0.746-0.917-1.142-0.917c-1.056,0-2.517,2.082-4.384,6.247s-3.004,8.752-3.409,13.76
		c-0.102,1.289-0.294,2.141-0.579,2.554s-0.685,0.62-1.202,0.62c-0.498,0-0.857-0.603-1.081-1.811
		c-0.223-1.206-0.334-3.237-0.334-6.099c0-0.776,0.025-2.487,0.076-5.132c0.061-3.125,0.183-5.645,0.365-7.562
		c0.031-0.314,0.082-1.05,0.152-2.207c0.071-1.272,0.16-2.156,0.267-2.652c0.106-0.496,0.325-0.958,0.654-1.388
		c0.33-0.43,0.688-0.645,1.074-0.645c0.375,0,0.657,0.195,0.844,0.584c0.188,0.389,0.282,0.806,0.282,1.25
		c0,0.645-0.102,1.554-0.305,2.727c-0.233,1.305-0.37,2.207-0.411,2.703c-0.03,0.562-0.086,1.149-0.167,1.76
		c-0.102,0.711-0.203,2.578-0.305,5.604l-0.016,0.917v0.667H405.321z"/>
	<path fill="#7A7978" d="M433.528,92.241c-0.498,2.977-0.965,7.149-1.401,12.52l-0.426,4.686c-0.07,0.663-0.259,1.319-0.563,1.971
		c-0.305,0.654-0.583,0.981-0.837,0.981c-0.314,0-0.673-0.26-1.074-0.783c-0.401-0.52-0.602-0.938-0.602-1.25
		c0-0.909,0.126-2.165,0.38-3.769c1.857-12.215,2.786-22.942,2.786-32.181l-0.015-2.082c-0.021-1.786,0.172-3.083,0.578-3.893
		c0.407-0.811,0.874-1.215,1.401-1.215c0.243,0,0.477,0.31,0.7,0.931c0.224,0.618,0.335,1.5,0.335,2.64
		c0,1.604-0.103,3.546-0.304,5.825c-0.264,2.876-0.402,4.529-0.412,4.959c1.512-4.297,3.115-7.651,4.81-10.064
		c1.695-2.414,3.269-3.62,4.719-3.62c1.025,0,1.891,0.625,2.596,1.87c0.706,1.25,1.059,2.797,1.059,4.649
		c0,5.389-1.27,10.279-3.806,14.677c-2.537,4.397-5.008,6.593-7.413,6.593c-0.599,0-1.074-0.246-1.424-0.742
		S433.902,93.549,433.528,92.241z M442.98,72.284c-1.431,0-3.202,2.182-5.313,6.545c-2.11,4.363-3.166,7.76-3.166,10.19
		c0,0.597,0.208,1.172,0.625,1.734c0.416,0.562,0.943,0.843,1.582,0.843c1.451,0,3.121-1.747,5.008-5.243
		c1.886-3.496,2.831-6.93,2.831-10.302c0-1.206-0.149-2.135-0.449-2.787C443.8,72.613,443.426,72.284,442.98,72.284z"/>
	<path fill="#7A7978" d="M463.772,86.714c0,1.687-0.916,3.719-2.747,6.101c-1.833,2.382-3.722,3.568-5.67,3.568
		c-1.634,0-2.896-0.783-3.783-2.355c-0.887-1.569-1.333-3.76-1.333-6.569c0-4.728,0.979-9.223,2.938-13.487
		c1.959-4.266,4.1-6.396,6.424-6.396c0.76,0,1.383,0.404,1.864,1.215s0.724,1.786,0.724,2.926c0,2.546-0.766,4.983-2.3,7.313
		c-1.532,2.331-3.581,4.619-6.149,6.868c-0.528,0.446-0.792,1.023-0.792,1.735c0,1.372,0.244,2.47,0.73,3.296
		c0.487,0.826,1.208,1.239,2.162,1.239c2.182,0,4.409-1.967,6.683-5.9c0.334-0.545,0.588-0.817,0.761-0.817
		C463.61,85.45,463.772,85.871,463.772,86.714z M453.194,82.848c4.303-4.165,6.454-7.512,6.454-10.042
		c0-0.991-0.275-1.487-0.822-1.487c-0.934,0-1.987,1.115-3.159,3.348C454.495,76.898,453.671,79.624,453.194,82.848z"/>
	<path fill="#7A7978" d="M470.03,85.276c0.101-0.299,0.223-0.711,0.365-1.239c0.69-2.577,1.324-4.601,1.903-6.061
		c0.578-1.464,1.214-2.863,1.91-4.202c0.695-1.339,1.329-2.356,1.903-3.05c0.573-0.693,1.093-1.176,1.56-1.45
		c0.467-0.271,0.918-0.408,1.354-0.408c0.884,0,1.604,0.436,2.162,1.301c0.558,0.871,0.838,1.881,0.838,3.039
		c0,0.512-0.1,0.974-0.297,1.388c-0.199,0.413-0.5,0.618-0.906,0.618c-0.426,0-0.817-0.306-1.172-0.917
		c-0.367-0.61-0.746-0.917-1.143-0.917c-1.055,0-2.517,2.082-4.384,6.247s-3.003,8.752-3.41,13.76
		c-0.102,1.289-0.293,2.141-0.578,2.554s-0.685,0.62-1.203,0.62c-0.497,0-0.857-0.603-1.081-1.811
		c-0.223-1.206-0.333-3.237-0.333-6.099c0-0.776,0.024-2.487,0.075-5.132c0.062-3.125,0.183-5.645,0.366-7.562
		c0.029-0.314,0.081-1.05,0.151-2.207c0.071-1.272,0.161-2.156,0.266-2.652c0.106-0.496,0.326-0.958,0.654-1.388
		c0.33-0.43,0.688-0.645,1.074-0.645c0.375,0,0.657,0.195,0.846,0.584c0.188,0.389,0.281,0.806,0.281,1.25
		c0,0.645-0.102,1.554-0.304,2.727c-0.233,1.305-0.37,2.207-0.411,2.703c-0.03,0.562-0.086,1.149-0.167,1.76
		c-0.103,0.711-0.203,2.578-0.304,5.604l-0.017,0.917v0.667H470.03z"/>
	<path fill="#7A7978" d="M491.097,89.441c0-1.074-0.813-2.298-2.436-3.669c-2.061-1.72-3.453-3.095-4.179-4.127
		c-0.725-1.032-1.088-2.187-1.088-3.459c0-3.288,1.013-6.017,3.037-8.181c2.024-2.166,3.676-3.248,4.955-3.248
		c0.822,0,1.419,0.231,1.789,0.693c0.371,0.463,0.555,1.265,0.555,2.405c0,0.513-0.134,0.952-0.402,1.314
		c-0.271,0.362-0.48,0.545-0.633,0.545c-0.11,0-0.328-0.124-0.653-0.372c-0.325-0.232-0.538-0.347-0.639-0.347
		c-0.507,0-1.538,0.603-3.091,1.81c-1.552,1.206-2.328,2.57-2.328,4.09c0,0.926,0.273,1.766,0.821,2.518
		c0.548,0.751,1.532,1.672,2.953,2.764c1.147,0.892,2.063,1.848,2.748,2.861c0.686,1.02,1.027,2.213,1.027,3.584
		c0,2.527-1.071,4.509-3.213,5.938c-2.141,1.43-4.186,2.145-6.134,2.145c-1.644,0-2.466-0.908-2.466-2.727
		c0-0.628,0.185-1.091,0.555-1.389c0.372-0.294,0.744-0.446,1.12-0.446c0.152,0,0.441,0.083,0.867,0.248
		c0.416,0.165,0.69,0.248,0.822,0.248c1.126,0,2.334-0.308,3.623-0.919C489.994,91.11,490.792,90.351,491.097,89.441z"/>
	<path fill="#7A7978" d="M501.112,96.358c-1.391,0-2.536-0.859-3.44-2.577c-0.903-1.719-1.355-3.844-1.355-6.373
		c0-4.265,0.881-8.467,2.642-12.604c1.76-4.143,3.869-6.211,6.325-6.211c1.624,0,2.939,1.017,3.949,3.049
		c1.01,2.033,1.515,4.455,1.515,7.264c0,4.298-1.043,8.281-3.128,11.951C505.534,94.525,503.365,96.358,501.112,96.358z
		 M498.995,86.764c0,1.669,0.217,3.033,0.647,4.091s1.003,1.588,1.712,1.588c1.513,0,3.028-1.352,4.551-4.054
		c1.522-2.704,2.283-5.707,2.283-9.013c0-2.032-0.291-3.681-0.875-4.947c-0.584-1.263-1.368-1.896-2.353-1.896
		c-1.633,0-3.037,1.634-4.209,4.898S498.995,83.805,498.995,86.764z"/>
	<path fill="#7A7978" d="M524.659,76.054c-0.527,0-1.103,0.562-1.727,1.686c-0.623,1.124-1.575,3.645-2.853,7.563
		c-1.685,5.255-2.773,8.247-3.267,8.976c-0.492,0.728-0.901,1.091-1.227,1.091c-1.197,0-1.797-0.942-1.797-2.826
		c0-0.794,0.081-1.917,0.243-3.372c0.559-4.99,0.839-10.255,0.839-15.792c0-0.628,0.164-1.327,0.495-2.093
		c0.329-0.771,0.643-1.155,0.936-1.155c0.528,0,0.903,0.265,1.126,0.794c0.225,0.53,0.335,1.594,0.335,3.199
		c0,1.669-0.304,5.107-0.913,10.313c-0.203,1.719-0.305,2.81-0.305,3.272c0,0.265,0.041,0.396,0.122,0.396
		c0.151,0,0.856-1.975,2.115-5.925c1.268-4.017,2.38-6.843,3.334-8.479c0.954-1.638,2.003-2.455,3.149-2.455
		c0.913,0,1.658,0.677,2.23,2.033c0.572,1.355,0.992,3.826,1.256,7.413c0.283,4.082,0.54,6.624,0.769,7.622
		c0.229,1.002,0.591,1.503,1.089,1.503c0.314,0,0.71-0.182,1.188-0.546c0.081-0.066,0.142-0.101,0.183-0.101
		c0.436,0,0.654,0.413,0.654,1.239c0,0.728-0.299,1.501-0.897,2.315c-0.599,0.82-1.32,1.23-2.161,1.23
		c-0.862,0-1.53-0.558-2.002-1.673c-0.473-1.114-0.846-4.096-1.12-8.938C526.172,78.482,525.572,76.054,524.659,76.054z"/>
	<path fill="#7A7978" d="M545.225,86.093c-1.42,3.107-2.827,5.438-4.217,6.991c-1.391,1.554-2.664,2.33-3.82,2.33
		c-0.781,0-1.457-0.535-2.025-1.609s-0.853-2.454-0.853-4.141c0-4.346,1.193-9.027,3.578-14.045
		c2.385-5.015,4.754-7.523,7.108-7.523c0.852,0,1.487,0.793,1.903,2.379c0.132,0.53,0.339,0.794,0.623,0.794
		c0.812,0,1.218,0.513,1.218,1.536c0,0.514-0.051,1.216-0.151,2.107c-0.548,4.876-0.822,8.313-0.822,10.313
		c0,4,0.467,6.396,1.4,7.189c0.448,0.396,0.671,0.883,0.671,1.463c0,0.513-0.217,1.026-0.653,1.551
		c-0.437,0.521-0.858,0.779-1.265,0.779c-0.782,0-1.425-0.877-1.932-2.629C545.48,91.829,545.225,89.335,545.225,86.093z
		 M544.296,72.136c-1.34,0-2.896,2.044-4.673,6.137c-1.775,4.089-2.664,7.483-2.664,10.177c0,1.901,0.385,2.854,1.156,2.854
		c1.116,0,2.665-1.835,4.644-5.504c1.98-3.67,2.968-7.042,2.968-10.117C545.727,73.319,545.249,72.136,544.296,72.136z"/>
	<path fill="#7A7978" d="M558.59,53.147c0.73,0,1.096,0.759,1.096,2.281c0,1.356-0.442,4.578-1.324,9.669
		c-0.558,3.207-0.988,6.743-1.293,10.611c-0.305,3.869-0.456,6.9-0.456,9.099c0,2.728,0.106,5.438,0.319,8.132
		c0.04,0.514,0.061,0.884,0.061,1.117c0,0.825-0.172,1.535-0.518,2.132c-0.345,0.596-0.71,0.893-1.096,0.893
		c-0.539,0-0.91-0.545-1.118-1.638s-0.313-2.851-0.313-5.28c0-5.536,0.409-12.396,1.226-20.577
		c0.817-8.181,1.467-12.966,1.948-14.354C557.604,53.843,558.093,53.147,558.59,53.147z"/>
	<path fill="#7A7978" d="M582.305,89.441c0-1.074-0.812-2.298-2.436-3.669c-2.06-1.72-3.453-3.095-4.179-4.127
		s-1.088-2.187-1.088-3.459c0-3.288,1.013-6.017,3.037-8.181c2.024-2.166,3.675-3.248,4.954-3.248c0.821,0,1.418,0.231,1.79,0.693
		c0.37,0.463,0.554,1.265,0.554,2.405c0,0.513-0.134,0.952-0.402,1.314c-0.27,0.362-0.48,0.545-0.632,0.545
		c-0.111,0-0.329-0.124-0.654-0.372c-0.325-0.232-0.538-0.347-0.639-0.347c-0.507,0-1.538,0.603-3.092,1.81
		c-1.553,1.206-2.327,2.57-2.327,4.09c0,0.926,0.274,1.766,0.822,2.518c0.547,0.751,1.532,1.672,2.953,2.764
		c1.146,0.892,2.061,1.848,2.747,2.861c0.685,1.02,1.028,2.213,1.028,3.584c0,2.527-1.072,4.509-3.213,5.938
		c-2.143,1.43-4.186,2.145-6.134,2.145c-1.644,0-2.466-0.908-2.466-2.727c0-0.628,0.186-1.091,0.555-1.389
		c0.371-0.294,0.744-0.446,1.119-0.446c0.151,0,0.441,0.083,0.867,0.248c0.416,0.165,0.69,0.248,0.822,0.248
		c1.126,0,2.334-0.308,3.622-0.919S582.001,90.351,582.305,89.441z"/>
	<path fill="#7A7978" d="M600.906,86.714c0,1.687-0.916,3.719-2.748,6.101c-1.833,2.382-3.723,3.568-5.671,3.568
		c-1.634,0-2.894-0.783-3.783-2.355c-0.888-1.569-1.331-3.76-1.331-6.569c0-4.728,0.979-9.223,2.938-13.487
		c1.959-4.266,4.099-6.396,6.424-6.396c0.761,0,1.382,0.404,1.864,1.215s0.724,1.786,0.724,2.926c0,2.546-0.768,4.983-2.3,7.313
		c-1.533,2.331-3.582,4.619-6.149,6.868c-0.528,0.446-0.793,1.023-0.793,1.735c0,1.372,0.244,2.47,0.731,3.296
		c0.486,0.826,1.207,1.239,2.161,1.239c2.182,0,4.41-1.967,6.684-5.9c0.335-0.545,0.588-0.817,0.761-0.817
		C600.744,85.45,600.906,85.871,600.906,86.714z M590.326,82.848c4.303-4.165,6.454-7.512,6.454-10.042
		c0-0.991-0.274-1.487-0.822-1.487c-0.934,0-1.985,1.115-3.158,3.348C591.628,76.898,590.803,79.624,590.326,82.848z"/>
	<path fill="#7A7978" d="M608.243,96.531c-1.522,0-2.692-0.71-3.509-2.132c-0.817-1.423-1.228-3.414-1.228-5.977
		c0-4.313,1.053-8.86,3.152-13.646c2.101-4.784,4.053-7.177,5.86-7.177c0.822,0,1.53,0.725,2.124,2.168
		c0.593,1.447,0.889,2.981,0.889,4.6c0,0.975-0.129,1.814-0.388,2.517c-0.259,0.703-0.52,1.053-0.783,1.053
		c-0.588,0-1.005-0.967-1.248-2.9c-0.274-2.082-0.67-3.125-1.188-3.125c-1.057,0-2.304,2.042-3.746,6.123
		c-1.44,4.083-2.161,7.528-2.161,10.338c0,2.811,0.979,4.215,2.937,4.215c1.493,0,3.248-1.141,5.268-3.421
		c0.71-0.81,1.233-1.215,1.568-1.215c0.345,0,0.518,0.322,0.518,0.967c0,1.256-0.909,2.84-2.726,4.747
		C611.769,95.578,609.988,96.531,608.243,96.531z"/>
	<path fill="#7A7978" d="M624.331,96.358c-1.39,0-2.535-0.859-3.439-2.577c-0.904-1.719-1.354-3.844-1.354-6.373
		c0-4.265,0.88-8.467,2.641-12.604c1.76-4.143,3.869-6.211,6.324-6.211c1.624,0,2.941,1.017,3.951,3.049
		c1.01,2.033,1.515,4.455,1.515,7.264c0,4.298-1.043,8.281-3.129,11.951C628.754,94.525,626.584,96.358,624.331,96.358z
		 M622.217,86.764c0,1.669,0.214,3.033,0.646,4.091c0.431,1.058,1.002,1.588,1.712,1.588c1.512,0,3.03-1.352,4.552-4.054
		c1.522-2.704,2.283-5.707,2.283-9.013c0-2.032-0.292-3.681-0.875-4.947c-0.585-1.263-1.367-1.896-2.353-1.896
		c-1.634,0-3.037,1.634-4.209,4.898C622.8,80.696,622.217,83.805,622.217,86.764z"/>
	<path fill="#7A7978" d="M647.881,76.054c-0.528,0-1.104,0.562-1.729,1.686c-0.623,1.124-1.576,3.645-2.854,7.563
		c-1.685,5.255-2.772,8.247-3.265,8.976c-0.492,0.728-0.9,1.091-1.225,1.091c-1.197,0-1.798-0.942-1.798-2.826
		c0-0.794,0.082-1.917,0.244-3.372c0.558-4.99,0.836-10.255,0.836-15.792c0-0.628,0.165-1.327,0.496-2.093
		c0.329-0.771,0.641-1.155,0.935-1.155c0.528,0,0.903,0.265,1.127,0.794c0.223,0.53,0.335,1.594,0.335,3.199
		c0,1.669-0.305,5.107-0.914,10.313c-0.202,1.719-0.304,2.81-0.304,3.272c0,0.265,0.04,0.396,0.12,0.396
		c0.152,0,0.858-1.975,2.117-5.925c1.27-4.017,2.379-6.843,3.332-8.479c0.954-1.638,2.007-2.455,3.152-2.455
		c0.913,0,1.656,0.677,2.23,2.033c0.573,1.355,0.99,3.826,1.255,7.413c0.283,4.082,0.541,6.624,0.769,7.622
		c0.229,1.002,0.591,1.503,1.088,1.503c0.315,0,0.712-0.182,1.188-0.546c0.081-0.066,0.142-0.101,0.183-0.101
		c0.437,0,0.655,0.413,0.655,1.239c0,0.728-0.3,1.501-0.897,2.315c-0.599,0.82-1.32,1.23-2.162,1.23
		c-0.862,0-1.53-0.558-2.002-1.673c-0.472-1.114-0.845-4.096-1.117-8.938C649.393,78.482,648.794,76.054,647.881,76.054z"/>
	<path fill="#7A7978" d="M669.1,84.854c-1.359,3.556-2.8,6.294-4.323,8.216c-1.521,1.93-2.922,2.89-4.201,2.89
		c-0.983,0-1.763-0.615-2.337-1.848c-0.573-1.23-0.858-2.869-0.858-4.919c0-4.184,1.042-8.472,3.128-12.869
		c2.085-4.397,4.335-6.593,6.75-6.593c1.056,0,2.035,0.736,2.938,2.207l2.132-16.214c0.15-1.107,0.433-1.852,0.844-2.231
		c0.412-0.378,0.732-0.57,0.967-0.57c0.711,0,1.064,1.024,1.064,3.074c0,0.364-0.233,1.719-0.7,4.065
		c-0.74,3.635-1.442,8.104-2.107,13.401c-0.663,5.297-0.997,9.549-0.997,12.754c0,3.306,0.443,4.96,1.325,4.96
		c0.568,0,1.156-0.308,1.766-0.919c0.254-0.298,0.491-0.446,0.714-0.446c0.326,0,0.487,0.347,0.487,1.041
		c0,0.843-0.453,1.818-1.361,2.926c-0.908,1.108-1.84,1.661-2.794,1.661c-1.674,0-2.513-2.628-2.513-7.884
		C669.022,86.664,669.049,85.764,669.1,84.854z M667.104,73.253c-1.644,0-3.271,1.813-4.885,5.441
		c-1.614,3.63-2.422,6.979-2.422,10.053c0,2.066,0.423,3.099,1.266,3.099c0.792,0,1.753-0.676,2.883-2.031
		c1.131-1.356,2.296-3.517,3.493-6.482c1.197-2.967,1.796-5.195,1.796-6.683c0-0.728-0.204-1.476-0.616-2.242
		C668.209,73.636,667.703,73.253,667.104,73.253z"/>
	<path fill="#7A7978" d="M695.707,96.358c-1.39,0-2.537-0.859-3.441-2.577c-0.902-1.719-1.355-3.844-1.355-6.373
		c0-4.265,0.882-8.467,2.642-12.604c1.761-4.143,3.87-6.211,6.325-6.211c1.625,0,2.939,1.017,3.949,3.049
		c1.011,2.033,1.515,4.455,1.515,7.264c0,4.298-1.042,8.281-3.128,11.951C700.128,94.525,697.96,96.358,695.707,96.358z
		 M693.591,86.764c0,1.669,0.216,3.033,0.647,4.091c0.431,1.058,1.002,1.588,1.712,1.588c1.512,0,3.027-1.352,4.551-4.054
		c1.522-2.704,2.282-5.707,2.282-9.013c0-2.032-0.29-3.681-0.875-4.947c-0.583-1.263-1.366-1.896-2.352-1.896
		c-1.634,0-3.036,1.634-4.209,4.898C694.176,80.696,693.591,83.805,693.591,86.764z"/>
	<path fill="#7A7978" d="M711.826,92.241c-0.497,2.977-0.964,7.149-1.4,12.52l-0.427,4.686c-0.07,0.663-0.257,1.319-0.562,1.971
		c-0.305,0.654-0.586,0.981-0.839,0.981c-0.315,0-0.671-0.26-1.072-0.783c-0.4-0.52-0.602-0.938-0.602-1.25
		c0-0.909,0.128-2.165,0.382-3.769c1.856-12.215,2.784-22.942,2.784-32.181l-0.015-2.082c-0.021-1.786,0.173-3.083,0.579-3.893
		c0.405-0.811,0.872-1.215,1.4-1.215c0.243,0,0.477,0.31,0.701,0.931c0.223,0.618,0.334,1.5,0.334,2.64
		c0,1.604-0.102,3.546-0.305,5.825c-0.264,2.876-0.402,4.529-0.411,4.959c1.512-4.297,3.115-7.651,4.811-10.064
		c1.694-2.414,3.269-3.62,4.719-3.62c1.024,0,1.89,0.625,2.596,1.87c0.705,1.25,1.057,2.797,1.057,4.649
		c0,5.389-1.268,10.279-3.804,14.677c-2.537,4.397-5.007,6.593-7.413,6.593c-0.598,0-1.073-0.246-1.424-0.742
		S712.201,93.549,711.826,92.241z M721.279,72.284c-1.431,0-3.201,2.182-5.312,6.545c-2.111,4.363-3.167,7.76-3.167,10.19
		c0,0.597,0.209,1.172,0.626,1.734c0.417,0.562,0.943,0.843,1.583,0.843c1.45,0,3.119-1.747,5.006-5.243s2.832-6.93,2.832-10.302
		c0-1.206-0.15-2.135-0.449-2.787C722.099,72.613,721.727,72.284,721.279,72.284z"/>
	<path fill="#7A7978" d="M731.949,89.616c0,1.256,0.107,2.668,0.32,4.238c0.041,0.299,0.063,0.545,0.063,0.743
		c0,0.298-0.169,0.683-0.504,1.154c-0.335,0.471-0.689,0.707-1.064,0.707c-0.984,0-1.477-1.471-1.477-4.413
		c0-3.041,0.386-7.852,1.157-14.428c0.264-2.297,0.396-3.71,0.396-4.24c0-1.041,0.116-1.929,0.35-2.665
		c0.234-0.735,0.563-1.102,0.99-1.102c0.518,0,0.927,0.203,1.225,0.606c0.3,0.406,0.451,0.856,0.451,1.352
		c0,0.496-0.071,1.15-0.214,1.958c-0.761,4.362-1.234,7.487-1.416,9.37C732.044,84.782,731.949,87.019,731.949,89.616z
		 M733.944,61.922c-0.213,0-0.376-0.373-0.487-1.116c-0.04-0.232-0.098-0.487-0.168-0.769c-0.274-1.074-0.411-2.009-0.411-2.801
		c0-0.662,0.24-1.333,0.723-2.02c0.481-0.685,1.018-1.029,1.605-1.029c0.294,0,0.626,0.187,0.99,0.557
		c0.365,0.374,0.548,0.733,0.548,1.08c0,0.544-0.125,1.47-0.373,2.776c-0.249,1.307-0.645,2.187-1.188,2.641
		C734.642,61.695,734.229,61.922,733.944,61.922z"/>
	<path fill="#7A7978" d="M748.419,76.054c-0.527,0-1.103,0.562-1.727,1.686c-0.623,1.124-1.575,3.645-2.853,7.563
		c-1.685,5.255-2.773,8.247-3.267,8.976c-0.492,0.728-0.901,1.091-1.227,1.091c-1.197,0-1.797-0.942-1.797-2.826
		c0-0.794,0.081-1.917,0.243-3.372c0.559-4.99,0.839-10.255,0.839-15.792c0-0.628,0.164-1.327,0.495-2.093
		c0.328-0.771,0.643-1.155,0.936-1.155c0.528,0,0.903,0.265,1.126,0.794c0.225,0.53,0.335,1.594,0.335,3.199
		c0,1.669-0.305,5.107-0.913,10.313c-0.203,1.719-0.305,2.81-0.305,3.272c0,0.265,0.041,0.396,0.122,0.396
		c0.151,0,0.855-1.975,2.115-5.925c1.268-4.017,2.38-6.843,3.334-8.479c0.954-1.638,2.003-2.455,3.149-2.455
		c0.913,0,1.658,0.677,2.23,2.033c0.572,1.355,0.992,3.826,1.256,7.413c0.283,4.082,0.54,6.624,0.769,7.622
		c0.229,1.002,0.59,1.503,1.089,1.503c0.314,0,0.71-0.182,1.187-0.546c0.082-0.066,0.143-0.101,0.184-0.101
		c0.436,0,0.653,0.413,0.653,1.239c0,0.728-0.298,1.501-0.896,2.315c-0.599,0.82-1.32,1.23-2.161,1.23
		c-0.862,0-1.531-0.558-2.002-1.673c-0.473-1.114-0.846-4.096-1.12-8.938C749.932,78.482,749.332,76.054,748.419,76.054z"/>
	<path fill="#7A7978" d="M761.632,89.616c0,1.256,0.108,2.668,0.321,4.238c0.041,0.299,0.061,0.545,0.061,0.743
		c0,0.298-0.168,0.683-0.502,1.154c-0.335,0.471-0.689,0.707-1.065,0.707c-0.984,0-1.476-1.471-1.476-4.413
		c0-3.041,0.386-7.852,1.157-14.428c0.264-2.297,0.396-3.71,0.396-4.24c0-1.041,0.115-1.929,0.35-2.665
		c0.232-0.735,0.563-1.102,0.99-1.102c0.518,0,0.925,0.203,1.225,0.606c0.299,0.406,0.449,0.856,0.449,1.352
		c0,0.496-0.069,1.15-0.213,1.958c-0.76,4.362-1.234,7.487-1.416,9.37C761.727,84.782,761.632,87.019,761.632,89.616z
		 M763.627,61.922c-0.213,0-0.376-0.373-0.488-1.116c-0.041-0.232-0.098-0.487-0.169-0.769c-0.273-1.074-0.409-2.009-0.409-2.801
		c0-0.662,0.239-1.333,0.722-2.02c0.482-0.685,1.018-1.029,1.605-1.029c0.294,0,0.625,0.187,0.989,0.557
		c0.367,0.374,0.549,0.733,0.549,1.08c0,0.544-0.125,1.47-0.374,2.776c-0.247,1.307-0.644,2.187-1.188,2.641
		C764.324,61.695,763.911,61.922,763.627,61.922z"/>
	<path fill="#7A7978" d="M772.182,96.358c-1.391,0-2.536-0.859-3.44-2.577c-0.904-1.719-1.356-3.844-1.356-6.373
		c0-4.265,0.882-8.467,2.641-12.604c1.761-4.143,3.871-6.211,6.325-6.211c1.625,0,2.94,1.017,3.951,3.049
		c1.01,2.033,1.514,4.455,1.514,7.264c0,4.298-1.042,8.281-3.128,11.951C776.602,94.525,774.434,96.358,772.182,96.358z
		 M770.064,86.764c0,1.669,0.216,3.033,0.647,4.091s1.003,1.588,1.713,1.588c1.512,0,3.028-1.352,4.551-4.054
		c1.521-2.704,2.283-5.707,2.283-9.013c0-2.032-0.292-3.681-0.876-4.947c-0.584-1.263-1.367-1.896-2.353-1.896
		c-1.634,0-3.036,1.634-4.208,4.898S770.064,83.805,770.064,86.764z"/>
	<path fill="#7A7978" d="M795.729,76.054c-0.528,0-1.105,0.562-1.728,1.686c-0.625,1.124-1.575,3.645-2.854,7.563
		c-1.685,5.255-2.774,8.247-3.266,8.976c-0.494,0.728-0.901,1.091-1.227,1.091c-1.196,0-1.796-0.942-1.796-2.826
		c0-0.794,0.081-1.917,0.243-3.372c0.558-4.99,0.838-10.255,0.838-15.792c0-0.628,0.165-1.327,0.493-2.093
		c0.331-0.771,0.644-1.155,0.938-1.155c0.528,0,0.903,0.265,1.127,0.794s0.335,1.594,0.335,3.199c0,1.669-0.305,5.107-0.913,10.313
		c-0.203,1.719-0.306,2.81-0.306,3.272c0,0.265,0.04,0.396,0.122,0.396c0.151,0,0.856-1.975,2.114-5.925
		c1.269-4.017,2.381-6.843,3.335-8.479c0.953-1.638,2.003-2.455,3.149-2.455c0.913,0,1.656,0.677,2.229,2.033
		c0.573,1.355,0.992,3.826,1.257,7.413c0.284,4.082,0.54,6.624,0.767,7.622c0.229,1.002,0.593,1.503,1.09,1.503
		c0.315,0,0.712-0.182,1.188-0.546c0.081-0.066,0.143-0.101,0.183-0.101c0.437,0,0.653,0.413,0.653,1.239
		c0,0.728-0.298,1.501-0.896,2.315c-0.598,0.82-1.319,1.23-2.162,1.23c-0.862,0-1.53-0.558-2.003-1.673
		c-0.471-1.114-0.844-4.096-1.118-8.938C797.24,78.482,796.642,76.054,795.729,76.054z"/>
	<path fill="#7A7978" d="M826.157,89.441c0-1.074-0.812-2.298-2.436-3.669c-2.06-1.72-3.454-3.095-4.179-4.127
		c-0.727-1.032-1.088-2.187-1.088-3.459c0-3.288,1.013-6.017,3.036-8.181c2.026-2.166,3.676-3.248,4.954-3.248
		c0.822,0,1.419,0.231,1.792,0.693c0.368,0.463,0.554,1.265,0.554,2.405c0,0.513-0.135,0.952-0.403,1.314
		c-0.27,0.364-0.48,0.545-0.632,0.545c-0.111,0-0.329-0.124-0.653-0.372c-0.326-0.232-0.539-0.347-0.64-0.347
		c-0.507,0-1.538,0.603-3.092,1.81c-1.553,1.206-2.327,2.57-2.327,4.09c0,0.926,0.274,1.766,0.822,2.518
		c0.547,0.751,1.532,1.672,2.953,2.764c1.146,0.892,2.061,1.848,2.748,2.861c0.684,1.02,1.026,2.213,1.026,3.584
		c0,2.527-1.071,4.509-3.213,5.938c-2.142,1.43-4.185,2.145-6.133,2.145c-1.645,0-2.466-0.908-2.466-2.727
		c0-0.628,0.186-1.091,0.556-1.389c0.369-0.297,0.743-0.446,1.118-0.446c0.151,0,0.44,0.083,0.867,0.248
		c0.416,0.165,0.689,0.248,0.821,0.248c1.127,0,2.334-0.308,3.623-0.919C825.056,91.107,825.854,90.351,826.157,89.441z"/>
	<path fill="#7A7978" d="M834.666,92.241c-0.498,2.977-0.965,7.149-1.4,12.52l-0.427,4.686c-0.071,0.663-0.258,1.319-0.563,1.971
		c-0.304,0.654-0.584,0.981-0.838,0.981c-0.315,0-0.672-0.26-1.073-0.783c-0.4-0.52-0.602-0.938-0.602-1.25
		c0-0.909,0.128-2.165,0.382-3.769c1.857-12.215,2.785-22.942,2.785-32.181l-0.015-2.082c-0.021-1.786,0.173-3.083,0.578-3.893
		c0.407-0.811,0.873-1.215,1.401-1.215c0.243,0,0.478,0.31,0.7,0.931c0.224,0.618,0.334,1.5,0.334,2.64
		c0,1.604-0.102,3.546-0.304,5.825c-0.265,2.876-0.402,4.529-0.411,4.959c1.512-4.297,3.115-7.651,4.81-10.064
		c1.695-2.414,3.269-3.62,4.719-3.62c1.025,0,1.89,0.625,2.596,1.87c0.704,1.25,1.058,2.797,1.058,4.649
		c0,5.389-1.269,10.279-3.805,14.677s-5.007,6.593-7.412,6.593c-0.599,0-1.073-0.246-1.424-0.742
		C835.404,94.449,835.041,93.549,834.666,92.241z M844.119,72.284c-1.431,0-3.202,2.182-5.313,6.545
		c-2.11,4.363-3.166,7.76-3.166,10.19c0,0.597,0.209,1.172,0.625,1.734c0.417,0.562,0.944,0.843,1.583,0.843
		c1.45,0,3.12-1.747,5.006-5.243c1.888-3.496,2.833-6.93,2.833-10.302c0-1.206-0.151-2.135-0.45-2.787
		C844.938,72.613,844.565,72.284,844.119,72.284z"/>
	<path fill="#7A7978" d="M864.912,86.714c0,1.687-0.917,3.719-2.749,6.101c-1.833,2.379-3.722,3.568-5.671,3.568
		c-1.633,0-2.893-0.783-3.783-2.355c-0.888-1.569-1.331-3.76-1.331-6.569c0-4.728,0.98-9.223,2.938-13.487
		c1.959-4.266,4.101-6.396,6.425-6.396c0.761,0,1.382,0.404,1.863,1.215c0.483,0.811,0.724,1.786,0.724,2.926
		c0,2.546-0.767,4.983-2.3,7.313c-1.532,2.331-3.582,4.619-6.149,6.868c-0.527,0.446-0.791,1.023-0.791,1.735
		c0,1.372,0.242,2.47,0.73,3.296c0.487,0.826,1.207,1.239,2.161,1.239c2.182,0,4.409-1.967,6.684-5.9
		c0.335-0.545,0.589-0.817,0.761-0.817C864.75,85.45,864.912,85.871,864.912,86.714z M854.332,82.848
		c4.304-4.165,6.455-7.512,6.455-10.042c0-0.991-0.275-1.487-0.822-1.487c-0.934,0-1.986,1.115-3.158,3.348
		C855.633,76.896,854.809,79.624,854.332,82.848z"/>
	<path fill="#7A7978" d="M872.249,96.531c-1.522,0-2.693-0.71-3.509-2.132c-0.818-1.423-1.227-3.414-1.227-5.977
		c0-4.313,1.052-8.86,3.152-13.646c2.1-4.784,4.052-7.177,5.859-7.177c0.822,0,1.53,0.725,2.125,2.168
		c0.593,1.447,0.889,2.981,0.889,4.6c0,0.975-0.128,1.814-0.388,2.517c-0.258,0.703-0.52,1.053-0.783,1.053
		c-0.589,0-1.006-0.967-1.248-2.9c-0.275-2.082-0.671-3.125-1.188-3.125c-1.056,0-2.304,2.042-3.744,6.123
		c-1.442,4.083-2.162,7.528-2.162,10.338c0,2.811,0.978,4.215,2.938,4.215c1.491,0,3.247-1.141,5.266-3.421
		c0.711-0.81,1.234-1.215,1.569-1.215c0.344,0,0.517,0.322,0.517,0.967c0,1.256-0.909,2.84-2.725,4.747
		C875.774,95.578,873.994,96.531,872.249,96.531z"/>
	<path fill="#7A7978" d="M886.801,89.616c0,1.256,0.106,2.668,0.32,4.238c0.04,0.299,0.061,0.545,0.061,0.743
		c0,0.298-0.166,0.683-0.5,1.154c-0.335,0.471-0.69,0.707-1.065,0.707c-0.984,0-1.478-1.471-1.478-4.413
		c0-3.041,0.385-7.852,1.156-14.428c0.264-2.297,0.396-3.71,0.396-4.24c0-1.041,0.116-1.929,0.351-2.665
		c0.233-0.735,0.563-1.102,0.988-1.102c0.518,0,0.926,0.203,1.226,0.606c0.299,0.406,0.449,0.856,0.449,1.352
		c0,0.496-0.07,1.15-0.213,1.958c-0.761,4.362-1.232,7.487-1.414,9.37C886.896,84.782,886.801,87.019,886.801,89.616z
		 M888.794,61.922c-0.213,0-0.374-0.373-0.487-1.116c-0.04-0.232-0.095-0.487-0.166-0.769c-0.274-1.074-0.411-2.009-0.411-2.801
		c0-0.662,0.24-1.333,0.725-2.02c0.481-0.685,1.017-1.029,1.605-1.029c0.293,0,0.623,0.187,0.987,0.557
		c0.366,0.374,0.548,0.733,0.548,1.08c0,0.544-0.124,1.47-0.37,2.776c-0.25,1.305-0.646,2.187-1.188,2.641
		C889.492,61.695,889.078,61.922,888.794,61.922z"/>
	<path fill="#7A7978" d="M903.163,86.093c-1.42,3.107-2.825,5.438-4.215,6.991c-1.391,1.554-2.665,2.33-3.822,2.33
		c-0.781,0-1.455-0.535-2.023-1.609s-0.853-2.454-0.853-4.141c0-4.346,1.191-9.027,3.576-14.045c2.385-5.015,4.756-7.523,7.11-7.523
		c0.852,0,1.485,0.793,1.901,2.379c0.132,0.53,0.341,0.794,0.625,0.794c0.812,0,1.218,0.513,1.218,1.536
		c0,0.514-0.051,1.216-0.151,2.107c-0.548,4.876-0.822,8.313-0.822,10.313c0,4,0.467,6.396,1.4,7.189
		c0.448,0.396,0.671,0.883,0.671,1.463c0,0.513-0.219,1.026-0.655,1.551c-0.437,0.521-0.856,0.779-1.263,0.779
		c-0.781,0-1.427-0.877-1.934-2.629C903.419,91.829,903.163,89.335,903.163,86.093z M902.236,72.136
		c-1.34,0-2.898,2.044-4.675,6.137c-1.775,4.089-2.663,7.483-2.663,10.177c0,1.901,0.385,2.854,1.156,2.854
		c1.116,0,2.664-1.835,4.642-5.504c1.979-3.67,2.97-7.042,2.97-10.117C903.667,73.319,903.189,72.136,902.236,72.136z"/>
	<path fill="#7A7978" d="M916.528,53.147c0.73,0,1.096,0.759,1.096,2.281c0,1.356-0.44,4.578-1.322,9.669
		c-0.558,3.207-0.99,6.743-1.295,10.611c-0.305,3.869-0.456,6.9-0.456,9.099c0,2.728,0.108,5.438,0.321,8.132
		c0.04,0.514,0.061,0.884,0.061,1.117c0,0.825-0.172,1.535-0.518,2.132c-0.345,0.596-0.71,0.893-1.096,0.893
		c-0.539,0-0.911-0.545-1.118-1.638c-0.209-1.093-0.313-2.851-0.313-5.28c0-5.536,0.408-12.396,1.226-20.577
		c0.816-8.181,1.466-12.966,1.948-14.354C915.542,53.84,916.031,53.147,916.528,53.147z"/>
	<path fill="#7A7978" d="M923.029,89.616c0,1.256,0.106,2.668,0.318,4.238c0.04,0.299,0.062,0.545,0.062,0.743
		c0,0.298-0.166,0.683-0.501,1.154c-0.334,0.471-0.69,0.707-1.064,0.707c-0.984,0-1.478-1.471-1.478-4.413
		c0-3.041,0.386-7.852,1.155-14.428c0.265-2.297,0.396-3.71,0.396-4.24c0-1.041,0.117-1.929,0.352-2.665
		c0.233-0.735,0.563-1.102,0.987-1.102c0.518,0,0.927,0.203,1.228,0.606c0.298,0.406,0.448,0.856,0.448,1.352
		c0,0.496-0.071,1.15-0.213,1.958c-0.761,4.362-1.232,7.487-1.415,9.37C923.123,84.782,923.029,87.019,923.029,89.616z
		 M925.021,61.922c-0.213,0-0.375-0.373-0.486-1.116c-0.041-0.232-0.096-0.487-0.167-0.769c-0.273-1.074-0.411-2.009-0.411-2.801
		c0-0.662,0.241-1.333,0.724-2.02c0.481-0.685,1.019-1.029,1.605-1.029c0.294,0,0.624,0.187,0.988,0.557
		c0.366,0.374,0.548,0.733,0.548,1.08c0,0.544-0.123,1.47-0.371,2.776c-0.25,1.305-0.646,2.187-1.188,2.641
		C925.72,61.695,925.306,61.922,925.021,61.922z"/>
	<path fill="#7A7978" d="M936.789,89.441c0-1.074-0.812-2.298-2.436-3.669c-2.06-1.72-3.454-3.095-4.179-4.127
		c-0.727-1.032-1.088-2.187-1.088-3.459c0-3.288,1.013-6.017,3.036-8.181c2.025-2.166,3.676-3.248,4.955-3.248
		c0.822,0,1.418,0.231,1.79,0.693c0.369,0.463,0.555,1.265,0.555,2.405c0,0.513-0.134,0.952-0.403,1.314
		c-0.27,0.364-0.48,0.545-0.632,0.545c-0.111,0-0.329-0.124-0.653-0.372c-0.326-0.232-0.539-0.347-0.64-0.347
		c-0.508,0-1.538,0.603-3.091,1.81c-1.554,1.206-2.328,2.57-2.328,4.09c0,0.926,0.274,1.766,0.822,2.518
		c0.547,0.751,1.532,1.672,2.953,2.764c1.147,0.892,2.062,1.848,2.749,2.861c0.683,1.02,1.025,2.213,1.025,3.584
		c0,2.527-1.071,4.509-3.213,5.938c-2.141,1.43-4.185,2.145-6.133,2.145c-1.645,0-2.466-0.908-2.466-2.727
		c0-0.628,0.186-1.091,0.556-1.389c0.369-0.297,0.743-0.446,1.118-0.446c0.152,0,0.44,0.083,0.867,0.248
		c0.416,0.165,0.689,0.248,0.821,0.248c1.127,0,2.334-0.308,3.623-0.919S936.484,90.351,936.789,89.441z"/>
	<path fill="#7A7978" d="M948.555,70.104c1.045-0.132,2.029-0.29,2.953-0.471c0.913-0.165,1.674-0.247,2.283-0.247
		c0.771,0,1.258,0.115,1.46,0.347c0.203,0.232,0.305,0.636,0.305,1.216c0,1.339-0.572,2.065-1.718,2.181
		c-1.472,0.149-2.828,0.356-4.065,0.62c-1.238,0.264-1.906,0.482-2.001,0.658c-0.099,0.172-0.405,2.141-0.923,5.899
		c-0.518,3.76-0.775,6.202-0.775,7.326c0,1.816,0.147,3.028,0.441,3.632c0.294,0.603,0.737,0.903,1.324,0.903
		c0.873,0,2.085-1.067,3.638-3.199c0.599-0.876,1.062-1.313,1.386-1.313c0.437,0,0.653,0.38,0.653,1.141
		c0,1.189-0.702,2.73-2.107,4.621c-1.405,1.893-2.844,2.839-4.314,2.839c-2.456,0-3.684-2.354-3.684-7.063
		c0-1.702,0.253-4.339,0.761-7.909c0.497-3.555,0.747-5.686,0.747-6.396c0-0.247-0.122-0.372-0.366-0.372l-1.582,0.224
		c-1.3,0-1.949-0.844-1.949-2.529c0-0.958,0.299-1.438,0.896-1.438h3.137c0.213,0,0.401-0.157,0.564-0.47
		c0.162-0.313,0.399-1.368,0.714-3.161c0.315-1.792,0.595-3.565,0.84-5.318c0.242-1.734,0.719-2.603,1.431-2.603
		c0.437,0,0.775,0.247,1.018,0.743c0.243,0.496,0.366,0.958,0.366,1.388c0,0.232-0.183,1.413-0.548,3.546L948.555,70.104z"/>
</g>
</svg>
