<?xml version="1.0" encoding="utf-8"?>
<!-- Generator: Adobe Illustrator 16.0.0, SVG Export Plug-In . SVG Version: 6.00 Build 0)  -->
<!DOCTYPE svg PUBLIC "-//W3C//DTD SVG 1.1//EN" "http://www.w3.org/Graphics/SVG/1.1/DTD/svg11.dtd">
<svg version="1.1" id="Layer_2" xmlns="http://www.w3.org/2000/svg" xmlns:xlink="http://www.w3.org/1999/xlink" x="0px" y="0px"
	 width="967.269px" height="163.672px" viewBox="0 0 967.269 163.672" enable-background="new 0 0 967.269 163.672"
	 xml:space="preserve">
<text transform="matrix(1 0 0 1 387.5107 63.8555)" fill="#7A7978" font-family="'YouYuan'" font-size="30" letter-spacing="12">你的第二</text>
<text transform="matrix(1 0 0 1 387.5107 99.8555)" fill="#7A7978" font-family="'YouYuan'" font-size="30" letter-spacing="12">意見專家</text>
<g>
	<g>
		<path fill="#E20613" d="M136.474,67.514c-0.013-14.415-5.646-27.979-15.859-38.197C110.378,19.089,96.809,13.46,82.4,13.46
			c-0.021,0-0.041,0-0.063,0c-14.422,0-27.993,5.633-38.217,15.854C33.892,39.552,28.261,53.136,28.261,67.563
			c0,14.423,5.632,28.003,15.859,38.238c10.231,10.229,23.813,15.867,38.238,15.867v-1.084c-14.138,0-27.445-5.521-37.473-15.553
			c-10.02-10.022-15.541-23.334-15.541-37.468c0-14.139,5.521-27.449,15.544-37.479c10.02-10.022,23.318-15.542,37.449-15.542
			c0.021,0,0.041,0,0.063,0c14.117,0,27.416,5.519,37.447,15.542c10.012,10.013,15.529,23.306,15.542,37.479
			c0,13.634-5.18,26.55-14.583,36.451c-0.865-0.613-1.919-0.979-3.059-0.979c-2.937,0-5.322,2.39-5.322,5.316
			c0,2.938,2.389,5.324,5.322,5.324s5.318-2.391,5.318-5.324c0-1.398-0.557-2.672-1.445-3.623
			C131.199,94.63,136.474,81.463,136.474,67.514z M117.748,112.594c-2.338,0-4.238-1.9-4.238-4.24c0-2.336,1.9-4.23,4.238-4.23
			c2.337,0,4.236,1.896,4.236,4.23C121.984,110.691,120.085,112.594,117.748,112.594z"/>
		<g>
			<path fill="#004267" d="M77.669,59.543l0.272,0.681c0.084,0.216,2.108,5.309,2.323,8.923c0.126,2.184-0.267,8.348-0.614,13.783
				c-0.214,3.342-0.397,6.229-0.397,7.252c0,1.52,0.483,6.785,0.874,11.021c0.338,3.688,0.545,5.977,0.545,6.599
				c0,0.99,0.727,7.513,1.214,11.647l2.183,10.992l-1.757,5.604l1.796,1.877l0.557-8.076c-0.229-1.283-1.354-7.729-1.151-9.957
				c0.198-2.188,1.606-25.953,1.623-26.189l0.069-1.153h2.467l0.066,1.153c0.016,0.236,1.428,24.006,1.625,26.189
				c0.209,2.317-0.441,9.537-0.472,9.844l0.052,8.178l1.764-1.696l-1.397-5.813l1.688-10.983c0.482-4.104,1.203-10.619,1.203-11.608
				c0-0.623,0.209-2.912,0.549-6.601c0.394-4.229,0.877-9.5,0.877-11.021c0-1.021-0.186-3.902-0.396-7.238
				c-0.354-5.441-0.748-11.611-0.621-13.796c0.211-3.613,2.234-8.707,2.319-8.921l0.272-0.682l23.709-2.729
				c0.092-0.008,2.381-0.101,4.147-0.101c1.478,0,1.925,0.063,2.188,0.126c0.154,0.039,0.326,0.105,0.519,0.205
				c0.097-0.293,0.261-0.639,0.506-1.042l-0.032,0.001c-0.101,0.005-11.32,0.611-14.979,0.402l-3.606-0.19
				c-8.317-0.438-16.518-0.883-17.478-1.041c-1.968-0.326-2.368-3.171-2.449-4.378l-0.017-0.266l0.095-0.25
				c0.181-0.486,0.871-2.132,2.03-2.704c0.091-0.097,0.24-0.729,0.016-1.289l-0.525-1.31l0.035-0.309
				c0.063-0.604,0.037-2.398-0.838-3.373c-0.46-0.509-1.115-0.753-2.007-0.753h-0.153c-0.891,0-1.549,0.244-2.006,0.753
				c-0.877,0.975-0.902,2.771-0.84,3.379l0.029,0.303l-0.521,1.306c-0.226,0.563-0.072,1.196,0.053,1.313
				c1.121,0.549,1.813,2.188,1.994,2.68l0.096,0.249L85.15,50.8c-0.082,1.209-0.486,4.052-2.453,4.378
				c-0.959,0.158-9.166,0.604-17.49,1.042l-3.588,0.188"/>
			<path fill="#FFFFFF" d="M91.367,59.543l-0.271,0.681c-0.084,0.216-2.109,5.309-2.322,8.923
				c-0.125,2.184,0.266,8.348,0.613,13.783c0.214,3.342,0.396,6.229,0.396,7.252c0,1.52-0.481,6.785-0.873,11.021
				c-0.34,3.688-0.547,5.977-0.547,6.599c0,0.99-0.725,7.513-1.211,11.647l-2.185,10.992l1.757,5.604l-1.794,1.877l-0.558-8.076
				c0.229-1.283,1.354-7.729,1.15-9.957c-0.199-2.188-1.607-25.953-1.621-26.189l-0.07-1.153h-2.467l-0.067,1.149
				c-0.203,3.32,1.267,22.084,0.896,26.191c-0.207,2.318-2.078,9.539-2.049,9.844l-0.053,8.18l-1.766-1.696l1.4-5.813l-3.387-10.51
				c-0.482-4.101,0.494-11.101,0.494-12.092c0-0.621-0.211-2.912-0.551-6.601c-0.392-4.229-0.875-9.5-0.875-11.021
				c0-1.021,0.186-3.901,0.397-7.237c0.351-5.438,0.746-11.609,0.618-13.794c-0.211-3.614-2.236-8.707-2.318-8.921l-0.271-0.681
				l-23.711-2.729c-0.092-0.008-2.381-0.101-4.146-0.101c-1.479,0-1.926,0.063-2.188,0.126c-0.153,0.038-0.326,0.105-0.517,0.204
				c-0.101-0.293-0.261-0.639-0.506-1.042l0.032,0.001c0.1,0.006,11.318,0.611,14.979,0.402l3.606-0.189
				c8.317-0.438,16.517-0.883,17.478-1.041c1.967-0.326,2.368-3.172,2.448-4.378l0.019-0.267l-0.094-0.25
				c-0.184-0.486-0.873-2.131-2.033-2.703c-0.088-0.097-0.24-0.729-0.014-1.289l0.523-1.31l-0.034-0.309
				c-0.063-0.604-0.037-2.398,0.838-3.373c0.459-0.509,1.113-0.753,2.008-0.753h0.152c0.89,0,1.547,0.244,2.004,0.753
				c0.878,0.975,0.901,2.77,0.842,3.379l-0.032,0.303l0.521,1.305c0.227,0.563,0.07,1.197-0.055,1.313
				c-1.121,0.549-1.812,2.188-1.992,2.68l-0.096,0.249l0.019,0.269c0.081,1.209,0.483,4.053,2.45,4.379
				c0.961,0.158,9.169,0.603,17.492,1.042l3.586,0.188"/>
			<path fill="#E20613" d="M88.037,59.543l-0.271,0.681c-0.085,0.216-2.107,5.309-2.322,8.923
				c-0.127,2.184,0.266,8.348,0.613,13.783c0.213,3.342,0.396,6.229,0.396,7.252c0,1.52-0.481,6.785-0.875,11.021
				c-0.338,3.688-0.545,5.977-0.545,6.599c0,0.99-0.725,7.513-1.213,11.647l-2.182,10.992l1.756,5.604l-1.795,1.877l-0.559-8.076
				c0.23-1.283,1.354-7.729,1.152-9.957c-0.199-2.188-1.606-25.953-1.623-26.189l-0.068-1.153h-2.469l-0.065,1.149
				c-0.017,0.238-1.429,24.006-1.624,26.191c-0.209,2.318,0.441,9.539,0.473,9.844l-0.053,8.18l-1.766-1.696l1.398-5.813
				l-1.688-10.985c-0.481-4.104-1.204-10.617-1.204-11.608c0-0.621-0.209-2.912-0.55-6.599c-0.391-4.231-0.877-9.502-0.877-11.021
				c0-1.021,0.188-3.901,0.398-7.237c0.352-5.439,0.746-11.609,0.619-13.794c-0.211-3.612-2.234-8.707-2.32-8.921l-0.272-0.682
				L46.792,56.82c-0.093-0.008-2.382-0.101-4.147-0.101c-1.478,0-1.925,0.063-2.188,0.126c-0.155,0.039-0.325,0.107-0.518,0.205
				c-0.097-0.293-0.261-0.638-0.507-1.042l0.033,0.001c0.101,0.005,11.319,0.612,14.978,0.403l3.606-0.191
				c8.315-0.438,16.521-0.883,17.479-1.041c1.967-0.326,2.369-3.171,2.449-4.378l0.016-0.265l-0.094-0.25
				c-0.182-0.487-0.871-2.132-2.031-2.705c-0.09-0.097-0.24-0.729-0.014-1.289l0.524-1.31l-0.034-0.309
				c-0.064-0.604-0.038-2.398,0.837-3.373c0.459-0.509,1.114-0.753,2.007-0.753h0.152c0.891,0,1.548,0.244,2.005,0.753
				c0.877,0.975,0.902,2.77,0.841,3.379l-0.031,0.303l0.522,1.306c0.226,0.563,0.069,1.196-0.055,1.313
				c-1.122,0.549-1.813,2.188-1.994,2.68l-0.097,0.249l0.019,0.27c0.082,1.209,0.485,4.052,2.453,4.378
				c0.96,0.158,9.168,0.603,17.489,1.042l3.588,0.19"/>
		</g>
	</g>
	<g>
		<path fill="#E10717" d="M148.615,44.638c-0.09-0.726-0.362-1.39-0.967-2.325c2.235,0.271,7.036,0.271,11.354-0.271
			c4.167-0.516,5.858-0.876,7.55-1.512c0.543,0.968,1.479,2.204,1.871,2.628c0.361,0.395,0.211,0.604-0.15,0.516
			c-1.209-0.272-1.904-0.333-3.201-0.213c-2.022,0.213-3.836,0.394-5.496,0.515v2.777c6.219,0,9.299-0.063,11.777-0.212v2.387
			c-2.416-0.182-5.467-0.211-9.182-0.211c2.205,2.867,5.285,4.499,10.178,5.013c-0.754,0.905-1.359,2.113-1.602,2.959
			c-1.479-0.481-2.777-1.024-3.955-1.631c-0.061,0.482-0.09,1.146-0.09,2.204v6.433c0,1.358,0.029,2.508,0.149,3.774h-2.655v-1.781
			h-11.838v2.146h-2.537c0.09-1.391,0.121-2.416,0.121-3.773v-6.795c0-0.784-0.031-1.358-0.061-1.872
			c-0.997,0.574-2.083,1.117-3.322,1.661c-0.604-0.906-1.146-1.511-2.083-2.114c4.138-1.207,6.312-2.536,10.78-6.25
			c-3.928-0.028-7.036,0.063-9.573,0.241v-2.387c2.445,0.149,5.437,0.212,11.476,0.212v-2.566
			C153.598,44.487,150.91,44.608,148.615,44.638z M150.547,54.996h6.613v-5.979C154.896,51.675,152.933,53.485,150.547,54.996z
			 M164.199,56.928h-11.838v2.354h11.836v-2.354H164.199z M164.199,61.307h-11.838v2.354h11.836v-2.354H164.199z M159.576,48.716
			v6.279h7.006c-2.988-1.603-5.133-3.686-6.522-6.279H159.576z"/>
		<path fill="#E10717" d="M184.039,53.546c-1.086-0.905-3.26-2.324-4.618-2.897l1.512-2.084c1.511,0.848,3.291,1.842,4.619,2.778
			L184.039,53.546z M184.012,62.001c-0.362,1.568-0.759,3.32-1.091,5.192c-1.114-0.846-2.143-1.479-3.17-1.872
			c0.785-1.208,1.479-2.839,2.056-4.438c0.664-1.935,1.179-3.865,1.328-5.164c0.545,0.756,1.299,1.178,2.202,1.479
			C184.947,58.438,184.492,60.099,184.012,62.001z M184.947,46.33c-1.058-1.117-2.597-2.296-4.076-3.173l1.631-1.963
			c1.48,0.938,2.809,1.935,4.018,2.931L184.947,46.33z M202.613,54.392c1.026,0.725,2.987,1.479,4.59,1.479
			c-0.967,0.876-1.449,1.723-1.603,2.748c-1.418-0.516-2.959-1.391-4.258-2.536c-0.028,0.813-0.062,1.54-0.062,2.415
			c0,1.087,0.062,2.387,0.119,3.171c-1.178-0.063-2.111-0.12-3.381-0.12h-5.736v1.899c0,0.997,0.183,1.329,1.357,1.359
			c1.602,0.063,3.744,0.063,6.34-0.091c1.691-0.092,2.51-0.727,2.629-3.291c0.361,0.572,1.391,1.025,2.566,1.328
			c-0.969,3.473-1.752,4.047-5.014,4.138c-2.748,0.09-4.894,0.12-6.521,0.062c-3.172-0.12-3.596-0.573-3.596-2.176v-8.123
			c-0.814,0.694-1.842,1.512-2.867,2.234c-0.453-0.694-0.996-1.238-1.723-1.722c1.299-0.637,2.146-1.18,3.654-2.445
			c1.479-1.238,2.354-2.113,2.93-2.959c-1.781,0-4.351,0.063-5.709,0.211v-2.506c1.33,0.148,3.746,0.271,5.469,0.271v-3.652
			c-1.422,0.028-3.174,0.092-4.197,0.242v-2.537c1.023,0.149,2.775,0.24,4.197,0.271c-0.031-2.233-0.094-3.021-0.213-3.594
			c0.875,0.121,1.723,0.181,2.777,0.181c0.481,0,0.543,0.242,0.121,0.483c-0.271,0.148-0.394,0.452-0.394,0.755v2.175h4.137
			c0-2.416-0.09-3.201-0.211-3.806c0.875,0.12,1.722,0.182,2.776,0.182c0.574,0,0.543,0.271,0.121,0.516
			c-0.271,0.148-0.395,0.451-0.395,0.755v2.354c1.512-0.03,3.563-0.121,4.682-0.271v2.537c-1.117-0.15-3.17-0.214-4.682-0.242v3.652
			c1.781,0,4.35-0.091,5.736-0.271v2.506c-1.539-0.15-4.076-0.211-5.828-0.211C201.012,52.942,201.796,53.817,202.613,54.392z
			 M198.173,51.765h-3.716c-0.784,1.117-1.629,2.146-2.985,3.563c2.959,0.119,6.129,0.091,9.06-0.028
			C199.382,54.06,198.625,52.913,198.173,51.765z M192.283,59.646h6.886v-2.477h-6.886V59.646z M198.234,49.741v-3.652h-4.138v3.652
			H198.234z"/>
		<path fill="#E10717" d="M224.51,44.79c-3.291,0-6.556,0.063-8.88,0.211v-2.748c2.535,0.213,6.039,0.36,12.863,0.36
			c7.729,0,10.328-0.118,12.982-0.36v2.748c-1.963-0.149-4.348-0.211-9.27-0.211v4.167c2.535,0,5.344-0.093,6.885-0.211
			c-0.121,0.813-0.182,2.386-0.182,3.41v7.247c0,2.748,0.121,5.707,0.271,7.459h-2.747v-2.174h-16.097v2.688h-2.688
			c0.118-1.751,0.239-5.226,0.239-7.974v-7.247c0-1.024-0.09-2.628-0.183-3.41c1.541,0.118,4.229,0.211,6.795,0.211v-4.168
			L224.51,44.79L224.51,44.79z M226.742,51.04c-0.119,4.591-1.479,6.822-4.076,9.392c-0.36-0.514-1.299-1.238-2.021-1.54
			c2.628-1.963,3.773-4.104,3.865-7.852h-4.168v11.505h16.097V51.04h-4.229v4.648c0,1.479,0.692,1.723,3.354,1.146
			c-0.304,0.785-0.396,1.568-0.363,2.296c-0.813,0.06-2.627,0.09-3.381,0.06c-1.392-0.06-1.873-0.725-1.873-2.111V51.04H226.742z
			 M229.945,44.79h-3.201v4.167h3.201V44.79z"/>
		<path fill="#E10717" d="M269.416,51.945c1.207,0,2.355-0.061,3.08-0.148l-0.967,11.021c-0.27,3.231-0.846,3.956-5.889,4.741
			c-0.15-1.179-0.875-2.567-1.963-3.654c3.531,0.813,4.859,0.121,5.072-1.601l0.938-8.002h-8.305
			c-0.755,5.919-2.355,8.546-7.488,13.136c-0.635-1.087-1.724-1.781-2.931-2.113c4.438-2.175,7.188-6.279,7.853-11.083
			c0.242-1.751,0.363-3.742,0.424-6.13c-3.865,0.03-6.342,0.093-8.879,0.212v-2.718c3.111,0.149,7.338,0.211,12.955,0.211
			c5.676,0,9.994-0.062,12.984-0.211v2.718c-2.959-0.149-8.576-0.212-14.255-0.212c-0.118,1.359-0.239,2.567-0.394,3.835
			L269.416,51.945L269.416,51.945z M262.26,45.454c-0.304-1.301-1.117-3.173-1.66-4.105l3.263-1.027
			c0.242,1.09,0.936,2.869,1.569,3.986L262.26,45.454z"/>
		<path fill="#E10717" d="M294.426,56.415c-3.718,0-7.065,0.091-9.604,0.211v-1.992c3.322,0.12,7.188,0.212,13.35,0.212
			s10.059-0.092,13.35-0.212v1.992c-2.627-0.12-6.067-0.211-9.938-0.211v1.479c2.537,0,5.404-0.063,6.887-0.121
			c-0.063,0.362-0.092,0.848-0.092,1.329v5.013c0,1.391,0.063,2.415,0.24,3.744h-2.324v-0.904h-16.063v1.179h-2.414
			c0.146-1.299,0.211-2.355,0.211-3.744v-5.284c0-0.481-0.029-0.967-0.092-1.329c1.42,0.063,4.047,0.121,6.492,0.121L294.426,56.415
			L294.426,56.415z M299.257,47.325v1.844c-0.785-0.09-1.724-0.149-2.961-0.183c0.905,0.543,1.782,1.087,2.416,1.512l-1.511,1.419
			c-0.634-0.785-1.752-1.78-2.563-2.415c-0.638,0.875-1.662,1.66-3.32,2.415c-0.516-0.572-0.729-0.693-1.78-1.27
			c1.899-0.574,2.931-0.997,3.476-1.689c-1.541,0.028-2.656,0.092-3.597,0.211v-1.78c1.089,0.091,2.326,0.15,4.168,0.15
			c0.063-0.425,0.119-0.938,0.119-1.569h-1.566c-0.362,0.393-0.757,0.813-1.18,1.268c-0.36-0.393-1.06-0.725-1.688-0.903
			c1.269-0.969,2.385-2.205,2.838-3.143h-3.475v8.878h4.139c3.32,0,5.828-0.061,6.435-0.149v1.963
			c-1.271-0.149-3.08-0.24-6.401-0.24c-3.318,0-5.134,0.063-6.398,0.24c0.183-0.846,0.271-1.659,0.271-3.652v-5.075
			c0-1.991-0.091-2.96-0.271-3.805c1.27,0.149,3.107,0.241,6.433,0.241s5.164-0.092,6.437-0.241v1.991
			c-0.604-0.063-3.442-0.15-6.582-0.15c0.479,0.241,0.936,0.423,1.567,0.573c0.271,0.062,0.212,0.303-0.093,0.394
			c-0.063,0.029-0.211,0.12-0.395,0.271h1.78c1.901,0,2.655-0.03,3.2-0.092v1.722c-0.691-0.061-1.27-0.09-3.141-0.09
			c-0.031,0.543-0.063,1.087-0.152,1.569C297.112,47.508,298.289,47.446,299.257,47.325z M296.326,59.466
			c-0.425,1.659-1.78,2.656-4.562,3.229c-0.121-0.692-0.361-1.115-0.996-1.54c2.295-0.634,3.142-0.966,3.474-1.688h-4.017v3.439
			h16.063v-0.725c-1.209,0.063-3.563,0.091-5.136,0.029c-1.024-0.029-1.569-0.516-1.569-1.299v-1.448L296.326,59.466L296.326,59.466
			z M290.228,65.414h16.063v-1.117h-16.063V65.414L290.228,65.414z M299.589,56.415h-3.08v1.479h3.08V56.415z M307.562,46.57
			c-1.271-0.121-1.42-0.393-1.42-1.872v-1.51h-3.17c0,1.781-0.425,2.868-2.084,3.896c-0.332-0.361-1.063-0.727-1.846-0.968
			c1.992-0.937,2.296-2.507,1.873-4.561c0.781,0.063,2.057,0.063,3.771,0.063c1.723,0,2.987,0,3.772-0.063
			c-0.211,0.393-0.36,1.419-0.36,2.597c0,0.574,0.063,0.637,0.727,0.637c0.543,0,1.326-0.121,2.27-0.396
			c-0.121,0.785-0.121,1.419,0.027,1.902C309.767,46.601,308.315,46.632,307.562,46.57z M300.041,48.835v-1.723
			c1.539,0.03,3.291,0.063,5.015,0.063c1.688,0,3.44-0.03,4.979-0.063c-0.996,1.872-1.752,2.898-2.748,3.835
			c1.328,0.515,2.627,1.06,3.864,1.661l-1.418,1.751c-1.541-0.937-2.811-1.631-3.985-2.204c-1.448,0.996-3.142,1.632-5.467,2.113
			c-0.091-0.481-0.36-0.905-0.996-1.66c1.632-0.149,3.08-0.604,4.407-1.299c-1.116-0.423-2.295-0.785-3.743-1.208l0.968-1.299
			C300.676,48.805,300.373,48.805,300.041,48.835z M306.865,48.746h-3.688c-0.725,0-1.299,0.027-2.174,0.061
			c1.42,0.423,2.896,0.876,4.352,1.42C305.899,49.772,306.412,49.289,306.865,48.746z M306.291,59.466h-4.711v0.302
			c0,0.664,0.121,0.755,0.785,0.785c0.967,0.063,2.267,0.063,3.926-0.063V59.466z"/>
		<path fill="#E10717" d="M327.043,48.805v-2.083c1.845,0.12,4.472,0.181,7.789,0.181c0.149-0.604,0.271-1.328,0.306-1.933
			c0.846,0.241,1.565,0.361,2.688,0.423c0.664,0,0.758,0.212,0.211,0.635c-0.185,0.12-0.422,0.482-0.662,0.875
			c3.531,0,6.94-0.061,8.813-0.181v2.083c-1.66-0.12-4.526-0.211-7.58-0.211c0.785,1.208,1.541,2.112,2.416,2.839
			c0.574-0.665,0.875-1.178,1.271-2.084c0.637,0.453,1.604,0.906,2.322,1.178c0.543,0.211,0.543,0.395-0.119,0.636
			c-0.24,0.091-0.689,0.423-1.754,1.327c1.211,0.573,2.629,0.876,4.354,1.117c-0.875,0.694-1.271,1.419-1.539,2.506
			c-0.938-0.36-1.781-0.755-2.537-1.115v3.474c0,0.784,0.121,1.752,0.242,2.113c-1.302-0.121-2.205-0.15-5.314-0.15v4.047
			c0,1.993-0.605,2.565-4.316,2.989c-0.063-1.147-0.271-1.902-1.207-2.868c2.84,0.452,3.291,0.149,3.291-0.727v-3.441
			c-3.652,0-4.563,0.029-5.947,0.15c0.121-0.361,0.24-1.329,0.24-2.113v-3.11c-0.662,0.423-1.357,0.815-2.084,1.18
			c-0.396-0.604-0.904-1.117-1.633-1.569c-0.271,6.674-1.146,8.878-3.861,12.472c-0.695-0.755-1.539-1.236-2.508-1.54
			c3.229-3.141,4.166-5.707,4.287-10.75c-1.236,0.876-2.748,2.084-3.744,3.052c-0.332-1.059-0.813-2.021-1.299-2.748
			c1.688-0.636,2.959-1.357,5.043-2.777c-0.027-5.587-0.121-7.79-0.304-10.057c1.69,0.119,3.896,0.183,10.269,0.183
			c-0.394-0.574-0.846-1.179-1.271-1.661l2.812-0.966c0.572,0.875,1.146,1.871,1.512,2.627c5.615,0,7.64-0.063,9.238-0.183v2.267
			c-1.658-0.121-4.168-0.213-11.295-0.213h-8.849c0.028,4.229,0.062,7.489-0.03,10.057c1.479-0.481,2.84-1.146,4.047-1.934
			c-0.846-0.966-1.566-1.631-2.322-2.084l2.232-1.54c0.543,0.938,1.023,1.632,1.66,2.416c0.995-0.876,1.779-1.871,2.354-2.988
			C331.209,48.595,328.765,48.685,327.043,48.805z M320.974,51.915c0.027-1.659-0.184-2.896-1.236-5.736l2.386-0.635
			c0.424,1.964,0.877,3.806,1.356,5.557L320.974,51.915z M332.297,63.45c-1.146,0.906-3.108,2.235-4.621,3.144
			c-0.45-0.815-0.903-1.208-1.899-1.722c2.869-1.271,4.438-2.416,5.921-4.02c0.45,0.574,1.206,1.208,1.87,1.479
			c0.479,0.183,0.479,0.453,0,0.515C333.201,62.877,332.84,63.058,332.297,63.45z M341.054,54.24h-9.119v1.393h9.119V54.24z
			 M331.935,58.74h9.119v-1.42h-9.119V58.74z M336.615,48.564c-0.572,1.299-1.601,2.688-2.96,3.986h5.798
			C338.336,51.492,337.459,50.194,336.615,48.564z M344.254,66.411c-1.207-1.146-3.263-2.509-5.226-3.412l1.449-1.901
			c1.9,1.025,4.349,2.476,5.558,3.261L344.254,66.411z"/>
		<path fill="#E10717" d="M151,109.113h-2.656c0.211-1.723,0.332-3.896,0.332-6.521v-9.781c-0.848,1.479-1.752,2.93-2.507,4.045
			c-0.423-0.689-1.087-1.39-1.812-1.935c1.299-1.146,2.688-3.021,4.137-6.7c0.846-2.146,1.479-4.352,1.631-5.949
			c1.058,0.421,1.871,0.664,2.869,0.875c0.634,0.121,0.754,0.362,0.029,0.905c-0.242,0.212-0.482,0.604-2.023,4.169V109.113
			L151,109.113z M171.08,95.587v2.323c-1.842-0.149-3.805-0.241-6.61-0.271c2.354,4.26,4.287,5.525,8.272,6.465
			c-0.813,0.662-1.662,1.9-2.114,2.896c-3.742-1.725-6.101-4.832-7.429-9.361h-0.18v6.613c0,1.355,0.121,3.172,0.301,4.832h-2.928
			c0.182-1.604,0.271-3.021,0.271-4.832v-6.611h-0.15c-1.359,4.196-2.99,6.674-6.521,10.059c-0.515-0.516-1.178-1.023-2.446-1.602
			c3.231-2.354,5.919-5.406,7.157-8.429c-2.566,0.028-4.349,0.121-6.101,0.241v-2.323c2.175,0.147,4.378,0.239,8.063,0.271v-3.713
			c-2.688,0-3.926,0.028-5.314,0.119c0.092-1.117,0.121-2.354,0.121-4.438c0-1.479-0.029-3.383-0.121-4.5
			c1.723,0.15,3.051,0.188,6.855,0.188c3.291,0,5.043-0.063,6.764-0.188c-0.092,1.117-0.121,3.021-0.121,4.5s0.029,3.32,0.121,4.438
			c-1.479-0.119-3.172-0.119-5.949-0.119v3.713C166.642,95.828,168.906,95.736,171.08,95.587z M157.795,90.212h8.697v-4.711h-8.697
			V90.212z"/>
		<path fill="#E10717" d="M181.143,96.189c-0.424-0.785-0.938-1.479-1.569-2.082c1.117-1.356,1.813-2.508,2.688-4.771
			c0.604-1.57,1.48-5.135,1.631-6.768c0.906,0.396,1.541,0.637,2.537,0.848c0.633,0.121,0.693,0.303,0.211,0.665
			c-0.182,0.12-0.393,0.544-1.602,3.411v21.713h-2.295c0.213-2.021,0.303-3.652,0.303-5.828V92.264
			C182.289,93.984,181.744,95.072,181.143,96.189z M190.503,94.891c-1.328,0.029-1.964,0.149-3.08,0.48
			c-0.091-0.691-0.24-1.115-0.572-1.658c0.757-0.242,1.179-0.604,1.42-1.449l1.75-5.523c-1.116,0-1.842,0.029-2.534,0.119V84.87
			c1.389,0.091,3.412,0.116,5.071,0c-0.754,2.688-1.659,5.677-2.565,8.239c1.179-0.062,1.873-0.12,2.565-0.211
			c-0.211,4.922-0.543,7.765-1.569,10.146c2.267,2.442,6.612,3.836,15.34,2.84c-0.453,0.996-0.633,1.813-0.691,2.535
			c-9.516,0.332-13.438-1.207-15.611-3.563c-0.635,1.023-1.449,2.021-2.478,3.17c-0.515-0.479-1.147-0.875-1.993-1.207
			c1.42-1.146,2.445-2.295,3.172-3.651c-1.117-1.778-1.936-3.742-2.234-5.681l1.871-0.395c0.213,1.391,0.604,2.721,1.271,3.957
			C190.141,99.391,190.412,97.428,190.503,94.891z M205.18,96.915v2.112c-1.513-0.149-2.537-0.213-5.616-0.213v2.354
			c2.868,0,4.5-0.063,5.948-0.24v2.112c-1.392-0.149-3.052-0.211-5.948-0.211c0.03,0.938,0.09,1.843,0.182,2.931h-2.234
			c0.09-1.06,0.121-1.963,0.15-2.931c-1.902,0.026-3.142,0.062-4.229,0.211v-2.112c1.088,0.149,2.354,0.211,4.229,0.24v-2.354
			c-1.813,0.027-2.688,0.063-3.836,0.213v-2.112c1.178,0.149,2.022,0.213,3.836,0.239v-2.479c-1.813,0-2.838,0.063-3.685,0.148
			v-1.934c0.847,0.09,1.871,0.118,3.685,0.149v-2.416c-2.146,0-3.322,0.09-4.65,0.211v-2.082c1.328,0.121,2.508,0.183,4.65,0.183
			v-2.32c-1.66,0-2.355,0.027-3.623,0.146V84.77c1.178,0.094,1.842,0.121,3.623,0.15c-0.029-1.42-0.09-2.566-0.211-3.109
			c0.875,0.12,1.449,0.15,2.324,0.15c0.846,0,0.905,0.211,0.211,0.604c-0.271,0.15-0.422,0.666-0.422,1.146v1.209
			c2.747,0,3.771-0.063,5.071-0.271c-0.093,0.604-0.093,1.025-0.093,1.728v2.563c1.06,0,1.845-0.063,2.326-0.185v2.021
			c-0.481-0.092-1.299-0.118-2.326-0.146v1.688c0,0.938,0.031,1.662,0.121,2.445c-0.967-0.063-2.053-0.091-5.104-0.091v2.478
			C202.643,97.156,203.609,97.096,205.18,96.915z M202.462,88.941v-2.322h-2.897v2.322H202.462z M199.561,90.635v2.414h2.897v-2.414
			H199.561z"/>
		<path fill="#E10717" d="M215.602,88.037v-2.6c2.599,0.148,4.894,0.238,8.97,0.271c0.635-1.604,1.117-3.319,1.299-4.229
			c1.207,0.422,2.174,0.635,3.32,0.784c0.604,0.092,0.635,0.303,0.092,0.637c-0.756,0.479-1.328,1.326-1.873,2.81
			c9.692,0,11.233,0,14.313-0.271v2.598c-3.412-0.239-5.646-0.303-15.343-0.303c-0.604,1.146-1.271,2.23-1.963,3.32h5.347
			c3.052,0,5.979-0.092,8.095-0.305c-0.121,0.848-0.242,2.441-0.242,4.104v10.234c0,2.932-0.09,3.143-4.771,3.985
			c-0.061-0.905-0.451-2.085-1.117-3.08c2.84,0.452,3.322,0.147,3.322-1.659v-1.725h-11.053v6.313h-2.809
			c0.182-1.541,0.27-3.107,0.27-4.316v-9.513c-1.329,1.661-2.747,3.2-4.104,4.593c-0.605-0.664-1.603-1.328-2.295-1.568
			c3.291-2.325,6.278-5.893,8.576-10.355C220.072,87.764,217.955,87.855,215.602,88.037z M235.048,93.02h-11.054v2.656h11.054V93.02
			z M223.994,100.63h11.054v-2.961h-11.054V100.63z"/>
		<path fill="#E10717" d="M256.947,92.898c1.901,2.232,2.776,4.379,2.688,6.492c-0.092,2.146-1.178,3.863-4.35,4.35
			c-0.029-0.938-0.301-1.844-1.146-2.84c2.416,0,2.629-0.121,2.988-1.963c0.332-1.449-0.332-3.475-2.203-5.586l2.416-7.854h-3.473
			v23.278h-2.508c0.092-2.717,0.121-4.526,0.121-7.063V86.191c0-1.146-0.091-2.354-0.212-3.142c1.146,0.148,2.599,0.24,4.74,0.24
			c2.112,0,3.474-0.092,4.62-0.24L256.947,92.898z M273.281,95.615c0.515,0.729,1.449,1.604,1.992,1.966
			c0.182,0.118,0.152,0.303-0.062,0.36c-0.663,0.211-2.084,1.207-4.981,3.475c1.238,1.843,3.775,3.412,6.613,4.139
			c-0.848,0.967-1.357,2.084-1.57,2.896c-2.385-0.938-4.83-2.771-6.34-5.16c-1.33-2.111-2.115-4.5-2.508-8.063h-2.268v9.936
			c1.088-0.604,2.354-1.325,3.11-1.813c0.091,0.902,0.212,1.568,0.453,2.354l-3.808,2.178c-0.725,0.424-1.51,0.996-1.932,1.391
			c-0.334-0.785-0.756-1.512-1.27-2.232c0.783-0.396,1.146-0.994,1.146-2.627V86.255c0-1.235-0.029-2.231-0.15-3.17
			c1.089,0.147,3.687,0.271,6.281,0.271c2.775,0,5.347-0.119,6.313-0.271c-0.094,1.058-0.152,1.963-0.152,3.17v5.828
			c0,0.967,0.063,2.146,0.182,3.383c-0.903-0.12-2.444-0.211-5.889-0.239c0.211,1.604,0.574,3.229,0.967,4.407
			C271.109,98.335,272.346,97.005,273.281,95.615z M264.132,85.169v3.317h7.7v-3.317H264.132z M264.132,90.271v3.143h7.7v-3.143
			H264.132z"/>
		<path fill="#E10717" d="M295.903,84.686c-0.271,0.119-1.146,1.604-1.721,2.775c-0.785,1.781-3.929,7.127-7.035,10.088
			c-0.545-0.518-1.901-1.301-2.899-1.725c4.168-2.867,7.729-9.063,8.817-12.863c0.968,0.516,2.205,0.969,2.896,1.09
			C296.416,84.141,296.39,84.414,295.903,84.686z M301.037,99.512l2.233-1.209c2.021,2.627,4.228,5.857,5.828,8.576l-2.959,1.752
			c-0.332-0.85-0.785-1.813-1.301-2.869c-8.574,0.572-14.771,1.449-15.943,1.873c-0.185-0.938-0.604-2.023-1.086-2.932
			c0.664-0.184,1.086-0.543,1.813-1.42c3.593-4.352,5.615-8.336,6.461-11.202c1.182,0.636,2.479,1.208,3.08,1.39
			c0.729,0.213,0.604,0.453-0.028,0.785c-0.239,0.121-0.726,0.727-1.271,1.568c-1.51,2.324-4.045,6.012-6.041,8.639l11.867-0.756
			C302.851,102.23,301.912,100.749,301.037,99.512z M309.767,97.398c-5.375-4.684-8.188-9.604-9.604-14.104
			c1.146,0,1.994-0.149,2.811-0.545c1.631,5.401,4.379,9.146,9.422,11.838C311.334,95.255,310.367,96.279,309.767,97.398z"/>
		<path fill="#E10717" d="M330.696,91.447c-4.379,0-6.584,0.094-9.479,0.271v-2.655c2.929,0.185,5.162,0.271,9.479,0.271
			c4.65,0,5.587-0.027,8.063-0.271v2.655C336.16,91.51,335.347,91.447,330.696,91.447z M325.806,103.227v3.143h-2.777
			c0.183-1.42,0.33-3.438,0.33-4.83v-3.956c0-1.091-0.09-2.39-0.211-3.146c0.996,0.119,4.14,0.211,7.58,0.211
			c3.439,0,5.828-0.092,6.767-0.211c-0.091,0.543-0.211,1.902-0.211,3.109v3.982c0,1.393,0.061,2.297,0.211,3.412h-2.627v-1.724
			h-9.062V103.227L325.806,103.227z M343.922,87.102v18.723c0,2.656-1.179,3.744-5.797,3.625c-0.092-1.061-0.36-1.965-1.024-3.08
			c3.651,0.271,4.194-0.028,4.194-1.355v-18.97h-8.637c-5.921,0-8.005,0.062-9.604,0.183v-2.718
			c2.326,0.212,5.525,0.271,10.146,0.271c4.646,0,8.518-0.115,10.842-0.271C343.95,84.384,343.922,85.048,343.922,87.102z
			 M334.862,101.053v-4.26h-9.059v4.26H334.862z"/>
	</g>
</g>
</svg>
