<?xml version="1.0" encoding="utf-8"?>
<!-- Generator: Adobe Illustrator 16.0.0, SVG Export Plug-In . SVG Version: 6.00 Build 0)  -->
<!DOCTYPE svg PUBLIC "-//W3C//DTD SVG 1.1//EN" "http://www.w3.org/Graphics/SVG/1.1/DTD/svg11.dtd">
<svg version="1.1" id="Layer_2" xmlns="http://www.w3.org/2000/svg" xmlns:xlink="http://www.w3.org/1999/xlink" x="0px" y="0px"
	 width="966.074px" height="163.672px" viewBox="0 0 966.074 163.672" enable-background="new 0 0 966.074 163.672"
	 xml:space="preserve">
<g>
	<g>
		<path fill="#E20613" d="M154.528,42.47h-8.762v-3.163h21.325v3.163h-8.804v25.642h-3.76L154.528,42.47L154.528,42.47z"/>
		<path fill="#E20613" d="M180.298,59.051l-2.992,9.061h-3.846l9.788-28.805h4.486l9.83,28.805h-3.975l-3.078-9.061H180.298z
			 M189.742,56.145l-2.82-8.291c-0.643-1.88-1.068-3.59-1.496-5.257h-0.084c-0.428,1.71-0.898,3.462-1.455,5.214l-2.82,8.334
			H189.742z"/>
		<path fill="#E20613" d="M214.058,39.307v28.805h-3.719V39.307H214.058z"/>
		<path fill="#E20613" d="M229.099,39.65c1.795-0.3,4.146-0.557,7.137-0.557c3.676,0,6.369,0.854,8.076,2.394
			c1.582,1.366,2.521,3.462,2.521,6.024c0,2.607-0.77,4.658-2.223,6.154c-1.965,2.094-5.172,3.162-8.803,3.162
			c-1.111,0-2.137-0.043-2.99-0.256V68.11h-3.721V39.65H229.099z M232.818,53.538c0.813,0.214,1.836,0.299,3.076,0.299
			c4.488,0,7.225-2.18,7.225-6.153c0-3.804-2.693-5.642-6.797-5.642c-1.625,0-2.863,0.128-3.504,0.299V53.538L232.818,53.538z"/>
		<path fill="#E20613" d="M261.451,59.051l-2.992,9.061h-3.846l9.787-28.805h4.486l9.83,28.805h-3.977l-3.074-9.061H261.451z
			 M270.894,56.145l-2.82-8.291c-0.641-1.88-1.068-3.59-1.494-5.257h-0.086c-0.428,1.71-0.896,3.462-1.453,5.214l-2.82,8.334
			H270.894z"/>
		<path fill="#E20613" d="M291.492,68.112V39.307h4.059l9.232,14.573c2.137,3.376,3.805,6.411,5.17,9.359l0.086-0.043
			c-0.34-3.847-0.426-7.351-0.426-11.838V39.307h3.502v28.805h-3.76l-9.146-14.616c-2.008-3.205-3.934-6.496-5.387-9.615
			l-0.129,0.042c0.217,3.633,0.301,7.095,0.301,11.881v12.309L291.492,68.112L291.492,68.112z"/>
		<path fill="#004267" d="M151.776,86.161V97.32h12.901V86.161h3.483v26.676h-3.483v-12.508h-12.901v12.508h-3.444V86.161H151.776z"
			/>
		<path fill="#004267" d="M195.867,100.329h-10.369v9.618h11.557v2.89h-15V86.161h14.406v2.889h-10.963v8.433h10.369V100.329
			L195.867,100.329z"/>
		<path fill="#004267" d="M213.753,104.447l-2.77,8.392h-3.563l9.063-26.676h4.156l9.104,26.676h-3.682l-2.85-8.392H213.753z
			 M222.501,101.754l-2.613-7.678c-0.594-1.742-0.988-3.326-1.385-4.869h-0.08c-0.395,1.584-0.83,3.207-1.344,4.83l-2.613,7.717
			H222.501L222.501,101.754z"/>
		<path fill="#004267" d="M241.578,86.161h3.443v23.786h11.398v2.89h-14.842L241.578,86.161L241.578,86.161z"/>
		<path fill="#004267" d="M269.755,89.09h-8.113v-2.93h19.75v2.93h-8.152v23.746h-3.482V89.09H269.755z"/>
		<path fill="#004267" d="M295.72,86.161V97.32h12.9V86.161h3.48v26.676h-3.48v-12.508h-12.9v12.508h-3.443V86.161H295.72z"/>
	</g>
	<g>
		<path fill="#E20613" d="M136.583,67.514c-0.012-14.415-5.646-27.979-15.859-38.196C110.486,19.089,96.918,13.46,82.509,13.46
			c-0.02,0-0.041,0-0.062,0c-14.422,0-27.994,5.632-38.217,15.857C34.001,39.552,28.37,53.136,28.37,67.564
			c0,14.424,5.632,28.004,15.86,38.239c10.232,10.23,23.812,15.867,38.239,15.867v-1.084c-14.138,0-27.446-5.523-37.473-15.551
			c-10.022-10.027-15.542-23.337-15.542-37.47c0-14.14,5.521-27.45,15.544-37.48c10.019-10.023,23.319-15.542,37.45-15.542
			c0.021,0,0.041,0,0.062,0c14.117,0,27.416,5.518,37.447,15.542c10.011,10.012,15.53,23.305,15.542,37.48
			c0,13.633-5.18,26.548-14.583,36.451c-0.865-0.613-1.919-0.979-3.058-0.979c-2.937,0-5.323,2.387-5.323,5.316
			c0,2.938,2.388,5.322,5.323,5.322c2.933,0,5.318-2.39,5.318-5.322c0-1.4-0.557-2.672-1.445-3.623
			C131.308,94.629,136.583,81.463,136.583,67.514z M117.858,112.596c-2.338,0-4.24-1.902-4.24-4.242c0-2.336,1.902-4.229,4.24-4.229
			c2.336,0,4.234,1.896,4.234,4.229C122.093,110.693,120.194,112.596,117.858,112.596z"/>
		<g>
			<path fill="#004267" d="M77.778,59.543l0.272,0.68c0.084,0.216,2.109,5.309,2.324,8.923c0.126,2.182-0.266,8.346-0.615,13.784
				c-0.213,3.342-0.397,6.229-0.397,7.252c0,1.521,0.483,6.783,0.874,11.021c0.338,3.688,0.545,5.975,0.545,6.598
				c0,0.992,0.725,7.516,1.213,11.651l2.183,10.989l-1.757,5.604l1.795,1.877l0.557-8.074c-0.23-1.285-1.354-7.729-1.152-9.957
				c0.199-2.188,1.607-25.955,1.623-26.191l0.07-1.153h2.467l0.067,1.153c0.015,0.236,1.428,24.005,1.624,26.191
				c0.21,2.316-0.441,9.535-0.471,9.842l0.052,8.18l1.763-1.698l-1.398-5.813l1.688-10.982c0.482-4.104,1.205-10.619,1.205-11.609
				c0-0.621,0.207-2.91,0.547-6.6c0.394-4.229,0.877-9.5,0.877-11.021c0-1.021-0.186-3.901-0.397-7.238
				c-0.352-5.442-0.747-11.612-0.62-13.794c0.211-3.614,2.235-8.706,2.32-8.921l0.272-0.681l23.709-2.727
				c0.092-0.008,2.381-0.101,4.148-0.101c1.477,0,1.924,0.063,2.188,0.126c0.154,0.039,0.326,0.108,0.519,0.205
				c0.096-0.293,0.26-0.637,0.506-1.042l-0.032,0.001c-0.101,0.005-11.32,0.613-14.979,0.404l-3.606-0.192
				c-8.318-0.438-16.518-0.882-17.478-1.041c-1.967-0.326-2.368-3.171-2.449-4.378l-0.016-0.264l0.094-0.25
				c0.181-0.488,0.871-2.131,2.031-2.705c0.09-0.095,0.24-0.727,0.015-1.289l-0.526-1.308l0.035-0.309
				c0.064-0.604,0.037-2.397-0.838-3.373c-0.459-0.508-1.114-0.753-2.006-0.753h-0.152c-0.891,0-1.549,0.245-2.006,0.753
				c-0.877,0.975-0.902,2.77-0.84,3.379l0.03,0.303l-0.521,1.304c-0.226,0.563-0.072,1.198,0.053,1.314
				c1.121,0.549,1.813,2.189,1.994,2.68l0.095,0.249L85.259,50.8c-0.082,1.209-0.486,4.052-2.453,4.378
				c-0.959,0.159-9.167,0.604-17.49,1.042l-3.588,0.191"/>
			<path fill="#FFFFFF" d="M91.478,59.543l-0.273,0.68c-0.084,0.216-2.109,5.309-2.322,8.923c-0.126,2.182,0.266,8.346,0.613,13.784
				c0.214,3.342,0.398,6.229,0.398,7.252c0,1.521-0.483,6.783-0.873,11.021c-0.34,3.688-0.547,5.975-0.547,6.598
				c0,0.992-0.725,7.516-1.212,11.651l-2.184,10.989l1.757,5.604l-1.794,1.877l-0.557-8.074c0.229-1.285,1.353-7.729,1.151-9.957
				c-0.199-2.188-1.607-25.955-1.622-26.191l-0.069-1.153h-2.468l-0.067,1.153c-0.204,3.32,1.265,22.084,0.896,26.191
				c-0.208,2.316-2.078,9.535-2.049,9.842l-0.053,8.18l-1.764-1.698l1.4-5.813l-3.387-10.508
				c-0.482-4.101,0.495-11.101,0.495-12.093c0-0.623-0.21-2.911-0.55-6.598c-0.392-4.232-0.875-9.502-0.875-11.021
				c0-1.022,0.184-3.902,0.397-7.238c0.351-5.441,0.746-11.611,0.618-13.794c-0.211-3.614-2.236-8.707-2.319-8.921l-0.273-0.681
				l-23.71-2.727c-0.092-0.008-2.381-0.101-4.146-0.101c-1.479,0-1.926,0.063-2.189,0.126c-0.154,0.039-0.326,0.108-0.516,0.205
				c-0.1-0.293-0.261-0.637-0.506-1.042l0.032,0.001c0.1,0.005,11.319,0.613,14.978,0.404l3.607-0.192
				c8.318-0.438,16.517-0.882,17.478-1.041c1.966-0.326,2.368-3.171,2.448-4.378l0.018-0.264l-0.094-0.25
				c-0.183-0.488-0.873-2.131-2.033-2.705c-0.088-0.095-0.24-0.727-0.013-1.289l0.524-1.308l-0.035-0.309
				c-0.063-0.604-0.037-2.398,0.838-3.373c0.459-0.508,1.114-0.753,2.008-0.753h0.152c0.89,0,1.547,0.245,2.004,0.753
				c0.878,0.975,0.902,2.771,0.842,3.379L85.6,44.984l0.521,1.304c0.226,0.563,0.071,1.198-0.054,1.314
				c-1.12,0.549-1.811,2.189-1.992,2.68l-0.096,0.249l0.018,0.267c0.081,1.209,0.485,4.052,2.451,4.378
				c0.961,0.159,9.169,0.603,17.492,1.042l3.588,0.191"/>
			<path fill="#E20613" d="M88.147,59.543l-0.273,0.68c-0.085,0.216-2.108,5.309-2.323,8.923c-0.126,2.182,0.266,8.346,0.614,13.784
				c0.213,3.342,0.397,6.229,0.397,7.252c0,1.521-0.482,6.783-0.874,11.021c-0.339,3.688-0.545,5.975-0.545,6.598
				c0,0.992-0.725,7.516-1.213,11.651l-2.182,10.989l1.756,5.604l-1.795,1.877l-0.557-8.074c0.23-1.285,1.354-7.729,1.152-9.957
				c-0.199-2.188-1.607-25.955-1.623-26.191l-0.069-1.153h-2.468l-0.067,1.153c-0.015,0.236-1.428,24.005-1.624,26.191
				c-0.209,2.316,0.443,9.535,0.473,9.842l-0.053,8.18l-1.765-1.698l1.399-5.813l-1.687-10.982
				c-0.482-4.104-1.204-10.619-1.204-11.609c0-0.621-0.209-2.91-0.549-6.6c-0.392-4.229-0.877-9.5-0.877-11.021
				c0-1.021,0.188-3.901,0.398-7.238c0.351-5.44,0.746-11.61,0.619-13.793c-0.211-3.614-2.234-8.706-2.32-8.921l-0.273-0.681
				l-23.709-2.729c-0.092-0.008-2.382-0.101-4.148-0.101c-1.477,0-1.925,0.063-2.188,0.126c-0.156,0.039-0.326,0.108-0.517,0.205
				c-0.097-0.293-0.261-0.637-0.507-1.042l0.033,0.001c0.1,0.005,11.32,0.613,14.978,0.404l3.606-0.192
				c8.317-0.438,16.52-0.882,17.479-1.041c1.967-0.326,2.369-3.171,2.449-4.378l0.016-0.264l-0.093-0.25
				c-0.182-0.488-0.872-2.131-2.031-2.705c-0.09-0.095-0.241-0.726-0.015-1.289l0.525-1.308l-0.034-0.309
				c-0.065-0.604-0.038-2.398,0.837-3.373c0.459-0.508,1.114-0.753,2.007-0.753h0.152c0.89,0,1.548,0.245,2.005,0.753
				c0.877,0.975,0.903,2.77,0.84,3.379l-0.031,0.303l0.523,1.304c0.225,0.563,0.07,1.198-0.054,1.314
				c-1.122,0.549-1.813,2.189-1.995,2.68l-0.096,0.249l0.018,0.267c0.082,1.209,0.486,4.052,2.453,4.378
				c0.96,0.159,9.168,0.604,17.491,1.042l3.586,0.191"/>
		</g>
	</g>
</g>
<rect x="344.51" y="62.923" fill="none" width="772.001" height="150"/>
<g enable-background="new    ">
	<path fill="#7A7978" d="M353.695,59.645c-0.781-0.811-1.846-2.119-3.193-3.926c-0.947-1.27-1.616-2.111-2.007-2.526
		s-0.928-0.896-1.611-1.443c-0.908-0.703-1.467-1.206-1.677-1.509c-0.21-0.303-0.315-0.62-0.315-0.952
		c0-0.156,0.151-0.363,0.454-0.623c0.303-0.258,0.581-0.388,0.835-0.388c0.596,0,1.382,0.449,2.358,1.348s1.86,1.846,2.651,2.842
		c2.412,3.057,3.906,4.766,4.482,5.127c0.576-0.635,1.182-1.284,1.816-1.948c3.223-3.34,5.186-5.508,5.889-6.504
		c0.771-1.074,1.538-1.611,2.3-1.611c0.293,0,0.522,0.139,0.688,0.418c0.166,0.277,0.249,0.559,0.249,0.842
		c0,0.264-0.369,0.83-1.106,1.699c-0.737,0.869-2.688,2.949-5.852,6.24c-1.523,1.582-2.417,2.603-2.681,3.062
		s-0.518,1.792-0.762,3.999c-0.244,2.207-0.415,3.936-0.513,5.186c-0.059,0.762-0.137,1.191-0.234,1.289
		c-0.097,0.098-0.303,0.197-0.615,0.301c-0.313,0.102-0.562,0.153-0.747,0.153c-0.732,0-1.099-0.615-1.099-1.846
		c0-0.762,0.156-2.114,0.469-4.058c0.293-1.865,0.439-3.115,0.439-3.75C353.915,60.509,353.841,60.035,353.695,59.645z"/>
	<path fill="#7A7978" d="M369.105,70.587c-1.338,0-2.441-0.508-3.311-1.523s-1.304-2.271-1.304-3.765
		c0-2.52,0.847-5.003,2.542-7.448c1.694-2.447,3.723-3.67,6.086-3.67c1.563,0,2.83,0.601,3.801,1.802
		c0.971,1.201,1.458,2.632,1.458,4.292c0,2.539-1.003,4.893-3.01,7.061C373.36,69.504,371.273,70.587,369.105,70.587z
		 M367.069,64.918c0,0.986,0.208,1.792,0.623,2.417s0.964,0.938,1.648,0.938c1.455,0,2.915-0.799,4.38-2.395
		c1.465-1.598,2.197-3.372,2.197-5.325c0-1.201-0.281-2.175-0.842-2.923c-0.562-0.746-1.316-1.12-2.263-1.12
		c-1.572,0-2.922,0.965-4.05,2.894C367.634,61.333,367.069,63.17,367.069,64.918z"/>
	<path fill="#7A7978" d="M392.132,63.482c-1.25,2.1-2.529,3.726-3.838,4.878c-1.309,1.152-2.524,1.729-3.647,1.729
		c-0.645,0-1.301-0.376-1.97-1.128c-0.669-0.752-1.003-1.909-1.003-3.472c0-1.279,0.308-3.164,0.923-5.654
		c0.518-2.08,0.776-3.54,0.776-4.38c0.283-0.586,0.728-0.879,1.333-0.879c0.41,0,0.737,0.145,0.981,0.433
		c0.244,0.288,0.366,0.588,0.366,0.9c0,0.684-0.239,1.655-0.718,2.915c-0.908,2.451-1.362,4.556-1.362,6.313
		c0,1.602,0.371,2.402,1.113,2.402c0.947,0,2.153-0.806,3.618-2.417c1.465-1.611,2.72-3.857,3.765-6.738
		c0.41-1.152,0.745-1.901,1.003-2.249c0.259-0.346,0.608-0.52,1.047-0.52c0.664,0,0.996,0.439,0.996,1.318
		c0,0.107-0.093,0.464-0.278,1.069c-0.586,2.139-0.879,4.16-0.879,6.064c0,2.285,0.376,3.765,1.128,4.438
		c0.391,0.361,0.586,0.654,0.586,0.879c0,0.273-0.198,0.522-0.593,0.747c-0.395,0.225-0.754,0.337-1.077,0.337
		c-0.684,0-1.235-0.508-1.655-1.523c-0.42-1.015-0.63-2.515-0.63-4.497v-0.483C392.118,63.81,392.123,63.648,392.132,63.482z"/>
	<path fill="#7A7978" d="M403.045,64.039c0.098-0.176,0.215-0.42,0.352-0.732c0.664-1.523,1.274-2.718,1.831-3.581
		c0.557-0.865,1.169-1.692,1.838-2.483s1.279-1.392,1.831-1.802c0.552-0.41,1.052-0.695,1.501-0.857
		c0.449-0.16,0.884-0.241,1.304-0.241c0.85,0,1.543,0.257,2.08,0.769c0.537,0.514,0.806,1.111,0.806,1.795
		c0,0.303-0.095,0.576-0.286,0.82c-0.191,0.244-0.481,0.366-0.872,0.366c-0.41,0-0.786-0.181-1.128-0.542
		c-0.352-0.361-0.718-0.542-1.099-0.542c-1.016,0-2.422,1.23-4.219,3.691s-2.891,5.171-3.281,8.13
		c-0.098,0.762-0.283,1.265-0.557,1.509s-0.659,0.366-1.157,0.366c-0.479,0-0.825-0.356-1.04-1.069
		c-0.215-0.713-0.322-1.914-0.322-3.604c0-0.459,0.024-1.47,0.073-3.032c0.059-1.846,0.176-3.335,0.352-4.468
		c0.029-0.186,0.078-0.62,0.146-1.304c0.068-0.752,0.154-1.274,0.256-1.567s0.313-0.566,0.63-0.82s0.662-0.381,1.033-0.381
		c0.361,0,0.632,0.115,0.813,0.345c0.181,0.23,0.271,0.476,0.271,0.739c0,0.381-0.098,0.918-0.293,1.611
		c-0.225,0.771-0.356,1.304-0.396,1.597c-0.029,0.332-0.083,0.679-0.161,1.04c-0.098,0.42-0.195,1.523-0.293,3.311l-0.015,0.542
		v0.394H403.045z"/>
	<path fill="#7A7978" d="M430.189,68.155c-0.479,1.758-0.929,4.224-1.349,7.396l-0.41,2.769c-0.067,0.391-0.249,0.778-0.542,1.164
		c-0.293,0.386-0.562,0.579-0.806,0.579c-0.303,0-0.647-0.153-1.033-0.462c-0.386-0.307-0.579-0.554-0.579-0.739
		c0-0.537,0.122-1.279,0.366-2.228c1.787-7.217,2.681-13.555,2.681-19.014l-0.015-1.23c-0.02-1.055,0.166-1.821,0.557-2.3
		c0.392-0.479,0.841-0.718,1.349-0.718c0.233,0,0.459,0.183,0.674,0.55c0.215,0.365,0.322,0.886,0.322,1.56
		c0,0.947-0.099,2.095-0.293,3.442c-0.254,1.699-0.387,2.676-0.396,2.93c1.455-2.539,2.998-4.521,4.629-5.947
		c1.631-1.426,3.146-2.139,4.541-2.139c0.986,0,1.819,0.369,2.498,1.105c0.679,0.738,1.019,1.653,1.019,2.747
		c0,3.184-1.222,6.074-3.662,8.672c-2.441,2.598-4.819,3.896-7.134,3.896c-0.576,0-1.033-0.146-1.37-0.439
		S430.55,68.927,430.189,68.155z M439.286,56.363c-1.377,0-3.081,1.289-5.112,3.867s-3.047,4.585-3.047,6.021
		c0,0.352,0.2,0.693,0.602,1.025c0.4,0.332,0.907,0.498,1.522,0.498c1.396,0,3.003-1.033,4.819-3.098
		c1.815-2.066,2.725-4.095,2.725-6.087c0-0.713-0.144-1.262-0.432-1.647C440.075,56.557,439.715,56.363,439.286,56.363z"/>
	<path fill="#7A7978" d="M459.295,64.889c0,0.996-0.881,2.197-2.644,3.604c-1.764,1.407-3.582,2.109-5.457,2.109
		c-1.572,0-2.786-0.464-3.641-1.392c-0.854-0.928-1.282-2.222-1.282-3.882c0-2.793,0.942-5.449,2.827-7.969
		c1.886-2.52,3.945-3.779,6.183-3.779c0.731,0,1.331,0.239,1.794,0.718s0.696,1.055,0.696,1.729c0,1.504-0.737,2.944-2.213,4.321
		c-1.475,1.377-3.446,2.729-5.918,4.058c-0.508,0.264-0.762,0.604-0.762,1.025c0,0.811,0.234,1.46,0.703,1.948
		c0.469,0.488,1.162,0.732,2.08,0.732c2.1,0,4.243-1.162,6.431-3.486c0.322-0.322,0.566-0.483,0.732-0.483
		C459.139,64.142,459.295,64.391,459.295,64.889z M449.115,62.604c4.141-2.461,6.211-4.438,6.211-5.933
		c0-0.586-0.265-0.879-0.791-0.879c-0.898,0-1.912,0.659-3.04,1.978S449.574,60.699,449.115,62.604z"/>
	<path fill="#7A7978" d="M465.316,64.039c0.098-0.176,0.215-0.42,0.352-0.732c0.664-1.523,1.274-2.718,1.831-3.581
		c0.557-0.865,1.169-1.692,1.838-2.483s1.279-1.392,1.831-1.802c0.552-0.41,1.052-0.695,1.501-0.857
		c0.449-0.16,0.884-0.241,1.304-0.241c0.851,0,1.543,0.257,2.08,0.769c0.537,0.514,0.807,1.111,0.807,1.795
		c0,0.303-0.096,0.576-0.286,0.82c-0.191,0.244-0.481,0.366-0.872,0.366c-0.41,0-0.786-0.181-1.128-0.542
		c-0.353-0.361-0.718-0.542-1.1-0.542c-1.016,0-2.422,1.23-4.219,3.691s-2.891,5.171-3.281,8.13
		c-0.098,0.762-0.282,1.265-0.557,1.509s-0.659,0.366-1.157,0.366c-0.479,0-0.825-0.356-1.04-1.069
		c-0.215-0.713-0.321-1.914-0.321-3.604c0-0.459,0.023-1.47,0.072-3.032c0.06-1.846,0.176-3.335,0.353-4.468
		c0.028-0.186,0.078-0.62,0.146-1.304c0.068-0.752,0.154-1.274,0.256-1.567c0.103-0.293,0.313-0.566,0.63-0.82
		c0.317-0.254,0.662-0.381,1.033-0.381c0.361,0,0.632,0.115,0.813,0.345c0.181,0.23,0.271,0.476,0.271,0.739
		c0,0.381-0.098,0.918-0.293,1.611c-0.225,0.771-0.355,1.304-0.396,1.597c-0.029,0.332-0.083,0.679-0.161,1.04
		c-0.099,0.42-0.195,1.523-0.293,3.311l-0.016,0.542v0.394H465.316z"/>
	<path fill="#7A7978" d="M485.59,66.5c0-0.635-0.781-1.357-2.344-2.168c-1.982-1.016-3.323-1.828-4.021-2.438
		c-0.697-0.61-1.047-1.292-1.047-2.044c0-1.943,0.975-3.555,2.922-4.834c1.948-1.279,3.537-1.919,4.769-1.919
		c0.791,0,1.365,0.137,1.722,0.41c0.357,0.273,0.534,0.747,0.534,1.421c0,0.303-0.129,0.563-0.388,0.776
		c-0.26,0.214-0.462,0.322-0.608,0.322c-0.106,0-0.316-0.073-0.629-0.22c-0.313-0.137-0.518-0.205-0.615-0.205
		c-0.487,0-1.479,0.356-2.974,1.069s-2.241,1.519-2.241,2.417c0,0.547,0.264,1.043,0.791,1.487c0.527,0.444,1.475,0.988,2.842,1.633
		c1.104,0.527,1.984,1.092,2.645,1.691c0.659,0.602,0.988,1.307,0.988,2.117c0,1.494-1.03,2.664-3.092,3.508
		c-2.06,0.845-4.027,1.268-5.902,1.268c-1.582,0-2.373-0.537-2.373-1.611c0-0.371,0.178-0.645,0.534-0.82
		c0.357-0.175,0.716-0.264,1.077-0.264c0.146,0,0.425,0.049,0.835,0.146c0.4,0.098,0.664,0.146,0.791,0.146
		c1.084,0,2.246-0.181,3.486-0.542C484.529,67.486,485.297,67.037,485.59,66.5z"/>
	<path fill="#7A7978" d="M495.229,70.587c-1.338,0-2.44-0.508-3.311-1.523s-1.305-2.271-1.305-3.765c0-2.52,0.848-5.003,2.542-7.448
		c1.693-2.447,3.724-3.67,6.087-3.67c1.563,0,2.829,0.601,3.801,1.802c0.972,1.201,1.457,2.632,1.457,4.292
		c0,2.539-1.003,4.893-3.01,7.061S497.396,70.587,495.229,70.587z M493.191,64.918c0,0.986,0.208,1.792,0.623,2.417
		c0.414,0.625,0.965,0.938,1.647,0.938c1.455,0,2.914-0.799,4.379-2.395c1.465-1.598,2.197-3.372,2.197-5.325
		c0-1.201-0.28-2.175-0.842-2.923c-0.563-0.746-1.316-1.12-2.265-1.12c-1.571,0-2.922,0.965-4.05,2.894
		C493.754,61.333,493.191,63.17,493.191,64.918z"/>
	<path fill="#7A7978" d="M517.889,58.59c-0.508,0-1.062,0.332-1.662,0.996c-0.6,0.664-1.516,2.153-2.745,4.468
		c-1.621,3.105-2.669,4.873-3.144,5.303c-0.474,0.43-0.867,0.645-1.18,0.645c-1.152,0-1.729-0.557-1.729-1.67
		c0-0.469,0.078-1.133,0.234-1.992c0.537-2.949,0.807-6.06,0.807-9.331c0-0.371,0.158-0.784,0.477-1.237
		c0.316-0.455,0.618-0.682,0.9-0.682c0.509,0,0.869,0.156,1.084,0.469c0.216,0.313,0.322,0.942,0.322,1.89
		c0,0.986-0.293,3.018-0.879,6.094c-0.195,1.016-0.293,1.66-0.293,1.934c0,0.156,0.039,0.234,0.117,0.234
		c0.146,0,0.824-1.167,2.035-3.501c1.221-2.373,2.291-4.043,3.209-5.01c0.918-0.967,1.928-1.45,3.03-1.45
		c0.879,0,1.596,0.4,2.146,1.201c0.551,0.801,0.955,2.261,1.209,4.38c0.272,2.412,0.52,3.914,0.739,4.504
		c0.22,0.592,0.568,0.887,1.048,0.887c0.303,0,0.684-0.107,1.143-0.322c0.078-0.039,0.137-0.059,0.176-0.059
		c0.42,0,0.63,0.244,0.63,0.732c0,0.43-0.287,0.887-0.863,1.369c-0.576,0.484-1.271,0.726-2.08,0.726
		c-0.83,0-1.473-0.329-1.927-0.989c-0.454-0.658-0.813-2.419-1.077-5.28C519.344,60.025,518.768,58.59,517.889,58.59z"/>
	<path fill="#7A7978" d="M537.68,64.522c-1.367,1.836-2.721,3.213-4.059,4.131s-2.563,1.377-3.676,1.377
		c-0.752,0-1.402-0.317-1.949-0.952c-0.547-0.635-0.82-1.45-0.82-2.446c0-2.568,1.148-5.334,3.443-8.299
		c2.295-2.963,4.574-4.445,6.84-4.445c0.82,0,1.432,0.469,1.832,1.406c0.127,0.313,0.326,0.469,0.6,0.469
		c0.781,0,1.172,0.303,1.172,0.908c0,0.303-0.049,0.718-0.146,1.245c-0.527,2.881-0.791,4.912-0.791,6.094
		c0,2.363,0.449,3.779,1.348,4.248c0.431,0.234,0.646,0.522,0.646,0.864c0,0.303-0.209,0.607-0.629,0.916
		c-0.42,0.307-0.826,0.461-1.217,0.461c-0.753,0-1.371-0.518-1.859-1.553C537.926,67.911,537.68,66.437,537.68,64.522z
		 M536.785,56.275c-1.289,0-2.787,1.208-4.496,3.626c-1.709,2.416-2.564,4.421-2.564,6.013c0,1.123,0.371,1.685,1.113,1.685
		c1.074,0,2.564-1.084,4.469-3.252c1.905-2.168,2.855-4.16,2.855-5.977C538.162,56.974,537.703,56.275,536.785,56.275z"/>
	<path fill="#7A7978" d="M550.541,45.055c0.703,0,1.055,0.449,1.055,1.348c0,0.801-0.426,2.705-1.274,5.713
		c-0.537,1.895-0.951,3.984-1.244,6.27c-0.293,2.286-0.439,4.077-0.439,5.376c0,1.611,0.103,3.213,0.308,4.805
		c0.039,0.303,0.059,0.522,0.059,0.659c0,0.488-0.166,0.908-0.498,1.26s-0.684,0.527-1.055,0.527c-0.519,0-0.876-0.322-1.076-0.967
		s-0.301-1.685-0.301-3.12c0-3.271,0.394-7.324,1.18-12.158s1.411-7.661,1.875-8.481C549.593,45.467,550.063,45.055,550.541,45.055z
		"/>
</g>
<g enable-background="new    ">
	<path fill="#7A7978" d="M353.827,102.5c0-0.635-0.781-1.357-2.344-2.168c-1.982-1.016-3.323-1.828-4.021-2.438
		c-0.698-0.61-1.047-1.293-1.047-2.045c0-1.942,0.974-3.555,2.922-4.834c1.948-1.279,3.538-1.918,4.768-1.918
		c0.791,0,1.365,0.137,1.721,0.409s0.535,0.747,0.535,1.421c0,0.303-0.129,0.563-0.388,0.776c-0.259,0.214-0.461,0.321-0.608,0.321
		c-0.107,0-0.317-0.072-0.63-0.219c-0.313-0.138-0.518-0.205-0.615-0.205c-0.488,0-1.479,0.355-2.974,1.068s-2.241,1.52-2.241,2.417
		c0,0.547,0.264,1.043,0.791,1.487c0.527,0.443,1.475,0.988,2.842,1.633c1.104,0.527,1.985,1.092,2.644,1.691
		c0.659,0.602,0.989,1.307,0.989,2.117c0,1.493-1.03,2.664-3.091,3.508c-2.061,0.845-4.028,1.268-5.903,1.268
		c-1.582,0-2.373-0.537-2.373-1.611c0-0.371,0.178-0.645,0.535-0.82c0.357-0.174,0.715-0.264,1.077-0.264
		c0.146,0,0.425,0.049,0.835,0.146c0.4,0.098,0.664,0.146,0.791,0.146c1.084,0,2.246-0.182,3.486-0.543
		C352.768,103.484,353.534,103.037,353.827,102.5z"/>
	<path fill="#7A7978" d="M371.727,100.889c0,0.996-0.881,2.197-2.644,3.604s-3.582,2.108-5.457,2.108
		c-1.572,0-2.786-0.463-3.64-1.392c-0.854-0.928-1.282-2.222-1.282-3.882c0-2.793,0.942-5.449,2.827-7.969
		c1.885-2.521,3.945-3.779,6.182-3.779c0.732,0,1.331,0.238,1.794,0.718s0.696,1.056,0.696,1.729c0,1.504-0.737,2.943-2.212,4.32
		c-1.475,1.377-3.447,2.729-5.918,4.059c-0.508,0.264-0.762,0.604-0.762,1.025c0,0.811,0.234,1.459,0.703,1.947
		c0.469,0.488,1.162,0.732,2.08,0.732c2.1,0,4.243-1.162,6.431-3.486c0.322-0.322,0.566-0.482,0.732-0.482
		C371.571,100.143,371.727,100.391,371.727,100.889z M361.546,98.604c4.141-2.461,6.211-4.438,6.211-5.933
		c0-0.586-0.264-0.879-0.791-0.879c-0.898,0-1.912,0.659-3.04,1.978C362.798,95.089,362.005,96.699,361.546,98.604z"/>
	<path fill="#7A7978" d="M378.788,106.689c-1.465,0-2.59-0.42-3.376-1.26c-0.786-0.841-1.179-2.018-1.179-3.531
		c0-2.549,1.011-5.235,3.032-8.063c2.021-2.826,3.901-4.239,5.64-4.239c0.791,0,1.472,0.428,2.043,1.28
		c0.571,0.854,0.857,1.761,0.857,2.718c0,0.576-0.125,1.072-0.374,1.487s-0.5,0.622-0.754,0.622c-0.566,0-0.967-0.571-1.201-1.714
		c-0.264-1.23-0.645-1.847-1.143-1.847c-1.016,0-2.217,1.207-3.604,3.618c-1.387,2.412-2.08,4.448-2.08,6.108s0.942,2.49,2.827,2.49
		c1.436,0,3.125-0.674,5.068-2.021c0.684-0.479,1.187-0.718,1.509-0.718c0.332,0,0.498,0.19,0.498,0.571
		c0,0.742-0.874,1.678-2.622,2.805C382.181,106.126,380.467,106.689,378.788,106.689z"/>
	<path fill="#7A7978" d="M394.271,106.587c-1.338,0-2.441-0.508-3.311-1.522c-0.87-1.016-1.304-2.271-1.304-3.766
		c0-2.52,0.847-5.003,2.542-7.447c1.694-2.447,3.723-3.67,6.086-3.67c1.563,0,2.83,0.601,3.801,1.801
		c0.971,1.201,1.458,2.633,1.458,4.293c0,2.539-1.003,4.893-3.01,7.061C398.526,105.504,396.439,106.587,394.271,106.587z
		 M392.235,100.918c0,0.986,0.208,1.792,0.623,2.417s0.964,0.938,1.648,0.938c1.455,0,2.915-0.799,4.38-2.396
		c1.465-1.599,2.197-3.372,2.197-5.325c0-1.201-0.281-2.175-0.842-2.923c-0.563-0.746-1.316-1.12-2.263-1.12
		c-1.572,0-2.922,0.965-4.05,2.895C392.8,97.333,392.235,99.17,392.235,100.918z"/>
	<path fill="#7A7978" d="M416.932,94.59c-0.508,0-1.062,0.332-1.663,0.996s-1.516,2.153-2.747,4.469
		c-1.621,3.104-2.668,4.872-3.142,5.303c-0.474,0.43-0.867,0.645-1.179,0.645c-1.152,0-1.729-0.557-1.729-1.67
		c0-0.469,0.078-1.133,0.234-1.992c0.537-2.949,0.806-6.061,0.806-9.331c0-0.37,0.159-0.784,0.476-1.237
		c0.317-0.455,0.618-0.682,0.901-0.682c0.508,0,0.869,0.156,1.084,0.469c0.215,0.313,0.322,0.942,0.322,1.891
		c0,0.986-0.293,3.018-0.879,6.094c-0.195,1.016-0.293,1.66-0.293,1.934c0,0.156,0.039,0.234,0.117,0.234
		c0.146,0,0.825-1.167,2.036-3.501c1.221-2.373,2.29-4.043,3.208-5.01c0.918-0.968,1.929-1.45,3.032-1.45
		c0.879,0,1.594,0.4,2.146,1.201c0.552,0.801,0.955,2.261,1.208,4.38c0.273,2.412,0.52,3.914,0.74,4.504
		c0.22,0.592,0.568,0.888,1.047,0.888c0.303,0,0.684-0.107,1.143-0.322c0.078-0.039,0.138-0.06,0.177-0.06
		c0.42,0,0.63,0.244,0.63,0.732c0,0.43-0.288,0.887-0.864,1.368c-0.576,0.484-1.271,0.727-2.08,0.727
		c-0.83,0-1.472-0.329-1.926-0.988c-0.454-0.658-0.813-2.42-1.077-5.281C418.387,96.025,417.811,94.59,416.932,94.59z"/>
	<path fill="#7A7978" d="M437.352,99.79c-1.309,2.101-2.694,3.719-4.159,4.854c-1.466,1.14-2.813,1.707-4.043,1.707
		c-0.947,0-1.697-0.363-2.249-1.092c-0.553-0.727-0.828-1.695-0.828-2.906c0-2.472,1.003-5.006,3.01-7.604s4.172-3.896,6.497-3.896
		c1.016,0,1.958,0.436,2.827,1.305l2.051-9.58c0.146-0.654,0.417-1.094,0.813-1.318c0.396-0.224,0.706-0.337,0.931-0.337
		c0.684,0,1.024,0.605,1.024,1.816c0,0.215-0.225,1.016-0.674,2.401c-0.713,2.148-1.389,4.789-2.029,7.918
		c-0.64,3.131-0.959,5.643-0.959,7.537c0,1.952,0.426,2.93,1.274,2.93c0.547,0,1.113-0.182,1.699-0.543
		c0.244-0.176,0.474-0.264,0.688-0.264c0.313,0,0.47,0.205,0.47,0.615c0,0.498-0.438,1.074-1.312,1.729
		c-0.874,0.655-1.77,0.981-2.688,0.981c-1.611,0-2.417-1.553-2.417-4.657C437.279,100.859,437.303,100.327,437.352,99.79z
		 M435.433,92.936c-1.582,0-3.148,1.071-4.701,3.215c-1.554,2.145-2.329,4.123-2.329,5.939c0,1.221,0.404,1.831,1.216,1.831
		c0.762,0,1.687-0.399,2.775-1.2c1.09-0.802,2.21-2.078,3.362-3.83c1.153-1.754,1.729-3.07,1.729-3.949
		c0-0.43-0.198-0.871-0.594-1.324C436.495,93.161,436.009,92.936,435.433,92.936z"/>
	<path fill="#7A7978" d="M462.958,106.587c-1.338,0-2.441-0.508-3.311-1.522c-0.87-1.016-1.305-2.271-1.305-3.766
		c0-2.52,0.848-5.003,2.542-7.447c1.694-2.447,3.724-3.67,6.086-3.67c1.563,0,2.83,0.601,3.802,1.801
		c0.971,1.201,1.458,2.633,1.458,4.293c0,2.539-1.004,4.893-3.011,7.061S465.125,106.587,462.958,106.587z M460.921,100.918
		c0,0.986,0.208,1.792,0.623,2.417s0.964,0.938,1.648,0.938c1.454,0,2.915-0.799,4.38-2.396c1.465-1.599,2.196-3.372,2.196-5.325
		c0-1.201-0.28-2.175-0.842-2.923c-0.562-0.746-1.315-1.12-2.263-1.12c-1.572,0-2.922,0.965-4.05,2.895
		C461.486,97.333,460.921,99.17,460.921,100.918z"/>
	<path fill="#7A7978" d="M478.47,104.154c-0.479,1.759-0.928,4.225-1.348,7.397l-0.41,2.769c-0.068,0.392-0.249,0.779-0.542,1.164
		c-0.293,0.387-0.562,0.58-0.806,0.58c-0.304,0-0.647-0.153-1.033-0.463c-0.386-0.307-0.579-0.554-0.579-0.738
		c0-0.537,0.122-1.279,0.366-2.227c1.787-7.218,2.681-13.556,2.681-19.015l-0.015-1.229c-0.021-1.056,0.166-1.822,0.557-2.301
		c0.392-0.479,0.84-0.718,1.349-0.718c0.233,0,0.459,0.183,0.674,0.55c0.215,0.365,0.321,0.887,0.321,1.561
		c0,0.947-0.098,2.095-0.293,3.441c-0.254,1.699-0.386,2.676-0.396,2.93c1.455-2.539,2.998-4.521,4.629-5.946
		c1.631-1.427,3.145-2.14,4.541-2.14c0.986,0,1.818,0.369,2.497,1.105c0.679,0.738,1.019,1.652,1.019,2.747
		c0,3.185-1.221,6.073-3.662,8.672c-2.44,2.599-4.819,3.896-7.134,3.896c-0.576,0-1.032-0.146-1.37-0.438
		C479.179,105.458,478.832,104.927,478.47,104.154z M487.566,92.363c-1.377,0-3.08,1.289-5.112,3.867
		c-2.031,2.578-3.047,4.584-3.047,6.021c0,0.353,0.2,0.692,0.601,1.024c0.401,0.332,0.908,0.498,1.523,0.498
		c1.396,0,3.003-1.032,4.819-3.098c1.816-2.066,2.726-4.095,2.726-6.087c0-0.713-0.146-1.262-0.434-1.647
		C488.355,92.557,487.996,92.363,487.566,92.363z"/>
	<path fill="#7A7978" d="M497.836,102.604c0,0.742,0.102,1.576,0.307,2.504c0.039,0.177,0.06,0.322,0.06,0.439
		c0,0.176-0.16,0.403-0.482,0.682c-0.321,0.278-0.664,0.418-1.024,0.418c-0.947,0-1.422-0.869-1.422-2.607
		c0-1.797,0.37-4.639,1.112-8.525c0.254-1.356,0.381-2.191,0.381-2.505c0-0.614,0.113-1.14,0.339-1.575
		c0.225-0.434,0.541-0.65,0.95-0.65c0.498,0,0.893,0.119,1.181,0.357c0.288,0.24,0.432,0.506,0.432,0.799s-0.068,0.68-0.205,1.158
		c-0.731,2.577-1.186,4.424-1.361,5.536C497.927,99.747,497.836,101.068,497.836,102.604z M499.754,86.24
		c-0.205,0-0.361-0.221-0.469-0.659c-0.039-0.138-0.092-0.288-0.16-0.454c-0.264-0.635-0.396-1.188-0.396-1.654
		c0-0.392,0.232-0.789,0.696-1.194s0.979-0.608,1.546-0.608c0.283,0,0.601,0.11,0.951,0.329c0.353,0.221,0.527,0.434,0.527,0.639
		c0,0.321-0.119,0.868-0.358,1.641c-0.239,0.771-0.62,1.291-1.143,1.56C500.426,86.105,500.027,86.24,499.754,86.24z"/>
	<path fill="#7A7978" d="M513.686,94.59c-0.508,0-1.063,0.332-1.662,0.996c-0.601,0.664-1.518,2.153-2.747,4.469
		c-1.621,3.104-2.668,4.872-3.143,5.303c-0.474,0.43-0.866,0.645-1.179,0.645c-1.152,0-1.729-0.557-1.729-1.67
		c0-0.469,0.078-1.133,0.234-1.992c0.537-2.949,0.805-6.061,0.805-9.331c0-0.37,0.159-0.784,0.478-1.237
		c0.316-0.455,0.617-0.682,0.899-0.682c0.509,0,0.869,0.156,1.084,0.469c0.216,0.313,0.322,0.942,0.322,1.891
		c0,0.986-0.293,3.018-0.879,6.094c-0.195,1.016-0.293,1.66-0.293,1.934c0,0.156,0.039,0.234,0.117,0.234
		c0.146,0,0.826-1.167,2.037-3.501c1.221-2.373,2.289-4.043,3.207-5.01c0.918-0.968,1.93-1.45,3.032-1.45
		c0.88,0,1.595,0.4,2.146,1.201s0.954,2.261,1.208,4.38c0.272,2.412,0.521,3.914,0.74,4.504c0.22,0.592,0.567,0.888,1.047,0.888
		c0.303,0,0.684-0.107,1.143-0.322c0.078-0.039,0.138-0.06,0.177-0.06c0.42,0,0.631,0.244,0.631,0.732
		c0,0.43-0.289,0.887-0.865,1.368c-0.576,0.484-1.271,0.727-2.08,0.727c-0.83,0-1.472-0.329-1.926-0.988
		c-0.454-0.658-0.813-2.42-1.076-5.281C515.141,96.025,514.564,94.59,513.686,94.59z"/>
	<path fill="#7A7978" d="M526.4,102.604c0,0.742,0.102,1.576,0.307,2.504c0.039,0.177,0.059,0.322,0.059,0.439
		c0,0.176-0.159,0.403-0.481,0.682s-0.664,0.418-1.025,0.418c-0.946,0-1.422-0.869-1.422-2.607c0-1.797,0.371-4.639,1.113-8.525
		c0.254-1.356,0.381-2.191,0.381-2.505c0-0.614,0.113-1.14,0.338-1.575c0.225-0.434,0.541-0.65,0.951-0.65
		c0.498,0,0.892,0.119,1.18,0.357c0.288,0.24,0.433,0.506,0.433,0.799s-0.068,0.68-0.205,1.158
		c-0.732,2.577-1.187,4.424-1.361,5.536C526.491,99.747,526.4,101.068,526.4,102.604z M528.318,86.24
		c-0.205,0-0.361-0.221-0.47-0.659c-0.039-0.138-0.092-0.288-0.159-0.454c-0.265-0.635-0.396-1.188-0.396-1.654
		c0-0.392,0.232-0.789,0.696-1.194s0.979-0.608,1.546-0.608c0.283,0,0.6,0.11,0.951,0.329c0.352,0.221,0.526,0.434,0.526,0.639
		c0,0.321-0.119,0.868-0.357,1.641c-0.239,0.771-0.62,1.291-1.144,1.56C528.99,86.105,528.592,86.24,528.318,86.24z"/>
	<path fill="#7A7978" d="M536.551,106.587c-1.338,0-2.44-0.508-3.311-1.522c-0.87-1.016-1.303-2.271-1.303-3.766
		c0-2.52,0.847-5.003,2.541-7.447c1.693-2.447,3.723-3.67,6.086-3.67c1.563,0,2.83,0.601,3.802,1.801
		c0.972,1.201,1.458,2.633,1.458,4.293c0,2.539-1.004,4.893-3.011,7.061S538.719,106.587,536.551,106.587z M534.516,100.918
		c0,0.986,0.207,1.792,0.622,2.417s0.964,0.938,1.647,0.938c1.455,0,2.916-0.799,4.381-2.396c1.465-1.599,2.197-3.372,2.197-5.325
		c0-1.201-0.281-2.175-0.844-2.923c-0.562-0.746-1.314-1.12-2.263-1.12c-1.572,0-2.923,0.965-4.051,2.895
		C535.078,97.333,534.516,99.17,534.516,100.918z"/>
	<path fill="#7A7978" d="M559.213,94.59c-0.508,0-1.063,0.332-1.663,0.996c-0.6,0.664-1.517,2.153-2.747,4.469
		c-1.621,3.104-2.668,4.872-3.142,5.303c-0.475,0.43-0.866,0.645-1.179,0.645c-1.152,0-1.729-0.557-1.729-1.67
		c0-0.469,0.078-1.133,0.234-1.992c0.536-2.949,0.805-6.061,0.805-9.331c0-0.37,0.159-0.784,0.477-1.237
		c0.317-0.455,0.617-0.682,0.9-0.682c0.508,0,0.869,0.156,1.084,0.469c0.215,0.313,0.322,0.942,0.322,1.891
		c0,0.986-0.293,3.018-0.879,6.094c-0.195,1.016-0.293,1.66-0.293,1.934c0,0.156,0.038,0.234,0.116,0.234
		c0.146,0,0.826-1.167,2.037-3.501c1.222-2.373,2.289-4.043,3.207-5.01c0.918-0.968,1.93-1.45,3.033-1.45
		c0.879,0,1.594,0.4,2.146,1.201c0.552,0.801,0.953,2.261,1.207,4.38c0.273,2.412,0.521,3.914,0.74,4.504
		c0.221,0.592,0.568,0.888,1.047,0.888c0.304,0,0.685-0.107,1.144-0.322c0.078-0.039,0.137-0.06,0.176-0.06
		c0.42,0,0.631,0.244,0.631,0.732c0,0.43-0.289,0.887-0.865,1.368c-0.575,0.484-1.27,0.727-2.079,0.727
		c-0.83,0-1.473-0.329-1.927-0.988c-0.454-0.658-0.813-2.42-1.076-5.281C560.668,96.025,560.092,94.59,559.213,94.59z"/>
	<path fill="#7A7978" d="M588.494,102.5c0-0.635-0.781-1.357-2.344-2.168c-1.982-1.016-3.322-1.828-4.021-2.438
		c-0.699-0.61-1.048-1.293-1.048-2.045c0-1.942,0.975-3.555,2.923-4.834s3.538-1.918,4.77-1.918c0.791,0,1.363,0.137,1.721,0.409
		c0.356,0.272,0.535,0.747,0.535,1.421c0,0.303-0.13,0.563-0.39,0.776c-0.259,0.214-0.461,0.321-0.606,0.321
		c-0.107,0-0.318-0.072-0.631-0.219c-0.313-0.138-0.519-0.205-0.615-0.205c-0.488,0-1.479,0.355-2.973,1.068
		c-1.494,0.713-2.242,1.52-2.242,2.417c0,0.547,0.264,1.043,0.791,1.487c0.526,0.443,1.475,0.988,2.842,1.633
		c1.104,0.527,1.985,1.092,2.645,1.691c0.659,0.602,0.988,1.307,0.988,2.117c0,1.493-1.029,2.664-3.09,3.508
		c-2.061,0.845-4.029,1.268-5.904,1.268c-1.582,0-2.373-0.537-2.373-1.611c0-0.371,0.18-0.645,0.535-0.82
		c0.356-0.174,0.715-0.264,1.076-0.264c0.146,0,0.426,0.049,0.836,0.146c0.4,0.098,0.664,0.146,0.791,0.146
		c1.084,0,2.246-0.182,3.486-0.543S588.201,103.037,588.494,102.5z"/>
	<path fill="#7A7978" d="M596.684,104.154c-0.479,1.759-0.928,4.225-1.348,7.397l-0.41,2.769c-0.067,0.392-0.25,0.779-0.543,1.164
		c-0.293,0.387-0.561,0.58-0.805,0.58c-0.303,0-0.647-0.153-1.033-0.463c-0.386-0.307-0.578-0.554-0.578-0.738
		c0-0.537,0.121-1.279,0.365-2.227c1.787-7.218,2.682-13.556,2.682-19.015l-0.016-1.229c-0.021-1.056,0.166-1.822,0.557-2.301
		c0.392-0.479,0.84-0.718,1.349-0.718c0.233,0,0.459,0.183,0.674,0.55c0.215,0.365,0.322,0.887,0.322,1.561
		c0,0.947-0.099,2.095-0.293,3.441c-0.255,1.699-0.386,2.676-0.396,2.93c1.455-2.539,2.998-4.521,4.629-5.946
		c1.631-1.427,3.146-2.14,4.541-2.14c0.986,0,1.818,0.369,2.497,1.105c0.679,0.738,1.02,1.652,1.02,2.747
		c0,3.185-1.222,6.073-3.662,8.672c-2.441,2.599-4.82,3.896-7.136,3.896c-0.575,0-1.031-0.146-1.368-0.438
		C597.394,105.458,597.045,104.927,596.684,104.154z M605.779,92.363c-1.377,0-3.08,1.289-5.111,3.867s-3.047,4.584-3.047,6.021
		c0,0.353,0.199,0.692,0.6,1.024c0.401,0.332,0.908,0.498,1.523,0.498c1.396,0,3.004-1.032,4.82-3.098
		c1.815-2.066,2.725-4.095,2.725-6.087c0-0.713-0.146-1.262-0.434-1.647C606.568,92.557,606.209,92.363,605.779,92.363z"/>
	<path fill="#7A7978" d="M625.789,100.889c0,0.996-0.881,2.197-2.645,3.604c-1.763,1.407-3.58,2.108-5.455,2.108
		c-1.572,0-2.786-0.463-3.642-1.392c-0.854-0.928-1.281-2.222-1.281-3.882c0-2.793,0.941-5.449,2.826-7.969
		c1.886-2.521,3.945-3.779,6.183-3.779c0.731,0,1.331,0.238,1.795,0.718s0.694,1.056,0.694,1.729c0,1.504-0.735,2.943-2.211,4.32
		c-1.475,1.377-3.446,2.729-5.918,4.059c-0.508,0.264-0.762,0.604-0.762,1.025c0,0.811,0.234,1.459,0.703,1.947
		s1.162,0.732,2.08,0.732c2.1,0,4.242-1.162,6.43-3.486c0.322-0.322,0.566-0.482,0.732-0.482
		C625.633,100.143,625.789,100.391,625.789,100.889z M615.609,98.604c4.141-2.461,6.211-4.438,6.211-5.933
		c0-0.586-0.265-0.879-0.791-0.879c-0.898,0-1.912,0.659-3.04,1.978C616.861,95.089,616.068,96.699,615.609,98.604z"/>
	<path fill="#7A7978" d="M632.85,106.689c-1.465,0-2.59-0.42-3.376-1.26c-0.785-0.841-1.179-2.018-1.179-3.531
		c0-2.549,1.01-5.235,3.031-8.063c2.021-2.826,3.901-4.239,5.641-4.239c0.791,0,1.473,0.428,2.043,1.28
		c0.571,0.854,0.857,1.761,0.857,2.718c0,0.576-0.125,1.072-0.374,1.487s-0.501,0.622-0.755,0.622c-0.566,0-0.967-0.571-1.201-1.714
		c-0.264-1.23-0.646-1.847-1.144-1.847c-1.016,0-2.217,1.207-3.604,3.618c-1.387,2.412-2.08,4.448-2.08,6.108s0.943,2.49,2.828,2.49
		c1.436,0,3.125-0.674,5.067-2.021c0.685-0.479,1.187-0.718,1.509-0.718c0.332,0,0.498,0.19,0.498,0.571
		c0,0.742-0.873,1.678-2.621,2.805C636.244,106.126,634.529,106.689,632.85,106.689z"/>
	<path fill="#7A7978" d="M646.854,102.604c0,0.742,0.104,1.576,0.31,2.504c0.039,0.177,0.059,0.322,0.059,0.439
		c0,0.176-0.161,0.403-0.483,0.682s-0.664,0.418-1.025,0.418c-0.947,0-1.42-0.869-1.42-2.607c0-1.797,0.371-4.639,1.113-8.525
		c0.254-1.356,0.381-2.191,0.381-2.505c0-0.614,0.111-1.14,0.336-1.575c0.225-0.434,0.543-0.65,0.953-0.65
		c0.498,0,0.891,0.119,1.179,0.357c0.288,0.24,0.433,0.506,0.433,0.799s-0.067,0.68-0.204,1.158
		c-0.732,2.577-1.188,4.424-1.363,5.536C646.945,99.747,646.854,101.068,646.854,102.604z M648.773,86.24
		c-0.205,0-0.361-0.221-0.47-0.659c-0.039-0.138-0.094-0.288-0.162-0.454c-0.264-0.635-0.395-1.188-0.395-1.654
		c0-0.392,0.231-0.789,0.695-1.194s0.979-0.608,1.545-0.608c0.282,0,0.602,0.11,0.953,0.329c0.352,0.221,0.526,0.434,0.526,0.639
		c0,0.321-0.12,0.868-0.358,1.641c-0.239,0.771-0.62,1.291-1.144,1.56C649.444,86.105,649.047,86.24,648.773,86.24z"/>
	<path fill="#7A7978" d="M662.602,100.521c-1.366,1.836-2.721,3.213-4.059,4.131s-2.563,1.377-3.676,1.377
		c-0.752,0-1.402-0.316-1.949-0.951s-0.82-1.45-0.82-2.446c0-2.567,1.148-5.334,3.443-8.299c2.295-2.963,4.574-4.444,6.84-4.444
		c0.82,0,1.432,0.469,1.832,1.405c0.127,0.313,0.326,0.47,0.6,0.47c0.781,0,1.173,0.303,1.173,0.907c0,0.304-0.05,0.718-0.146,1.245
		c-0.527,2.881-0.791,4.912-0.791,6.094c0,2.363,0.449,3.779,1.348,4.248c0.431,0.234,0.646,0.521,0.646,0.864
		c0,0.303-0.209,0.606-0.629,0.916c-0.42,0.308-0.826,0.461-1.217,0.461c-0.752,0-1.371-0.519-1.859-1.554
		C662.848,103.911,662.602,102.438,662.602,100.521z M661.707,92.275c-1.289,0-2.787,1.207-4.496,3.625
		c-1.709,2.416-2.564,4.422-2.564,6.014c0,1.123,0.371,1.686,1.113,1.686c1.074,0,2.564-1.084,4.469-3.252
		c1.905-2.168,2.855-4.16,2.855-5.978C663.084,92.975,662.625,92.275,661.707,92.275z"/>
	<path fill="#7A7978" d="M675.463,81.055c0.703,0,1.055,0.449,1.055,1.347c0,0.802-0.426,2.705-1.274,5.714
		c-0.537,1.895-0.951,3.983-1.244,6.27s-0.439,4.077-0.439,5.376c0,1.611,0.103,3.213,0.308,4.805
		c0.039,0.304,0.059,0.522,0.059,0.66c0,0.487-0.166,0.907-0.498,1.26c-0.332,0.352-0.684,0.527-1.055,0.527
		c-0.518,0-0.876-0.322-1.076-0.968s-0.301-1.685-0.301-3.12c0-3.271,0.394-7.324,1.18-12.158s1.411-7.66,1.875-8.48
		S674.984,81.055,675.463,81.055z"/>
	<path fill="#7A7978" d="M681.717,102.604c0,0.742,0.104,1.576,0.31,2.504c0.039,0.177,0.059,0.322,0.059,0.439
		c0,0.176-0.162,0.403-0.484,0.682c-0.321,0.278-0.663,0.418-1.024,0.418c-0.947,0-1.42-0.869-1.42-2.607
		c0-1.797,0.371-4.639,1.112-8.525c0.255-1.356,0.382-2.191,0.382-2.505c0-0.614,0.11-1.14,0.336-1.575
		c0.225-0.434,0.543-0.65,0.953-0.65c0.497,0,0.891,0.119,1.179,0.357c0.288,0.24,0.433,0.506,0.433,0.799s-0.067,0.68-0.205,1.158
		c-0.731,2.577-1.188,4.424-1.362,5.536C681.808,99.747,681.717,101.068,681.717,102.604z M683.637,86.24
		c-0.205,0-0.36-0.221-0.469-0.659c-0.039-0.138-0.094-0.288-0.162-0.454c-0.264-0.635-0.395-1.188-0.395-1.654
		c0-0.392,0.23-0.789,0.694-1.194s0.979-0.608,1.545-0.608c0.283,0,0.603,0.11,0.953,0.329c0.353,0.221,0.527,0.434,0.527,0.639
		c0,0.321-0.12,0.868-0.359,1.641c-0.238,0.771-0.62,1.291-1.143,1.56C684.308,86.105,683.91,86.24,683.637,86.24z"/>
	<path fill="#7A7978" d="M694.959,102.5c0-0.635-0.781-1.357-2.344-2.168c-1.982-1.016-3.322-1.828-4.021-2.438
		c-0.699-0.61-1.048-1.293-1.048-2.045c0-1.942,0.976-3.555,2.923-4.834c1.948-1.279,3.538-1.918,4.77-1.918
		c0.791,0,1.363,0.137,1.721,0.409s0.535,0.747,0.535,1.421c0,0.303-0.13,0.563-0.389,0.776c-0.26,0.214-0.462,0.321-0.607,0.321
		c-0.107,0-0.318-0.072-0.631-0.219c-0.313-0.138-0.519-0.205-0.615-0.205c-0.488,0-1.479,0.355-2.973,1.068
		s-2.242,1.52-2.242,2.417c0,0.547,0.264,1.043,0.791,1.487c0.527,0.443,1.475,0.988,2.842,1.633
		c1.104,0.527,1.985,1.092,2.646,1.691c0.658,0.602,0.987,1.307,0.987,2.117c0,1.493-1.028,2.664-3.09,3.508
		c-2.061,0.845-4.029,1.268-5.904,1.268c-1.582,0-2.373-0.537-2.373-1.611c0-0.371,0.18-0.645,0.535-0.82
		c0.356-0.174,0.715-0.264,1.076-0.264c0.146,0,0.426,0.049,0.836,0.146c0.4,0.098,0.664,0.146,0.791,0.146
		c1.084,0,2.246-0.182,3.486-0.543S694.666,103.037,694.959,102.5z"/>
	<path fill="#7A7978" d="M706.283,91.074c1.006-0.078,1.953-0.172,2.842-0.278c0.879-0.098,1.611-0.146,2.197-0.146
		c0.742,0,1.211,0.067,1.406,0.205c0.194,0.137,0.293,0.375,0.293,0.718c0,0.791-0.554,1.221-1.656,1.288
		c-1.416,0.089-2.719,0.211-3.91,0.367c-1.191,0.155-1.834,0.285-1.927,0.389c-0.093,0.102-0.389,1.265-0.886,3.486
		c-0.498,2.221-0.748,3.664-0.748,4.328c0,1.073,0.143,1.789,0.426,2.146s0.707,0.534,1.272,0.534c0.841,0,2.009-0.631,3.502-1.891
		c0.576-0.518,1.021-0.775,1.332-0.775c0.42,0,0.632,0.225,0.632,0.674c0,0.703-0.678,1.613-2.029,2.73
		c-1.354,1.118-2.736,1.678-4.152,1.678c-2.363,0-3.545-1.392-3.545-4.174c0-1.006,0.244-2.563,0.732-4.674
		c0.479-2.1,0.717-3.359,0.717-3.779c0-0.146-0.117-0.219-0.353-0.219l-1.522,0.131c-1.25,0-1.875-0.498-1.875-1.494
		c0-0.565,0.289-0.85,0.865-0.85h3.018c0.205,0,0.385-0.093,0.541-0.277c0.156-0.186,0.387-0.809,0.689-1.868
		s0.569-2.106,0.805-3.142c0.234-1.025,0.693-1.539,1.377-1.539c0.42,0,0.748,0.146,0.982,0.439c0.233,0.293,0.352,0.566,0.352,0.82
		c0,0.137-0.176,0.834-0.527,2.095L706.283,91.074z"/>
</g>
</svg>
