<?xml version="1.0" standalone="no"?>
<!DOCTYPE svg PUBLIC "-//W3C//DTD SVG 1.1//EN" "http://www.w3.org/Graphics/SVG/1.1/DTD/svg11.dtd" >
<svg xmlns="http://www.w3.org/2000/svg">
<metadata>Generated by IcoMoon</metadata>
<defs>
<font id="icomoon" horiz-adv-x="1024">
<font-face units-per-em="1024" ascent="960" descent="-64" />
<missing-glyph horiz-adv-x="1024" />
<glyph unicode="&#x20;" horiz-adv-x="512" d="" />
<glyph unicode="&#xe900;" horiz-adv-x="6044" d="M2469.883 575.844c-1.958-15.647-4.893-30.794-8.797-45.459v-121.706c-2.934-3.904-5.869-3.904-8.797 0v101.179c-3.917-9.779-9.291-18.582-16.129-26.396-4.893-0.982-6.851 0.97-5.869 5.869 16.611 23.462 26.878 52.792 30.794 87.984 3.904 3.898 6.838 3.41 8.797-1.47zM2497.742 575.844c3.91 4.88 6.838 4.398 8.797-1.464-0.982-5.869-2.453-12.713-4.398-20.527h83.579c10.749 0 15.641-5.381 14.665-16.129-0.982-7.827-3.422-15.647-7.333-23.462-4.893-2.934-7.821-1.958-8.797 2.934 9.773 18.569 9.773 27.86 0 27.86h-39.591v-121.706c-0.982-10.749-8.315-15.635-21.998-14.665-5.869 0.982-11.249 2.453-16.129 4.398-2.934 5.869-1.464 8.797 4.398 8.797 15.641-6.838 23.943-5.869 24.926 2.934v120.236h-36.656c-5.869-14.665-12.713-26.396-20.527-35.192-4.893-0.982-6.851 0.97-5.869 5.869 11.737 14.659 20.039 34.692 24.932 60.118zM2502.141 503.989c3.91 4.88 6.838 4.398 8.797-1.464-5.869-25.42-16.129-49.857-30.794-73.319-5.869-2.934-8.315-1.464-7.333 4.398 13.683 22.479 23.468 45.941 29.33 70.385zM2569.591 502.525c0.976 4.88 3.91 5.869 8.797 2.934 9.773-22.492 17.105-47.417 21.998-74.783-0.982-6.838-3.917-7.814-8.797-2.934-4.893 27.366-12.225 52.291-21.998 74.783z" />
<glyph unicode="&#xe901;" horiz-adv-x="6044" d="M2701.858 496.656h158.369c3.91-2.934 3.91-5.869 0-8.797h-76.253v-21.998h67.45c3.91-2.934 3.91-5.869 0-8.797h-67.45v-35.192c12.707-4.88 38.127-6.838 76.253-5.869 3.91-2.934 3.91-5.869 0-8.797-32.258-0.97-55.72 0-70.385 2.934-25.42 5.869-43.989 17.599-55.72 35.192-8.797-17.599-20.527-30.3-35.192-38.127-4.893-0.97-6.851 1.464-5.869 7.333 21.503 12.713 33.234 29.812 35.192 51.321v13.195c2.934 3.904 5.869 3.904 8.797 0v-20.527c8.797-16.623 21.503-27.86 38.127-33.728v63.058h-73.319c-3.917 2.934-3.917 5.869 0 8.797zM2734.116 574.373h87.984c10.749 0 15.641-4.893 14.665-14.665v-35.192c0.976-10.761-3.917-15.647-14.665-14.665h-87.984c-9.779-0.982-14.665 3.904-14.665 14.665v35.199c0.006 9.766 4.886 14.659 14.665 14.659zM2819.166 565.577h-82.115c-5.869 0-8.797-2.934-8.797-8.797v-8.797h99.715v7.333c0.97 6.832-1.965 10.261-8.803 10.261zM2827.962 539.181h-99.715v-11.731c0-6.851 2.934-9.779 8.797-8.797h82.115c6.838-0.982 9.773 1.952 8.797 8.797v11.731z" />
<glyph unicode="&#xe902;" horiz-adv-x="6044" d="M3103.926 525.986c10.755 0 15.641-4.893 14.665-14.665v-8.797c0.976-10.761-3.91-15.647-14.665-14.665h-55.72v-17.599h61.588c10.755 0 15.641-4.893 14.665-14.665l-1.464-24.926c-2.934-12.701-11.243-20.033-24.926-21.998-8.797-0.97-19.551 0.982-32.258 5.869-2.934 3.917-1.958 6.851 2.934 8.797 11.731-4.88 21.51-6.838 29.33-5.869 8.797 1.958 14.177 6.851 16.129 14.665l1.464 20.527c0.976 5.869-1.958 8.797-8.797 8.797h-58.654v-52.792c-2.934-4.88-5.869-4.88-8.797 0v46.923c-16.617-20.527-43.013-36.656-79.181-48.387-5.869 0.982-6.851 3.917-2.934 8.797 34.21 10.761 59.63 25.902 76.247 45.459h-55.72c-9.779-0.982-14.665 3.904-14.665 14.665v5.869c0 9.773 4.88 14.665 14.665 14.665h61.582v20.527h-73.313c-3.917 2.934-3.917 5.869 0 8.797h137.823zM2983.691 578.772c3.91 2.934 6.838 1.952 8.797-2.934-0.982-4.893-2.453-8.797-4.398-11.731h54.249c4.886-2.934 4.886-5.869 0-8.797h-30.788c1.952-5.869 2.934-13.195 2.934-21.998-2.934-5.869-5.869-6.363-8.797-1.464 0 7.814-0.982 15.635-2.934 23.462h-17.599c-3.917-8.797-10.755-16.623-20.527-23.462-4.893-0.982-6.851 0.97-5.869 5.869 13.683 10.749 21.998 24.431 24.932 41.055zM3039.41 487.86h-58.654c-5.869 0-8.797-2.453-8.797-7.333v-2.934c0-5.869 2.934-8.315 8.797-7.333h58.654v17.599zM3061.402 578.772c3.91 3.904 6.845 3.416 8.797-1.464-0.976-2.934-2.446-7.333-4.398-13.195h58.654c4.886-2.934 4.886-5.869 0-8.797h-35.192c1.958-6.851 2.934-14.183 2.934-21.998-2.934-4.893-5.869-4.893-8.797 0 0 6.838-0.976 14.171-2.934 21.998h-17.599c-5.869-10.761-11.731-19.063-17.599-24.926-5.869-1.958-8.309 0-7.333 5.869 10.761 9.76 18.582 23.937 23.468 42.512zM3100.992 517.19h-52.792v-20.527h52.792c6.845-0.982 9.779 1.952 8.797 8.797v2.934c0.982 5.862-1.952 8.797-8.797 8.797z" />
<glyph unicode="&#xe903;" horiz-adv-x="6044" d="M3225.927 438.002h158.369c5.869-2.934 5.869-5.869 0-8.797h-158.369c-5.862 2.934-5.862 5.869 0 8.797zM3239.128 558.244h133.437c4.886-2.934 4.886-5.869 0-8.797h-133.437c-5.869 2.934-5.869 5.862 0 8.797z" />
<glyph unicode="&#xe904;" horiz-adv-x="6044" d="M3506.295 448.269c4.886 2.934 7.333 1.464 7.333-4.398-5.869-11.731-13.689-21.503-23.462-29.33-4.886-1.952-6.845 0-5.869 5.869 9.779 8.797 17.105 18.081 21.998 27.86zM3564.949 583.176c3.91-5.869 7.333-11.249 10.267-16.129h65.986c3.91-2.934 3.91-5.869 0-8.797h-24.926c-2.934-6.851-5.869-13.689-8.797-20.527h42.525c3.91-2.934 3.91-5.869 0-8.797h-161.297c-3.91 1.952-3.91 4.88 0 8.797h49.857c-1.958 5.869-4.886 12.701-8.797 20.527h-32.258c-3.91 2.934-3.91 5.869 0 8.797h67.45c-1.958 3.904-4.398 7.814-7.333 11.731-0.013 4.88 2.427 6.344 7.32 4.398zM3516.556 517.19h107.041c10.755-0.982 15.641-6.363 14.665-16.129v-27.86c0.976-10.761-4.398-15.647-16.129-14.665h-107.041c-9.779-0.982-14.665 3.904-14.665 14.665v27.86c0.976 10.742 6.357 16.129 16.129 16.129zM3620.669 508.387h-102.643c-5.869 0-8.797-2.934-8.797-8.797v-7.333h120.242v7.333c0.97 5.869-1.958 8.797-8.803 8.797zM3629.465 483.461h-120.242v-7.333c0-6.851 2.934-9.779 8.797-8.797h102.643c6.845-0.982 9.779 1.952 8.797 8.797v7.333zM3538.553 449.733v-26.396c0-6.838 2.934-9.773 8.797-8.797h42.525c7.821-0.97 11.243 7.333 10.267 24.926 2.934 3.904 5.869 3.904 8.797 0 1.958-23.462-3.91-34.698-17.599-33.728h-46.923c-9.779-0.97-14.665 3.917-14.665 14.665v29.33c2.934 3.904 5.869 3.904 8.803 0zM3606.004 558.244h-67.45c2.934-5.869 5.869-12.713 8.797-20.527h49.857c3.91 6.838 6.845 13.677 8.797 20.527zM3564.949 452.667c6.845-10.761 11.243-20.046 13.195-27.86-1.958-4.88-4.886-5.368-8.797-1.464-2.934 7.827-6.845 16.129-11.731 24.926 0 4.88 2.44 6.35 7.333 4.398zM3620.669 452.667c12.707-11.731 23.462-22.967 32.258-33.728 0.976-6.838-1.464-8.797-7.333-5.869-8.797 9.779-19.063 20.527-30.794 32.258-2.928 5.875-0.976 8.309 5.869 7.339z" />
<glyph unicode="&#xe905;" horiz-adv-x="6044" d="M3833.581 540.651v-27.86c-0.976-53.774-28.348-89.448-82.115-107.041-4.886 1.958-5.869 4.893-2.934 8.797 48.881 16.623 74.295 49.363 76.253 98.244v27.86c2.934 3.904 5.862 3.904 8.797 0zM3786.658 572.909h86.514c11.731 0 17.105-5.381 16.129-16.129v-92.382c-2.934-3.917-5.869-3.917-8.797 0v90.912c0.976 5.869-1.958 8.797-8.797 8.797h-82.115c-5.869 0-8.797-2.934-8.797-8.797v-93.846c-2.934-3.917-5.869-3.917-8.797 0v95.316c-0.006 10.749 4.886 16.129 14.659 16.129zM3845.312 493.728v-67.45c0-6.838 3.91-9.773 11.731-8.797h33.728c8.797-0.97 13.195 9.779 13.195 32.258 2.934 3.904 5.869 3.904 8.797 0 0-29.33-6.845-43.007-20.527-41.061h-38.127c-11.731-0.97-17.599 3.917-17.599 14.665v70.385c2.941 4.88 5.869 4.88 8.803 0z" />
<glyph unicode="&#xe906;" horiz-adv-x="6044" d="M4080.221 578.772c3.91 3.904 6.845 3.416 8.797-1.464l-5.869-24.926h85.050c3.91-2.934 3.91-5.869 0-8.797h-86.514l-7.333-29.33h102.643c4.886-2.934 4.886-5.869 0-8.797h-105.571l-5.869-17.599c-1.958-6.851 0.976-9.779 8.797-8.797h58.654c17.599-0.982 22.486-6.851 14.665-17.599-13.689-13.689-26.396-23.956-38.127-30.794l42.525-14.665c3.91-4.88 2.934-7.814-2.934-8.797-37.151 12.713-67.938 22.98-92.382 30.794-4.886 3.904-4.398 6.838 1.464 8.797 10.755-2.934 24.438-7.333 41.061-13.195 16.617 10.749 29.33 20.527 38.127 29.33 4.886 4.88 2.446 7.333-7.333 7.333h-58.654c-13.689-0.982-18.575 4.88-14.665 17.599l5.869 17.599h-52.792c-4.886 2.934-4.886 5.869 0 8.797h55.72l7.333 29.33h-51.321c-3.91 2.934-3.91 5.869 0 8.797h52.792l5.869 26.383z" />
<glyph unicode="&#xe907;" horiz-adv-x="6044" d="M4386.98 487.86c15.641-35.192 34.704-55.72 57.19-61.588 2.934-5.869 1.958-8.797-2.934-8.797-25.42 5.869-46.435 27.366-63.052 64.522l-8.797-5.869c3.91-11.731 5.374-22.492 4.398-32.258 0.976-20.527-7.333-33.234-24.926-38.127-9.779-2.934-21.51-1.464-35.192 4.398-1.958 4.893-0.488 7.827 4.398 8.797 10.755-4.88 20.527-6.35 29.33-4.398 12.707 2.934 18.575 16.623 17.599 41.061-16.617-15.647-45.459-30.3-86.514-43.989-4.886 1.958-5.374 4.893-1.464 8.797 41.061 14.665 69.897 29.812 86.514 45.459-1.958 4.88-4.398 10.267-7.333 16.129-16.617-15.647-40.567-27.86-71.849-36.656-4.886 0.97-5.869 3.416-2.934 7.333 35.192 11.731 58.654 24.431 70.385 38.127-2.934 4.88-6.357 9.773-10.267 14.665-17.599-11.731-35.68-19.558-54.256-23.462-4.886 1.952-5.374 4.88-1.464 8.797 26.396 5.869 48.881 18.081 67.45 36.656h-54.256c-4.886 2.934-4.886 5.869 0 8.797h111.446c3.91-2.934 3.91-5.869 0-8.797h-46.923c-1.958-3.917-7.333-9.291-16.129-16.129 7.821-9.779 13.689-18.582 17.599-26.396 15.641 8.797 27.372 20.033 35.192 33.728 4.886 0.97 7.333-0.982 7.333-5.869-5.881-9.785-12.726-18.094-20.546-24.932zM4356.186 580.242l4.398-17.599h61.588c17.599 0 20.527-14.183 8.797-42.525-4.886-3.917-7.821-2.934-8.797 2.934 8.797 20.527 8.797 30.794 0 30.794h-126.104c-5.869 0-8.797-2.934-8.797-8.797v-23.462c-2.934-4.893-5.869-4.893-8.797 0v24.926c0 10.749 5.374 16.129 16.129 16.129h57.19l-4.398 14.665c0.97 4.88 3.904 5.869 8.79 2.934z" />
<glyph unicode="&#xe908;" horiz-adv-x="6044" d="M853.838 537.598c-0.075 90.186-35.324 175.048-99.22 238.976-64.053 63.991-148.94 99.214-239.089 99.214-0.125 0-0.257 0-0.394 0-90.23 0-175.136-35.242-239.101-99.202-63.991-64.041-99.22-149.028-99.22-239.295 0-90.243 35.236-175.205 99.22-239.227 64.016-64.003 148.984-99.271 239.239-99.271v6.782c-88.453 0-171.714 34.542-234.447 97.294-62.702 62.721-97.237 146-97.237 234.422 0 88.459 34.542 171.732 97.25 234.484 62.683 62.702 145.893 97.237 234.303 97.237 0.131 0 0.257 0 0.388 0 88.322 0 171.526-34.529 234.284-97.237 62.633-62.645 97.162-145.812 97.237-234.484 0-85.294-32.408-166.102-91.237-228.059-5.412 3.835-12.006 6.138-19.132 6.138-18.375 0-33.303-14.947-33.303-33.278 0-18.381 14.94-33.303 33.303-33.303 18.35 0 33.272 14.953 33.272 33.303 0 8.765-3.485 16.717-9.041 22.667 59.924 63.196 92.927 145.574 92.927 232.839zM736.693 255.553c-14.627 0-26.527 11.9-26.527 26.527 0 14.615 11.9 26.496 26.527 26.496 14.615 0 26.49-11.881 26.49-26.496 0-14.621-11.875-26.527-26.49-26.527z" />
<glyph unicode="&#xe909;" horiz-adv-x="6044" d="M485.936 587.474l1.695-4.261c0.526-1.351 13.195-33.215 14.54-55.826 0.788-13.651-1.664-52.21-3.848-86.232-1.333-20.909-2.478-38.971-2.478-45.372 0-9.503 3.016-42.45 5.462-68.952 2.115-23.067 3.41-37.388 3.41-41.286 0-6.194 4.542-47.011 7.595-72.881l13.658-68.764-10.993-35.061 11.23-11.743 3.491 50.521c-1.439 8.027-8.471 48.362-7.207 62.295 1.245 13.695 10.054 162.385 10.154 163.862l0.438 7.226h15.435l0.413-7.226c0.1-1.477 8.934-150.179 10.167-163.862 1.308-14.49-2.759-59.661-2.953-61.588l0.325-51.152 11.036 10.623-8.746 36.369 10.561 68.745c3.016 25.664 7.539 66.431 7.539 72.618 0 3.898 1.295 18.219 3.422 41.292 2.465 26.465 5.487 59.448 5.487 68.946 0 6.4-1.164 24.413-2.484 45.296-2.196 34.035-4.667 72.637-3.873 86.295 1.32 22.611 13.983 54.475 14.515 55.813l1.702 4.267 148.333 17.061c0.576 0.050 14.897 0.632 25.952 0.632 9.241 0 12.037-0.394 13.689-0.788 0.963-0.244 2.040-0.669 3.247-1.283 0.601 1.833 1.627 3.992 3.166 6.519l-0.2-0.006c-0.632-0.031-70.823-3.829-93.715-2.521l-22.561 1.195c-52.041 2.74-103.343 5.524-109.356 6.513-12.306 2.040-14.809 19.839-15.316 27.391l-0.106 1.658 0.594 1.564c1.132 3.047 5.449 13.332 12.701 16.924 0.563 0.594 1.502 4.548 0.1 8.065l-3.285 8.183 0.213 1.933c0.394 3.779 0.231 14.997-5.243 21.103-2.872 3.185-6.97 4.711-12.55 4.711h-0.945c-5.581 0-9.697-1.527-12.557-4.711-5.487-6.1-5.637-17.33-5.255-21.14l0.188-1.896-3.26-8.158c-1.414-3.522-0.45-7.495 0.332-8.215 7.013-3.435 11.343-13.689 12.475-16.767l0.601-1.558-0.113-1.67c-0.513-7.564-3.041-25.351-15.347-27.391-6-0.989-57.346-3.779-109.425-6.519l-22.448-1.189z" />
<glyph unicode="&#xe90a;" horiz-adv-x="6044" d="M571.642 587.474l-1.708-4.261c-0.526-1.351-13.195-33.215-14.527-55.826-0.788-13.651 1.664-52.21 3.835-86.232 1.339-20.909 2.49-38.971 2.49-45.372 0-9.503-3.022-42.45-5.462-68.952-2.127-23.067-3.422-37.388-3.422-41.286 0-6.194-4.542-47.011-7.589-72.881l-13.664-68.764 10.993-35.061-11.224-11.743-3.485 50.521c1.433 8.027 8.465 48.362 7.195 62.295-1.245 13.695-10.054 162.385-10.148 163.862l-0.432 7.232h-15.435l-0.425-7.22c-1.27-20.771 7.921-138.167 5.606-163.862-1.295-14.496-13.001-59.674-12.819-61.588l-0.332-51.165-11.036 10.623 8.753 36.369-21.178 65.755c-3.016 25.664 3.097 69.459 3.097 75.653 0 3.885-1.32 18.219-3.447 41.28-2.453 26.477-5.474 59.448-5.474 68.952 0 6.388 1.157 24.4 2.484 45.284 2.196 34.041 4.667 72.643 3.866 86.301-1.32 22.611-13.989 54.475-14.509 55.813l-1.702 4.267-148.34 17.049c-0.576 0.050-14.897 0.632-25.939 0.632-9.253 0-12.050-0.394-13.689-0.788-0.963-0.238-2.040-0.669-3.235-1.276-0.632 1.833-1.633 3.985-3.166 6.519l0.2-0.006c0.626-0.038 70.81-3.835 93.709-2.528l22.567 1.195c52.035 2.74 103.337 5.524 109.35 6.513 12.306 2.040 14.815 19.845 15.316 27.391l0.119 1.658-0.594 1.564c-1.145 3.053-5.462 13.332-12.713 16.924-0.551 0.594-1.502 4.548-0.088 8.065l3.272 8.183-0.213 1.933c-0.394 3.779-0.231 15.003 5.243 21.103 2.872 3.185 6.97 4.711 12.563 4.711h0.951c5.568 0 9.679-1.527 12.538-4.711 5.493-6.1 5.637-17.33 5.268-21.14l-0.2-1.896 3.26-8.158c1.42-3.522 0.438-7.495-0.344-8.221-7.001-3.435-11.33-13.689-12.463-16.767l-0.601-1.558 0.119-1.67c0.507-7.564 3.034-25.357 15.328-27.397 6.012-0.989 57.371-3.773 109.437-6.519l22.448-1.189z" />
<glyph unicode="&#xe90b;" horiz-adv-x="6044" d="M550.809 587.474l-1.708-4.261c-0.532-1.351-13.182-33.215-14.534-55.826-0.788-13.651 1.67-52.21 3.841-86.232 1.333-20.909 2.478-38.971 2.478-45.372 0-9.503-3.009-42.45-5.462-68.952-2.127-23.067-3.41-37.388-3.41-41.286 0-6.194-4.542-47.011-7.589-72.881l-13.658-68.764 10.986-35.061-11.23-11.743-3.491 50.521c1.439 8.027 8.471 48.362 7.207 62.295-1.245 13.695-10.054 162.385-10.154 163.862l-0.425 7.232h-15.447l-0.413-7.22c-0.1-1.489-8.934-150.179-10.16-163.862-1.308-14.496 2.765-59.674 2.959-61.588l-0.332-51.165-11.043 10.623 8.746 36.369-10.561 68.727c-3.009 25.67-7.526 66.437-7.526 72.637 0 3.885-1.308 18.219-3.435 41.286-2.459 26.471-5.487 59.436-5.487 68.952 0 6.388 1.176 24.406 2.484 45.284 2.196 34.035 4.667 72.637 3.873 86.295-1.32 22.611-13.971 54.475-14.515 55.813l-1.702 4.267-148.333 17.086c-0.576 0.050-14.909 0.632-25.952 0.632-9.241 0-12.044-0.394-13.689-0.788-0.976-0.244-2.040-0.669-3.241-1.283-0.607 1.833-1.633 3.992-3.172 6.519l0.206-0.006c0.626-0.031 70.816-3.829 93.709-2.521l22.561 1.195c52.035 2.74 103.362 5.524 109.356 6.513 12.306 2.040 14.815 19.839 15.316 27.391l0.106 1.658-0.588 1.564c-1.139 3.047-5.449 13.332-12.707 16.924-0.563 0.594-1.502 4.548-0.094 8.065l3.285 8.183-0.213 1.933c-0.4 3.779-0.238 15.003 5.237 21.103 2.872 3.185 6.97 4.711 12.557 4.711h0.951c5.568 0 9.685-1.527 12.544-4.711 5.487-6.1 5.65-17.337 5.255-21.14l-0.188-1.896 3.266-8.158c1.414-3.522 0.432-7.495-0.338-8.215-7.026-3.435-11.343-13.689-12.482-16.767l-0.607-1.558 0.119-1.677c0.513-7.564 3.034-25.351 15.347-27.391 6.006-0.989 57.359-3.779 109.431-6.519l22.436-1.189z" />
<glyph unicode="&#xe90c;" horiz-adv-x="6044" d="M929.797 680.72c-0.563 4.542-2.259 8.696-6.044 14.546 13.983-1.695 44.020-1.695 71.035 1.695 26.064 3.216 36.644 5.481 47.23 9.447 3.397-6.044 9.253-13.789 11.706-16.436 2.271-2.465 1.326-3.779-0.938-3.222-7.558 1.702-11.9 2.083-20.027 1.333-12.657-1.333-23.993-2.465-34.385-3.222v-17.374c38.921 0 58.191 0.382 73.682 1.326v-14.934c-15.115 1.139-34.198 1.32-57.434 1.32 13.795-17.937 33.065-28.148 63.672-31.363-4.724-5.662-8.496-13.22-10.017-18.513-9.259 3.022-17.38 6.419-24.757 10.204-0.375-3.016-0.563-7.17-0.563-13.789v-40.248c0-8.496 0.188-15.679 0.945-23.612h-16.623v11.143h-74.063v-13.414h-15.873c0.576 8.69 0.757 15.115 0.757 23.599v42.512c0 4.905-0.181 8.496-0.375 11.712-6.238-3.591-13.032-6.988-20.784-10.392-3.779 5.668-7.176 9.453-13.032 13.226 25.883 7.551 39.484 15.866 67.444 39.103-24.569 0.188-44.020-0.382-59.893-1.508v14.934c15.297-0.945 34.010-1.326 71.792-1.326v16.054c-22.279-1.858-39.096-2.615-53.455-2.803zM941.885 615.922h41.374v37.407c-14.165-16.63-26.446-27.96-41.374-37.407zM1027.285 603.829h-74.063v-14.728h74.063v14.728zM1027.285 576.432h-74.063v-14.728h74.063v14.728zM998.386 655.212v-39.284h43.82c-18.694 10.017-32.114 23.049-40.798 39.284h-3.022z" />
<glyph unicode="&#xe90d;" horiz-adv-x="6044" d="M1151.437 624.994c-6.794 5.662-20.408 14.54-28.898 18.125l9.447 13.038c9.447-5.293 20.59-11.524 28.898-17.38l-9.447-13.783zM1151.249 572.096c-2.271-9.823-4.73-20.784-6.807-32.496-6.988 5.293-13.42 9.253-19.833 11.712 4.911 7.558 9.253 17.762 12.844 27.766 4.154 12.1 7.37 24.181 8.315 32.308 3.403-4.73 8.121-7.37 13.789-9.253-2.453-7.752-5.287-18.144-8.309-30.037zM1157.105 670.14c-6.619 6.988-16.254 14.358-25.501 19.839l10.204 12.281c9.253-5.869 17.568-12.094 25.126-18.325l-9.829-13.795zM1267.625 619.695c6.413-4.536 18.688-9.253 28.717-9.253-6.050-5.481-9.059-10.78-10.029-17.193-8.872 3.216-18.513 8.69-26.64 15.866-0.175-5.093-0.375-9.635-0.375-15.109 0-6.801 0.375-14.934 0.745-19.839-7.376 0.382-13.22 0.751-21.153 0.751h-35.899v-11.893c0-6.238 1.139-8.315 8.496-8.502 10.017-0.382 23.424-0.382 39.672 0.569 10.573 0.576 15.691 4.542 16.448 20.59 2.252-3.579 8.69-6.413 16.048-8.309-6.050-21.729-10.961-25.32-31.376-25.889-17.186-0.563-30.6-0.751-40.798-0.375-19.839 0.751-22.486 3.585-22.486 13.601v50.821c-5.099-4.342-11.524-9.447-17.95-13.977-2.834 4.342-6.231 7.745-10.767 10.774 8.127 3.973 13.426 7.37 22.855 15.297 9.253 7.745 14.728 13.22 18.325 18.513-11.143 0-27.209-0.382-35.705-1.32v15.679c8.302-0.932 23.418-1.695 34.204-1.695v22.861c-8.884-0.188-19.845-0.576-26.252-1.514v15.873c6.407-0.945 17.368-1.514 26.252-1.702-0.188 13.983-0.576 18.901-1.333 22.486 5.487-0.757 10.786-1.132 17.38-1.132 3.009 0 3.397-1.514 0.757-3.022-1.702-0.938-2.465-2.828-2.465-4.724v-13.608h25.889c0 15.115-0.576 20.027-1.32 23.812 5.474-0.751 10.767-1.139 17.362-1.139 3.591 0 3.397-1.695 0.757-3.216-1.695-0.938-2.459-2.834-2.459-4.724v-14.734c9.447 0.188 22.292 0.757 29.28 1.702v-15.873c-6.988 0.938-19.833 1.326-29.28 1.514v-22.861c11.136 0 27.203 0.569 35.887 1.695v-15.679c-9.635 0.938-25.507 1.32-36.462 1.32 3.66-7.37 8.578-12.844 13.677-16.442zM1239.859 636.13h-23.243c-4.911-6.988-10.21-13.414-18.694-22.292 18.513-0.757 38.346-0.569 56.683 0.175-7.195 7.758-11.912 14.94-14.746 22.116zM1203.009 586.824h43.082v15.497h-43.082v-15.497zM1240.228 648.793v22.867h-25.889v-22.861l25.889-0.006z" />
<glyph unicode="&#xe90e;" horiz-adv-x="6044" d="M1404.622 679.775c-20.59 0-40.998-0.394-55.551-1.32v17.193c15.873-1.333 37.795-2.265 80.489-2.265 48.356 0 64.604 0.751 81.221 2.265v-17.193c-12.281 0.932-27.209 1.32-58.003 1.32v-26.070c15.866 0 33.441 0.569 43.082 1.32-0.757-5.093-1.151-14.928-1.151-21.347v-45.34c0-17.193 0.757-35.705 1.695-46.667h-17.193v13.601h-100.703v-16.817h-16.817c0.745 10.955 1.502 32.684 1.502 49.876v45.34c0 6.419-0.563 16.442-1.132 21.347 9.629-0.751 26.452-1.32 42.5-1.32v26.077h0.063zM1418.598 640.673c-0.751-28.723-9.253-42.694-25.495-58.76-2.265 3.216-8.133 7.745-12.65 9.635 16.436 12.281 23.612 25.689 24.175 49.125h-26.070v-71.98h100.703v71.98h-26.452v-29.092c0-9.253 4.329-10.767 20.978-7.17-1.902-4.911-2.465-9.823-2.271-14.365-5.086-0.375-16.436-0.563-21.153-0.375-8.703 0.375-11.718 4.536-11.718 13.22v37.782h-20.046zM1438.625 679.775h-20.027v-26.070h20.027v26.070z" />
<glyph unicode="&#xe90f;" horiz-adv-x="6044" d="M1685.591 635.004c7.551 0 14.728 0.382 19.27 0.938l-6.056-68.952c-1.695-20.214-5.299-24.75-36.85-29.662-0.932 7.376-5.474 16.060-12.281 22.861 22.098-5.099 30.419-0.757 31.739 10.017l5.869 50.064h-51.966c-4.724-37.032-14.728-53.467-46.842-82.184-3.979 6.801-10.78 11.143-18.344 13.22 27.772 13.608 44.977 39.297 49.138 69.34 1.508 10.955 2.259 23.424 2.64 38.352-24.175-0.188-39.666-0.569-55.538-1.326v17.005c19.451-0.932 45.91-1.32 81.052-1.32 35.511 0 62.52 0.388 81.227 1.32v-17.005c-18.513 0.945-53.655 1.326-89.185 1.326-0.745-8.502-1.495-16.060-2.459-23.993h48.587zM1640.807 675.621c-1.889 8.127-6.988 19.839-10.392 25.683l20.408 6.425c1.514-6.807 5.862-17.95 9.823-24.938l-19.839-7.17z" />
<glyph unicode="&#xe910;" horiz-adv-x="6044" d="M1869.242 543.373c-55.157 0-65.373 0-76.322-0.938 0.757 7.37 1.132 20.778 1.132 32.308v90.487c0 11.149-0.375 25.507-1.132 32.877 10.949-1.514 20.771-2.265 76.322-2.265 50.252 0 61.025 0.751 71.805 2.265v-16.442c-6.419 0.569-20.59 1.139-50.821 1.139h-80.858v-125.26h84.831c30.613 0 37.407 0.569 47.987 2.077v-17.193c-10.774 0.945-17.405 0.945-72.944 0.945zM1935.372 624.606v-15.866c-14.728 1.139-27.766 1.695-54.406 1.695-6.988-22.292-20.408-33.24-49.319-46.285-3.397 4.342-7.17 8.315-12.281 12.469 26.077 9.447 39.678 17.943 46.285 33.816-20.784-0.188-35.142-0.757-47.812-1.695v15.497c13.608-0.751 28.723-1.139 51.39-1.32 1.32 6.982 2.077 15.115 2.259 24.744h-25.683c-3.022-5.293-6.619-11.143-9.453-15.866-4.542 1.889-10.392 3.403-14.928 3.779 11.143 8.496 20.972 28.148 22.091 41.937 5.105-1.32 12.281-2.646 17.017-3.21 1.695-0.188 1.695-0.576-0.569-2.465-0.945-0.938-3.41-4.542-6.988-11.149 61.964 0 68.583 0.188 75.377 0.757v-14.54c-6.231 0.569-17.568 0.751-28.529 0.751h-12.475c-0.745-9.453-1.883-17.574-3.203-24.744 24.588 0.006 37.057 0.569 51.228 1.695zM1922.327 564.538c-12.281 10.767-25.883 19.451-41.561 27.397l7.17 10.767c17.005-7.558 34.022-16.623 44.402-24.181l-10.010-13.983z" />
<glyph unicode="&#xe911;" horiz-adv-x="6044" d="M2170.038 688.847v-17.186c-10.767 0.932-24.375 1.502-66.869 1.502h-54.037c0.175-80.295-4.542-105.421-26.821-136.596-5.299 4.911-10.774 9.072-16.26 10.961 17.193 16.817 24 33.447 26.646 66.124-9.066-5.481-20.784-13.038-27.966-18.331-1.695 6.238-3.585 11.893-6.419 18.331 11.718 3.21 25.495 8.496 35.324 14.171 0.576 16.817 0.188 37.407-1.514 61.025 9.253-0.938 24.938-1.695 59.886-1.896-1.32 6.050-2.997 12.281-5.287 18.338l19.445 2.071c0.745-6.231 2.077-12.65 3.979-20.408 37.232 0 49.688 0.757 59.893 1.896zM2007.752 634.623c0 12.657-1.32 23.812-3.016 34.955l14.922 1.896c0.938-10.78 2.271-22.486 4.154-34.385l-16.060-2.465zM2120.161 612.894v-56.301c0-14.171-1.695-16.436-33.24-20.402-0.394 6.801-3.022 13.414-8.709 19.27 23.987-1.145 25.145-0.388 25.145 6.988v26.070c0 11.712-1.333 25.883-2.834 30.406 10.774 4.724 21.347 11.149 34.385 20.214-35.543 0-58.773-0.388-74.063-2.077v16.817c14.358-1.139 26.815-1.502 52.141-1.502 29.649 0 42.881 0.745 50.445 1.502v-16.617c-8.127-2.065-15.497-5.856-43.269-24.369z" />
<glyph unicode="&#xe912;" horiz-adv-x="6044" d="M944.719 277.331h-16.617c1.32 10.78 2.077 24.375 2.077 40.798v61.207c-5.293-9.253-10.961-18.325-15.679-25.307-2.653 4.329-6.807 8.69-11.343 12.1 8.127 7.17 16.817 18.901 25.883 41.937 5.293 13.426 9.253 27.215 10.204 37.207 6.619-2.634 11.718-4.154 17.95-5.474 3.973-0.757 4.73-2.259 0.188-5.668-1.508-1.32-3.022-3.779-12.65-26.064v-130.734h-0.013zM1070.36 361.968v-14.534c-11.524 0.932-23.812 1.508-41.374 1.695 14.734-26.652 26.821-34.567 51.759-40.448-5.093-4.142-10.386-11.887-13.22-18.119-23.424 10.78-38.17 30.231-46.473 58.566h-1.139v-41.374c0-8.49 0.757-19.845 1.896-30.231h-18.331c1.139 10.035 1.695 18.901 1.695 30.231v41.361h-0.938c-8.502-26.252-18.707-41.755-40.798-62.927-3.222 3.222-7.376 6.413-15.309 10.017 20.214 14.728 37.038 33.822 44.783 52.735-16.060-0.188-27.209-0.757-38.17-1.508v14.534c13.601-0.932 27.391-1.495 50.445-1.695v23.23c-16.817 0-24.563-0.175-33.253-0.745 0.569 6.988 0.757 14.728 0.757 27.766 0 9.253-0.188 21.159-0.757 28.154 10.774-0.945 19.082-1.157 42.881-1.157 20.602 0 31.551 0.394 42.325 1.157-0.569-6.995-0.757-18.901-0.757-28.154s0.188-20.778 0.757-27.766c-9.253 0.745-19.839 0.745-37.219 0.745v-23.23c22.667 0.188 36.838 0.763 50.439 1.695zM987.231 395.596h54.412v29.474h-54.412v-29.474z" />
<glyph unicode="&#xe913;" horiz-adv-x="6044" d="M1133.3 358.189c-2.646 4.911-5.856 9.253-9.823 13.038 6.988 8.496 11.343 15.691 16.817 29.849 3.779 9.81 9.253 32.12 10.204 42.331 5.662-2.471 9.635-3.979 15.873-5.305 3.96-0.751 4.329-1.896 1.32-4.154-1.145-0.751-2.465-3.397-10.017-21.341v-135.846h-14.358c1.32 12.644 1.883 22.855 1.883 36.456v69.54c-4.724-10.774-8.121-17.568-11.9-24.569zM1191.872 366.31c-8.321-0.169-12.281-0.926-19.27-3.003-0.576 4.336-1.514 6.976-3.591 10.373 4.736 1.514 7.376 3.779 8.89 9.078l10.949 34.548c-6.988 0-11.524-0.175-15.86-0.738v12.457c8.69-0.569 21.347-0.757 31.726 0-4.717-16.817-10.379-35.53-16.048-51.572 7.37 0.394 11.718 0.751 16.048 1.32-1.32-30.8-3.397-48.556-9.816-63.478 14.177-15.303 41.367-24.012 95.986-17.768-2.834-6.244-3.973-11.343-4.342-15.873-59.517-2.077-84.074 7.564-97.675 22.292-3.967-6.413-9.066-12.644-15.497-19.845-3.216 3.016-7.176 5.487-12.469 7.564 8.884 7.17 15.303 14.358 19.845 22.848-6.982 11.143-12.106 23.424-13.983 35.524l11.718 2.471c1.32-8.703 3.779-17.011 7.939-24.744 3.172 10.404 4.867 22.686 5.449 38.546zM1283.685 353.66v-13.226c-9.447 0.945-15.873 1.333-35.142 1.333v-14.728c17.95 0 28.154 0.394 37.219 1.502v-13.22c-8.69 0.926-19.088 1.326-37.219 1.326 0.194-5.869 0.576-11.531 1.139-18.338h-13.964c0.563 6.632 0.751 12.281 0.926 18.338-11.887-0.175-19.651-0.394-26.452-1.326v13.22c6.801-0.938 14.728-1.32 26.452-1.502v14.728c-11.337-0.181-16.817-0.388-23.987-1.333v13.226c7.376-0.945 12.65-1.333 23.987-1.508v15.491c-11.337 0-17.756-0.388-23.049-0.926v12.075c5.293-0.563 11.712-0.745 23.049-0.926v15.115c-13.414 0-20.765-0.563-29.080-1.32v13.038c8.315-0.757 15.691-1.151 29.080-1.151v14.54c-10.379 0-14.728-0.181-22.667-0.938v12.45c7.376-0.563 11.531-0.745 22.667-0.92-0.175 8.872-0.563 16.035-1.32 19.451 5.474-0.757 9.066-0.938 14.552-0.938 5.28 0 5.656-1.32 1.32-3.779-1.695-0.938-2.653-4.167-2.653-7.17v-7.551c17.193 0 23.618 0.394 31.739 1.695-0.569-3.779-0.569-6.413-0.569-10.78v-16.041c6.613 0 11.524 0.382 14.552 1.139v-12.644c-3.028 0.576-8.127 0.757-14.552 0.926v-10.561c0-5.869 0.194-10.398 0.757-15.309-6.050 0.394-12.844 0.582-31.933 0.582v-15.503c19.276-0.044 25.32 0.332 35.149 1.464zM1266.68 403.536v14.552h-18.125v-14.552h18.125zM1248.543 392.95v-15.103h18.131v15.103h-18.131z" />
<glyph unicode="&#xe914;" horiz-adv-x="6044" d="M1348.889 409.204v16.254c16.254-0.932 30.613-1.502 56.114-1.695 3.973 10.029 6.988 20.765 8.127 26.458 7.551-2.64 13.608-3.973 20.784-4.905 3.779-0.563 3.96-1.883 0.563-3.973-4.717-3.009-8.309-8.309-11.706-17.581 60.631 0 70.272 0 89.548 1.695v-16.254c-21.341 1.508-35.324 1.896-95.973 1.896-3.779-7.17-7.952-13.971-12.281-20.771h33.434c19.095 0 37.407 0.569 50.646 1.902-0.757-5.312-1.514-15.291-1.514-25.689v-64.034c0-18.338-0.563-19.658-29.849-24.919-0.382 5.65-2.828 13.038-6.988 19.264 17.768-2.828 20.778-0.932 20.778 10.386v10.774h-69.158v-39.49h-17.562c1.126 9.622 1.695 19.445 1.695 27.009v59.511c-8.309-10.392-17.18-20.021-25.676-28.717-3.779 4.154-10.029 8.309-14.365 9.816 20.59 14.54 39.297 36.85 53.655 64.779-22.317-0.019-35.53-0.588-50.27-1.714zM1470.564 378.028h-69.152v-16.63h69.152v16.63zM1401.406 330.417h69.158v18.525h-69.158v-18.525z" />
<glyph unicode="&#xe915;" horiz-adv-x="6044" d="M1607.548 378.779c11.9-13.958 17.38-27.384 16.817-40.604-0.569-13.42-7.376-24.175-27.209-27.215-0.194 5.869-1.896 11.524-7.176 17.756 15.115 0 16.442 0.757 18.7 12.281 2.077 9.066-2.077 21.747-13.795 34.961l15.115 49.132h-21.729v-145.649h-15.691c0.576 17.011 0.757 28.329 0.757 44.189v97.1c0 7.17-0.569 14.728-1.32 19.67 7.17-0.938 16.254-1.514 29.655-1.514 13.22 0 21.729 0.576 28.905 1.514l-23.030-61.619zM1709.766 361.78c3.21-4.542 9.066-10.035 12.463-12.281 1.145-0.745 0.938-1.902-0.394-2.259-4.154-1.32-13.026-7.564-31.157-21.735 7.739-11.537 23.605-21.341 41.367-25.902-5.299-6.037-8.496-13.038-9.816-18.119-14.928 5.862-30.231 17.355-39.678 32.296-8.309 13.214-13.22 28.154-15.685 50.445h-14.171v-62.176c6.794 3.779 14.728 8.315 19.451 11.343 0.576-5.65 1.32-9.81 2.828-14.728l-23.806-13.608c-4.542-2.653-9.453-6.225-12.106-8.696-2.077 4.911-4.717 9.453-7.939 13.971 4.905 2.465 7.176 6.231 7.176 16.436v113.585c0 7.727-0.194 13.958-0.951 19.833 6.813-0.932 23.061-1.695 39.297-1.695 17.374 0 33.447 0.745 39.497 1.695-0.576-6.619-0.938-12.281-0.938-19.833v-36.462c0-6.050 0.388-13.426 1.145-21.165-5.668 0.751-15.303 1.32-36.85 1.495 1.32-10.017 3.591-20.202 6.056-27.572 10.598 8.127 18.356 16.448 24.212 25.132zM1652.519 427.147v-20.765h48.181v20.765h-48.181zM1652.519 395.215v-19.639h48.181v19.639h-48.181z" />
<glyph unicode="&#xe916;" horiz-adv-x="6044" d="M1851.292 430.169c-1.695-0.757-7.17-10.029-10.774-17.374-4.905-11.13-24.569-44.589-44.020-63.102-3.397 3.228-11.9 8.127-18.125 10.78 26.077 17.937 48.356 56.689 55.163 80.476 6.050-3.228 13.783-6.050 18.119-6.807 2.859-0.563 2.671-2.271-0.363-3.973zM1883.406 337.412l13.977 7.551c12.65-16.436 26.458-36.631 36.462-53.643l-18.519-10.961c-2.077 5.305-4.905 11.343-8.127 17.95-53.649-3.591-92.401-9.066-99.752-11.718-1.132 5.869-3.779 12.644-6.794 18.344 4.154 1.126 6.794 3.397 11.343 8.872 22.486 27.215 35.142 52.153 40.435 70.091 7.37-3.973 15.497-7.558 19.27-8.703 4.536-1.333 3.779-2.834-0.188-4.911-1.508-0.745-4.542-4.536-7.939-9.81-9.46-14.54-25.32-37.601-37.795-54.049l74.245 4.73c-5.274 9.253-11.124 18.519-16.617 26.258zM1938.018 350.638c-33.628 29.299-51.203 60.087-60.087 88.24 7.17 0 12.475 0.92 17.574 3.397 10.204-33.803 27.397-57.227 58.948-74.063-6.607-4.167-12.663-10.586-16.436-17.574z" />
<glyph unicode="&#xe917;" horiz-adv-x="6044" d="M2068.959 387.857c-27.384 0-41.18-0.569-59.305-1.695v16.617c18.338-1.126 32.296-1.695 59.305-1.695 29.086 0 34.961 0.175 50.445 1.695v-16.617c-16.242 1.314-21.353 1.695-50.445 1.695zM2038.359 314.169v-19.658h-17.368c1.132 8.872 2.077 21.522 2.077 30.231v24.757c0 6.807-0.582 14.934-1.333 19.651 6.238-0.745 25.895-1.32 47.417-1.32 21.528 0 36.462 0.576 42.325 1.32-0.563-3.397-1.32-11.881-1.32-19.445v-24.907c0-8.721 0.388-14.365 1.32-21.359h-16.436v10.78l-56.683-0.050zM2151.713 415.054v-117.145c0-16.611-7.37-23.418-36.268-22.667-0.576 6.619-2.271 12.288-6.425 19.27 22.861-1.695 26.258 0.175 26.258 8.484v118.678h-54.037c-37.025 0-50.064-0.388-60.087-1.145v17.005c14.552-1.326 34.56-1.695 63.478-1.695 29.074 0 53.286 0.738 67.826 1.695-0.551-5.474-0.745-9.629-0.745-22.479zM2095.036 327.77v26.652h-56.696v-26.652h56.696z" />
<glyph unicode="&#xe918;" horiz-adv-x="6044" d="M2469.883 704.194c-1.958-15.647-4.893-30.794-8.797-45.459v-121.706c-2.934-3.904-5.869-3.904-8.797 0v101.179c-3.917-9.779-9.291-18.582-16.129-26.396-4.893-0.982-6.851 0.97-5.869 5.869 16.611 23.462 26.878 52.792 30.794 87.984 3.904 3.904 6.838 3.416 8.797-1.47zM2497.742 704.194c3.91 4.88 6.838 4.398 8.797-1.464-0.982-5.869-2.453-12.713-4.398-20.527h83.579c10.749 0 15.641-5.381 14.665-16.129-0.982-7.827-3.422-15.647-7.333-23.462-4.893-2.934-7.821-1.958-8.797 2.934 9.773 18.569 9.773 27.86 0 27.86h-39.591v-121.706c-0.982-10.749-8.315-15.635-21.998-14.665-5.869 0.982-11.249 2.453-16.129 4.398-2.934 5.869-1.464 8.797 4.398 8.797 15.641-6.838 23.943-5.869 24.926 2.934v120.236h-36.656c-5.869-14.665-12.713-26.396-20.527-35.192-4.893-0.982-6.851 0.97-5.869 5.869 11.737 14.665 20.039 34.698 24.932 60.118zM2502.141 632.345c3.91 4.88 6.838 4.398 8.797-1.464-5.869-25.42-16.129-49.857-30.794-73.319-5.869-2.934-8.315-1.464-7.333 4.398 13.683 22.479 23.468 45.941 29.33 70.385zM2569.591 630.881c0.976 4.88 3.91 5.869 8.797 2.934 9.773-22.492 17.105-47.417 21.998-74.783-0.982-6.838-3.917-7.814-8.797-2.934-4.893 27.359-12.225 52.291-21.998 74.783z" />
<glyph unicode="&#xe919;" horiz-adv-x="6044" d="M2701.858 625.013h158.369c3.91-2.934 3.91-5.869 0-8.797h-76.253v-21.998h67.45c3.91-2.934 3.91-5.869 0-8.797h-67.45v-35.192c12.707-4.88 38.127-6.838 76.253-5.869 3.91-2.934 3.91-5.869 0-8.797-32.258-0.97-55.72 0-70.385 2.934-25.42 5.869-43.989 17.599-55.72 35.192-8.797-17.599-20.527-30.3-35.192-38.127-4.893-0.97-6.851 1.464-5.869 7.333 21.503 12.713 33.234 29.812 35.192 51.321v13.195c2.934 3.904 5.869 3.904 8.797 0v-20.527c8.797-16.623 21.503-27.86 38.127-33.728v63.058h-73.319c-3.917 2.934-3.917 5.862 0 8.797zM2734.116 702.73h87.984c10.749 0 15.641-4.893 14.665-14.665v-35.192c0.976-10.761-3.917-15.647-14.665-14.665h-87.984c-9.779-0.982-14.665 3.904-14.665 14.665v35.192c0.006 9.773 4.886 14.665 14.665 14.665zM2819.166 693.933h-82.115c-5.869 0-8.797-2.934-8.797-8.797v-8.797h99.715v7.333c0.97 6.832-1.965 10.261-8.803 10.261zM2827.962 667.538h-99.715v-11.731c0-6.851 2.934-9.779 8.797-8.797h82.115c6.838-0.982 9.773 1.952 8.797 8.797v11.731z" />
<glyph unicode="&#xe91a;" horiz-adv-x="6044" d="M3103.926 654.343c10.755 0 15.641-4.893 14.665-14.665v-8.797c0.976-10.761-3.91-15.647-14.665-14.665h-55.72v-17.599h61.588c10.755 0 15.641-4.893 14.665-14.665l-1.464-24.926c-2.934-12.701-11.243-20.033-24.926-21.998-8.797-0.97-19.551 0.982-32.258 5.869-2.934 3.917-1.958 6.851 2.934 8.797 11.731-4.88 21.51-6.838 29.33-5.869 8.797 1.958 14.177 6.851 16.129 14.665l1.464 20.527c0.976 5.869-1.958 8.797-8.797 8.797h-58.654v-52.792c-2.934-4.88-5.869-4.88-8.797 0v46.923c-16.617-20.527-43.013-36.656-79.181-48.387-5.869 0.982-6.851 3.917-2.934 8.797 34.21 10.761 59.63 25.902 76.247 45.459h-55.72c-9.779-0.982-14.665 3.904-14.665 14.665v5.869c0 9.773 4.88 14.665 14.665 14.665h61.582v20.527h-73.313c-3.917 2.934-3.917 5.869 0 8.797h137.823zM2983.691 707.128c3.91 2.934 6.838 1.952 8.797-2.934-0.982-4.893-2.453-8.797-4.398-11.731h54.249c4.886-2.934 4.886-5.869 0-8.797h-30.788c1.952-5.869 2.934-13.195 2.934-21.998-2.934-5.869-5.869-6.363-8.797-1.464 0 7.814-0.982 15.635-2.934 23.462h-17.599c-3.917-8.797-10.755-16.623-20.527-23.462-4.893-0.982-6.851 0.97-5.869 5.869 13.683 10.742 21.998 24.431 24.932 41.055zM3039.41 616.216h-58.654c-5.869 0-8.797-2.453-8.797-7.333v-2.934c0-5.869 2.934-8.315 8.797-7.333h58.654v17.599zM3061.402 707.128c3.91 3.904 6.845 3.416 8.797-1.464-0.976-2.934-2.446-7.333-4.398-13.195h58.654c4.886-2.934 4.886-5.869 0-8.797h-35.192c1.958-6.851 2.934-14.183 2.934-21.998-2.934-4.893-5.869-4.893-8.797 0 0 6.838-0.976 14.171-2.934 21.998h-17.599c-5.869-10.761-11.731-19.063-17.599-24.926-5.869-1.958-8.309 0-7.333 5.869 10.761 9.76 18.582 23.931 23.468 42.512zM3100.992 645.54h-52.792v-20.527h52.792c6.845-0.982 9.779 1.952 8.797 8.797v2.934c0.982 5.869-1.952 8.797-8.797 8.797z" />
<glyph unicode="&#xe91b;" horiz-adv-x="6044" d="M3225.927 566.359h158.369c5.869-2.934 5.869-5.869 0-8.797h-158.369c-5.862 2.934-5.862 5.862 0 8.797zM3239.128 686.601h133.437c4.886-2.934 4.886-5.869 0-8.797h-133.437c-5.869 2.928-5.869 5.862 0 8.797z" />
<glyph unicode="&#xe91c;" horiz-adv-x="6044" d="M2455.218 351.395c4.88 2.934 7.333 1.464 7.333-4.398-5.869-11.731-13.689-21.503-23.462-29.33-4.893-1.952-6.851 0-5.869 5.869 9.779 8.797 17.105 18.075 21.998 27.86zM2513.871 486.296c3.91-5.869 7.333-11.249 10.267-16.129h65.986c3.91-2.934 3.91-5.869 0-8.797h-24.926c-2.934-6.851-5.869-13.689-8.797-20.527h42.525c3.91-2.934 3.91-5.869 0-8.797h-161.303c-3.917 1.952-3.917 4.88 0 8.797h49.857c-1.958 5.869-4.893 12.701-8.797 20.527h-32.258c-3.917 2.934-3.917 5.869 0 8.797h67.45c-1.958 3.904-4.398 7.814-7.333 11.731-0.006 4.88 2.434 6.35 7.326 4.398zM2465.484 420.309h107.041c10.749-0.982 15.641-6.363 14.665-16.129v-27.86c0.976-10.761-4.398-15.647-16.129-14.665h-107.041c-9.779-0.982-14.665 3.904-14.665 14.665v27.86c0.97 10.749 6.344 16.129 16.129 16.129zM2569.591 411.513h-102.643c-5.869 0-8.797-2.934-8.797-8.797v-7.333h120.242v7.333c0.97 5.862-1.958 8.797-8.803 8.797zM2578.394 386.587h-120.242v-7.333c0-6.851 2.934-9.779 8.797-8.797h102.643c6.838-0.982 9.773 1.952 8.797 8.797v7.333zM2487.476 352.859v-26.396c0-6.838 2.934-9.773 8.797-8.797h42.525c7.814-0.97 11.237 7.333 10.267 24.926 2.934 3.904 5.869 3.904 8.797 0 1.952-23.462-3.917-34.698-17.599-33.728h-46.923c-9.779-0.97-14.665 3.917-14.665 14.665v29.33c2.941 3.904 5.875 3.904 8.803 0zM2554.932 461.37h-67.45c2.934-5.869 5.869-12.713 8.797-20.527h49.857c3.904 6.832 6.838 13.677 8.797 20.527zM2513.871 355.793c6.838-10.761 11.237-20.046 13.195-27.86-1.958-4.88-4.893-5.368-8.797-1.464-2.934 7.827-6.851 16.129-11.731 24.926 0 4.88 2.44 6.344 7.333 4.398zM2569.591 355.793c12.707-11.731 23.462-22.967 32.258-33.728 0.976-6.838-1.464-8.797-7.333-5.869-8.797 9.779-19.063 20.527-30.794 32.258-2.928 5.869-0.976 8.309 5.869 7.339z" />
<glyph unicode="&#xe91d;" horiz-adv-x="6044" d="M2782.509 443.771v-27.86c-0.982-53.774-28.354-89.448-82.115-107.041-4.893 1.958-5.869 4.893-2.934 8.797 48.875 16.623 74.295 49.363 76.253 98.244v27.86c2.928 3.904 5.862 3.904 8.797 0zM2735.586 476.035h86.514c11.731 0 17.105-5.381 16.129-16.129v-92.382c-2.934-3.917-5.869-3.917-8.797 0v90.912c0.976 5.869-1.958 8.797-8.797 8.797h-82.115c-5.869 0-8.797-2.934-8.797-8.797v-93.846c-2.934-3.917-5.869-3.917-8.797 0v95.31c-0.006 10.749 4.874 16.135 14.659 16.135zM2794.24 396.848v-67.45c0-6.838 3.91-9.773 11.731-8.797h33.728c8.797-0.97 13.195 9.779 13.195 32.258 2.934 3.904 5.869 3.904 8.797 0 0-29.33-6.851-43.007-20.527-41.061h-38.127c-11.731-0.97-17.599 3.917-17.599 14.665v70.385c2.934 4.886 5.869 4.886 8.803 0z" />
<glyph unicode="&#xe91e;" horiz-adv-x="6044" d="M3029.144 481.897c3.91 3.904 6.845 3.416 8.797-1.464l-5.869-24.926h85.050c3.91-2.934 3.91-5.869 0-8.797h-86.514l-7.326-29.33h102.643c4.886-2.934 4.886-5.869 0-8.797h-105.577l-5.869-17.599c-1.958-6.851 0.976-9.779 8.797-8.797h58.654c17.599-0.982 22.486-6.851 14.665-17.599-13.689-13.689-26.396-23.956-38.127-30.794l42.525-14.665c3.91-4.88 2.934-7.814-2.934-8.797-37.151 12.713-67.938 22.98-92.376 30.794-4.893 3.904-4.398 6.838 1.464 8.797 10.749-2.934 24.438-7.333 41.055-13.195 16.617 10.749 29.33 20.527 38.127 29.33 4.886 4.88 2.446 7.333-7.333 7.333h-58.654c-13.689-0.982-18.582 4.88-14.665 17.599l5.869 17.599h-52.792c-4.893 2.934-4.893 5.869 0 8.797h55.72l7.333 29.33h-51.321c-3.917 2.934-3.917 5.869 0 8.797h52.792l5.869 26.383z" />
<glyph unicode="&#xe91f;" horiz-adv-x="6044" d="M3335.902 390.985c15.641-35.192 34.704-55.72 57.19-61.588 2.934-5.869 1.958-8.797-2.934-8.797-25.42 5.869-46.435 27.366-63.052 64.522l-8.797-5.869c3.91-11.731 5.374-22.492 4.398-32.258 0.976-20.527-7.333-33.234-24.926-38.127-9.779-2.934-21.51-1.464-35.192 4.398-1.958 4.893-0.488 7.827 4.398 8.797 10.755-4.88 20.527-6.35 29.33-4.398 12.707 2.934 18.575 16.623 17.599 41.061-16.617-15.647-45.459-30.3-86.514-43.989-4.886 1.958-5.374 4.893-1.464 8.797 41.061 14.665 69.897 29.812 86.514 45.459-1.958 4.88-4.398 10.267-7.333 16.129-16.617-15.647-40.567-27.86-71.849-36.656-4.886 0.97-5.869 3.416-2.934 7.333 35.192 11.731 58.654 24.431 70.385 38.127-2.934 4.88-6.357 9.773-10.267 14.665-17.599-11.731-35.68-19.558-54.256-23.462-4.886 1.952-5.374 4.88-1.464 8.797 26.396 5.869 48.881 18.081 67.45 36.656h-54.256c-4.886 2.934-4.886 5.869 0 8.797h111.446c3.91-2.934 3.91-5.869 0-8.797h-46.923c-1.958-3.917-7.333-9.291-16.129-16.129 7.821-9.779 13.689-18.582 17.599-26.396 15.641 8.797 27.372 20.033 35.192 33.728 4.886 0.97 7.333-0.982 7.333-5.869-5.881-9.785-12.726-18.094-20.546-24.932zM3305.108 483.361l4.398-17.599h61.588c17.599 0 20.527-14.183 8.797-42.525-4.886-3.917-7.821-2.934-8.797 2.934 8.797 20.527 8.797 30.794 0 30.794h-126.104c-5.869 0-8.797-2.934-8.797-8.797v-23.462c-2.934-4.893-5.869-4.893-8.797 0v24.926c0 10.749 5.374 16.129 16.129 16.129h57.19l-4.398 14.665c0.97 4.886 3.904 5.869 8.79 2.934z" />
<glyph unicode="&#xe920;" horiz-adv-x="6044" d="M853.838 537.598c-0.075 90.186-35.324 175.048-99.22 238.976-64.053 63.991-148.94 99.214-239.089 99.214-0.125 0-0.257 0-0.394 0-90.23 0-175.136-35.242-239.101-99.202-63.991-64.041-99.22-149.028-99.22-239.295 0-90.243 35.236-175.205 99.22-239.227 64.016-64.003 148.984-99.271 239.239-99.271v6.782c-88.453 0-171.714 34.542-234.447 97.294-62.702 62.721-97.237 146-97.237 234.422 0 88.459 34.542 171.732 97.25 234.484 62.683 62.702 145.893 97.237 234.303 97.237 0.131 0 0.257 0 0.388 0 88.322 0 171.526-34.529 234.284-97.237 62.633-62.645 97.162-145.812 97.237-234.484 0-85.294-32.408-166.102-91.237-228.059-5.412 3.835-12.006 6.138-19.132 6.138-18.375 0-33.303-14.947-33.303-33.278 0-18.381 14.94-33.303 33.303-33.303 18.35 0 33.272 14.953 33.272 33.303 0 8.765-3.485 16.717-9.041 22.667 59.924 63.196 92.927 145.574 92.927 232.839zM736.693 255.553c-14.627 0-26.527 11.9-26.527 26.527 0 14.615 11.9 26.496 26.527 26.496 14.615 0 26.49-11.881 26.49-26.496 0-14.621-11.875-26.527-26.49-26.527z" />
<glyph unicode="&#xe921;" horiz-adv-x="6044" d="M485.936 587.474l1.695-4.261c0.526-1.351 13.195-33.215 14.54-55.826 0.788-13.651-1.664-52.21-3.848-86.232-1.333-20.909-2.478-38.971-2.478-45.372 0-9.503 3.016-42.45 5.462-68.952 2.115-23.067 3.41-37.388 3.41-41.286 0-6.194 4.542-47.011 7.595-72.881l13.658-68.764-10.993-35.061 11.23-11.743 3.491 50.521c-1.439 8.027-8.471 48.362-7.207 62.295 1.245 13.695 10.054 162.385 10.154 163.862l0.438 7.226h15.435l0.413-7.226c0.1-1.477 8.934-150.179 10.167-163.862 1.308-14.49-2.759-59.661-2.953-61.588l0.325-51.152 11.036 10.623-8.746 36.369 10.561 68.745c3.016 25.664 7.539 66.431 7.539 72.618 0 3.898 1.295 18.219 3.422 41.292 2.465 26.465 5.487 59.448 5.487 68.946 0 6.4-1.164 24.413-2.484 45.296-2.196 34.035-4.667 72.637-3.873 86.295 1.32 22.611 13.983 54.475 14.515 55.813l1.702 4.267 148.333 17.061c0.576 0.050 14.897 0.632 25.952 0.632 9.241 0 12.037-0.394 13.689-0.788 0.963-0.244 2.040-0.669 3.247-1.283 0.601 1.833 1.627 3.992 3.166 6.519l-0.2-0.006c-0.632-0.031-70.823-3.829-93.715-2.521l-22.561 1.195c-52.041 2.74-103.343 5.524-109.356 6.513-12.306 2.040-14.809 19.839-15.316 27.391l-0.106 1.658 0.594 1.564c1.132 3.047 5.449 13.332 12.701 16.924 0.563 0.594 1.502 4.548 0.1 8.065l-3.285 8.183 0.213 1.933c0.394 3.779 0.231 14.997-5.243 21.103-2.872 3.185-6.97 4.711-12.55 4.711h-0.945c-5.581 0-9.697-1.527-12.557-4.711-5.487-6.1-5.637-17.33-5.255-21.14l0.188-1.896-3.26-8.158c-1.414-3.522-0.45-7.495 0.332-8.215 7.013-3.435 11.343-13.689 12.475-16.767l0.601-1.558-0.113-1.67c-0.513-7.564-3.041-25.351-15.347-27.391-6-0.989-57.346-3.779-109.425-6.519l-22.448-1.189z" />
<glyph unicode="&#xe922;" horiz-adv-x="6044" d="M571.642 587.474l-1.708-4.261c-0.526-1.351-13.195-33.215-14.527-55.826-0.788-13.651 1.664-52.21 3.835-86.232 1.339-20.909 2.49-38.971 2.49-45.372 0-9.503-3.022-42.45-5.462-68.952-2.127-23.067-3.422-37.388-3.422-41.286 0-6.194-4.542-47.011-7.589-72.881l-13.664-68.764 10.993-35.061-11.224-11.743-3.485 50.521c1.433 8.027 8.465 48.362 7.195 62.295-1.245 13.695-10.054 162.385-10.148 163.862l-0.432 7.232h-15.435l-0.425-7.22c-1.27-20.771 7.921-138.167 5.606-163.862-1.295-14.496-13.001-59.674-12.819-61.588l-0.332-51.165-11.036 10.623 8.753 36.369-21.178 65.755c-3.016 25.664 3.097 69.459 3.097 75.653 0 3.885-1.32 18.219-3.447 41.28-2.453 26.477-5.474 59.448-5.474 68.952 0 6.388 1.157 24.4 2.484 45.284 2.196 34.041 4.667 72.643 3.866 86.301-1.32 22.611-13.989 54.475-14.509 55.813l-1.702 4.267-148.34 17.049c-0.576 0.050-14.897 0.632-25.939 0.632-9.253 0-12.050-0.394-13.689-0.788-0.963-0.238-2.040-0.669-3.235-1.276-0.632 1.833-1.633 3.985-3.166 6.519l0.2-0.006c0.626-0.038 70.81-3.835 93.709-2.528l22.567 1.195c52.035 2.74 103.337 5.524 109.35 6.513 12.306 2.040 14.815 19.845 15.316 27.391l0.119 1.658-0.594 1.564c-1.145 3.053-5.462 13.332-12.713 16.924-0.551 0.594-1.502 4.548-0.088 8.065l3.272 8.183-0.213 1.933c-0.394 3.779-0.231 15.003 5.243 21.103 2.872 3.185 6.97 4.711 12.563 4.711h0.951c5.568 0 9.679-1.527 12.538-4.711 5.493-6.1 5.637-17.33 5.268-21.14l-0.2-1.896 3.26-8.158c1.42-3.522 0.438-7.495-0.344-8.221-7.001-3.435-11.33-13.689-12.463-16.767l-0.601-1.558 0.119-1.67c0.507-7.564 3.034-25.357 15.328-27.397 6.012-0.989 57.371-3.773 109.437-6.519l22.448-1.189z" />
<glyph unicode="&#xe923;" horiz-adv-x="6044" d="M550.809 587.474l-1.708-4.261c-0.532-1.351-13.182-33.215-14.534-55.826-0.788-13.651 1.67-52.21 3.841-86.232 1.333-20.909 2.478-38.971 2.478-45.372 0-9.503-3.009-42.45-5.462-68.952-2.127-23.067-3.41-37.388-3.41-41.286 0-6.194-4.542-47.011-7.589-72.881l-13.658-68.764 10.986-35.061-11.23-11.743-3.491 50.521c1.439 8.027 8.471 48.362 7.207 62.295-1.245 13.695-10.054 162.385-10.154 163.862l-0.425 7.232h-15.447l-0.413-7.22c-0.1-1.489-8.934-150.179-10.16-163.862-1.308-14.496 2.765-59.674 2.959-61.588l-0.332-51.165-11.043 10.623 8.746 36.369-10.561 68.727c-3.009 25.67-7.526 66.437-7.526 72.637 0 3.885-1.308 18.219-3.435 41.286-2.459 26.471-5.487 59.436-5.487 68.952 0 6.388 1.176 24.406 2.484 45.284 2.196 34.035 4.667 72.637 3.873 86.295-1.32 22.611-13.971 54.475-14.515 55.813l-1.702 4.267-148.333 17.086c-0.576 0.050-14.909 0.632-25.952 0.632-9.241 0-12.044-0.394-13.689-0.788-0.976-0.244-2.040-0.669-3.241-1.283-0.607 1.833-1.633 3.992-3.172 6.519l0.206-0.006c0.626-0.031 70.816-3.829 93.709-2.521l22.561 1.195c52.035 2.74 103.362 5.524 109.356 6.513 12.306 2.040 14.815 19.839 15.316 27.391l0.106 1.658-0.588 1.564c-1.139 3.047-5.449 13.332-12.707 16.924-0.563 0.594-1.502 4.548-0.094 8.065l3.285 8.183-0.213 1.933c-0.4 3.779-0.238 15.003 5.237 21.103 2.872 3.185 6.97 4.711 12.557 4.711h0.951c5.568 0 9.685-1.527 12.544-4.711 5.487-6.1 5.65-17.337 5.255-21.14l-0.188-1.896 3.266-8.158c1.414-3.522 0.432-7.495-0.338-8.215-7.026-3.435-11.343-13.689-12.482-16.767l-0.607-1.558 0.119-1.677c0.513-7.564 3.034-25.351 15.347-27.391 6.006-0.989 57.359-3.779 109.431-6.519l22.436-1.189z" />
<glyph unicode="&#xe924;" horiz-adv-x="6044" d="M929.797 680.72c-0.563 4.542-2.259 8.696-6.044 14.546 13.983-1.695 44.020-1.695 71.035 1.695 26.064 3.216 36.644 5.481 47.23 9.447 3.397-6.044 9.253-13.789 11.706-16.436 2.271-2.465 1.326-3.779-0.938-3.222-7.558 1.702-11.9 2.083-20.027 1.333-12.657-1.333-23.993-2.465-34.385-3.222v-17.374c38.921 0 58.191 0.382 73.682 1.326v-14.934c-15.115 1.139-34.198 1.32-57.434 1.32 13.795-17.937 33.065-28.148 63.672-31.363-4.724-5.662-8.496-13.22-10.017-18.513-9.259 3.022-17.38 6.419-24.757 10.204-0.375-3.016-0.563-7.17-0.563-13.789v-40.248c0-8.496 0.188-15.679 0.945-23.612h-16.623v11.143h-74.063v-13.414h-15.873c0.576 8.69 0.757 15.115 0.757 23.599v42.512c0 4.905-0.181 8.496-0.375 11.712-6.238-3.591-13.032-6.988-20.784-10.392-3.779 5.668-7.176 9.453-13.032 13.226 25.883 7.551 39.484 15.866 67.444 39.103-24.569 0.188-44.020-0.382-59.893-1.508v14.934c15.297-0.945 34.010-1.326 71.792-1.326v16.054c-22.279-1.858-39.096-2.615-53.455-2.803zM941.885 615.922h41.374v37.407c-14.165-16.63-26.446-27.96-41.374-37.407zM1027.285 603.829h-74.063v-14.728h74.063v14.728zM1027.285 576.432h-74.063v-14.728h74.063v14.728zM998.386 655.212v-39.284h43.82c-18.694 10.017-32.114 23.049-40.798 39.284h-3.022z" />
<glyph unicode="&#xe925;" horiz-adv-x="6044" d="M1151.437 624.994c-6.794 5.662-20.408 14.54-28.898 18.125l9.447 13.038c9.447-5.293 20.59-11.524 28.898-17.38l-9.447-13.783zM1151.249 572.096c-2.271-9.823-4.73-20.784-6.807-32.496-6.988 5.293-13.42 9.253-19.833 11.712 4.911 7.558 9.253 17.762 12.844 27.766 4.154 12.1 7.37 24.181 8.315 32.308 3.403-4.73 8.121-7.37 13.789-9.253-2.453-7.752-5.287-18.144-8.309-30.037zM1157.105 670.14c-6.619 6.988-16.254 14.358-25.501 19.839l10.204 12.281c9.253-5.869 17.568-12.094 25.126-18.325l-9.829-13.795zM1267.625 619.695c6.413-4.536 18.688-9.253 28.717-9.253-6.050-5.481-9.059-10.78-10.029-17.193-8.872 3.216-18.513 8.69-26.64 15.866-0.175-5.093-0.375-9.635-0.375-15.109 0-6.801 0.375-14.934 0.745-19.839-7.376 0.382-13.22 0.751-21.153 0.751h-35.899v-11.893c0-6.238 1.139-8.315 8.496-8.502 10.017-0.382 23.424-0.382 39.672 0.569 10.573 0.576 15.691 4.542 16.448 20.59 2.252-3.579 8.69-6.413 16.048-8.309-6.050-21.729-10.961-25.32-31.376-25.889-17.186-0.563-30.6-0.751-40.798-0.375-19.839 0.751-22.486 3.585-22.486 13.601v50.821c-5.099-4.342-11.524-9.447-17.95-13.977-2.834 4.342-6.231 7.745-10.767 10.774 8.127 3.973 13.426 7.37 22.855 15.297 9.253 7.745 14.728 13.22 18.325 18.513-11.143 0-27.209-0.382-35.705-1.32v15.679c8.302-0.932 23.418-1.695 34.204-1.695v22.861c-8.884-0.188-19.845-0.576-26.252-1.514v15.873c6.407-0.945 17.368-1.514 26.252-1.702-0.188 13.983-0.576 18.901-1.333 22.486 5.487-0.757 10.786-1.132 17.38-1.132 3.009 0 3.397-1.514 0.757-3.022-1.702-0.938-2.465-2.828-2.465-4.724v-13.608h25.889c0 15.115-0.576 20.027-1.32 23.812 5.474-0.751 10.767-1.139 17.362-1.139 3.591 0 3.397-1.695 0.757-3.216-1.695-0.938-2.459-2.834-2.459-4.724v-14.734c9.447 0.188 22.292 0.757 29.28 1.702v-15.873c-6.988 0.938-19.833 1.326-29.28 1.514v-22.861c11.136 0 27.203 0.569 35.887 1.695v-15.679c-9.635 0.938-25.507 1.32-36.462 1.32 3.66-7.37 8.578-12.844 13.677-16.442zM1239.859 636.13h-23.243c-4.911-6.988-10.21-13.414-18.694-22.292 18.513-0.757 38.346-0.569 56.683 0.175-7.195 7.758-11.912 14.94-14.746 22.116zM1203.009 586.824h43.082v15.497h-43.082v-15.497zM1240.228 648.793v22.867h-25.889v-22.861l25.889-0.006z" />
<glyph unicode="&#xe926;" horiz-adv-x="6044" d="M1404.622 679.775c-20.59 0-40.998-0.394-55.551-1.32v17.193c15.873-1.333 37.795-2.265 80.489-2.265 48.356 0 64.604 0.751 81.221 2.265v-17.193c-12.281 0.932-27.209 1.32-58.003 1.32v-26.070c15.866 0 33.441 0.569 43.082 1.32-0.757-5.093-1.151-14.928-1.151-21.347v-45.34c0-17.193 0.757-35.705 1.695-46.667h-17.193v13.601h-100.703v-16.817h-16.817c0.745 10.955 1.502 32.684 1.502 49.876v45.34c0 6.419-0.563 16.442-1.132 21.347 9.629-0.751 26.452-1.32 42.5-1.32v26.077h0.063zM1418.598 640.673c-0.751-28.723-9.253-42.694-25.495-58.76-2.265 3.216-8.133 7.745-12.65 9.635 16.436 12.281 23.612 25.689 24.175 49.125h-26.070v-71.98h100.703v71.98h-26.452v-29.092c0-9.253 4.329-10.767 20.978-7.17-1.902-4.911-2.465-9.823-2.271-14.365-5.086-0.375-16.436-0.563-21.153-0.375-8.703 0.375-11.718 4.536-11.718 13.22v37.782h-20.046zM1438.625 679.775h-20.027v-26.070h20.027v26.070z" />
<glyph unicode="&#xe927;" horiz-adv-x="6044" d="M1685.591 635.004c7.551 0 14.728 0.382 19.27 0.938l-6.056-68.952c-1.695-20.214-5.299-24.75-36.85-29.662-0.932 7.376-5.474 16.060-12.281 22.861 22.098-5.099 30.419-0.757 31.739 10.017l5.869 50.064h-51.966c-4.724-37.032-14.728-53.467-46.842-82.184-3.979 6.801-10.78 11.143-18.344 13.22 27.772 13.608 44.977 39.297 49.138 69.34 1.508 10.955 2.259 23.424 2.64 38.352-24.175-0.188-39.666-0.569-55.538-1.326v17.005c19.451-0.932 45.91-1.32 81.052-1.32 35.511 0 62.52 0.388 81.227 1.32v-17.005c-18.513 0.945-53.655 1.326-89.185 1.326-0.745-8.502-1.495-16.060-2.459-23.993h48.587zM1640.807 675.621c-1.889 8.127-6.988 19.839-10.392 25.683l20.408 6.425c1.514-6.807 5.862-17.95 9.823-24.938l-19.839-7.17z" />
<glyph unicode="&#xe928;" horiz-adv-x="6044" d="M1869.242 543.373c-55.157 0-65.373 0-76.322-0.938 0.757 7.37 1.132 20.778 1.132 32.308v90.487c0 11.149-0.375 25.507-1.132 32.877 10.949-1.514 20.771-2.265 76.322-2.265 50.252 0 61.025 0.751 71.805 2.265v-16.442c-6.419 0.569-20.59 1.139-50.821 1.139h-80.858v-125.26h84.831c30.613 0 37.407 0.569 47.987 2.077v-17.193c-10.774 0.945-17.405 0.945-72.944 0.945zM1935.372 624.606v-15.866c-14.728 1.139-27.766 1.695-54.406 1.695-6.988-22.292-20.408-33.24-49.319-46.285-3.397 4.342-7.17 8.315-12.281 12.469 26.077 9.447 39.678 17.943 46.285 33.816-20.784-0.188-35.142-0.757-47.812-1.695v15.497c13.608-0.751 28.723-1.139 51.39-1.32 1.32 6.982 2.077 15.115 2.259 24.744h-25.683c-3.022-5.293-6.619-11.143-9.453-15.866-4.542 1.889-10.392 3.403-14.928 3.779 11.143 8.496 20.972 28.148 22.091 41.937 5.105-1.32 12.281-2.646 17.017-3.21 1.695-0.188 1.695-0.576-0.569-2.465-0.945-0.938-3.41-4.542-6.988-11.149 61.964 0 68.583 0.188 75.377 0.757v-14.54c-6.231 0.569-17.568 0.751-28.529 0.751h-12.475c-0.745-9.453-1.883-17.574-3.203-24.744 24.588 0.006 37.057 0.569 51.228 1.695zM1922.327 564.538c-12.281 10.767-25.883 19.451-41.561 27.397l7.17 10.767c17.005-7.558 34.022-16.623 44.402-24.181l-10.010-13.983z" />
<glyph unicode="&#xe929;" horiz-adv-x="6044" d="M2170.038 688.847v-17.186c-10.767 0.932-24.375 1.502-66.869 1.502h-54.037c0.175-80.295-4.542-105.421-26.821-136.596-5.299 4.911-10.774 9.072-16.26 10.961 17.193 16.817 24 33.447 26.646 66.124-9.066-5.481-20.784-13.038-27.966-18.331-1.695 6.238-3.585 11.893-6.419 18.331 11.718 3.21 25.495 8.496 35.324 14.171 0.576 16.817 0.188 37.407-1.514 61.025 9.253-0.938 24.938-1.695 59.886-1.896-1.32 6.050-2.997 12.281-5.287 18.338l19.445 2.071c0.745-6.231 2.077-12.65 3.979-20.408 37.232 0 49.688 0.757 59.893 1.896zM2007.752 634.623c0 12.657-1.32 23.812-3.016 34.955l14.922 1.896c0.938-10.78 2.271-22.486 4.154-34.385l-16.060-2.465zM2120.161 612.894v-56.301c0-14.171-1.695-16.436-33.24-20.402-0.394 6.801-3.022 13.414-8.709 19.27 23.987-1.145 25.145-0.388 25.145 6.988v26.070c0 11.712-1.333 25.883-2.834 30.406 10.774 4.724 21.347 11.149 34.385 20.214-35.543 0-58.773-0.388-74.063-2.077v16.817c14.358-1.139 26.815-1.502 52.141-1.502 29.649 0 42.881 0.745 50.445 1.502v-16.617c-8.127-2.065-15.497-5.856-43.269-24.369z" />
<glyph unicode="&#xe92a;" horiz-adv-x="6044" d="M944.719 277.331h-16.617c1.32 10.78 2.077 24.375 2.077 40.798v61.207c-5.293-9.253-10.961-18.325-15.679-25.307-2.653 4.329-6.807 8.69-11.343 12.1 8.127 7.17 16.817 18.901 25.883 41.937 5.293 13.426 9.253 27.215 10.204 37.207 6.619-2.634 11.718-4.154 17.95-5.474 3.973-0.757 4.73-2.259 0.188-5.668-1.508-1.32-3.022-3.779-12.65-26.064v-130.734h-0.013zM1070.36 361.968v-14.534c-11.524 0.932-23.812 1.508-41.374 1.695 14.734-26.652 26.821-34.567 51.759-40.448-5.093-4.142-10.386-11.887-13.22-18.119-23.424 10.78-38.17 30.231-46.473 58.566h-1.139v-41.374c0-8.49 0.757-19.845 1.896-30.231h-18.331c1.139 10.035 1.695 18.901 1.695 30.231v41.361h-0.938c-8.502-26.252-18.707-41.755-40.798-62.927-3.222 3.222-7.376 6.413-15.309 10.017 20.214 14.728 37.038 33.822 44.783 52.735-16.060-0.188-27.209-0.757-38.17-1.508v14.534c13.601-0.932 27.391-1.495 50.445-1.695v23.23c-16.817 0-24.563-0.175-33.253-0.745 0.569 6.988 0.757 14.728 0.757 27.766 0 9.253-0.188 21.159-0.757 28.154 10.774-0.945 19.082-1.157 42.881-1.157 20.602 0 31.551 0.394 42.325 1.157-0.569-6.995-0.757-18.901-0.757-28.154s0.188-20.778 0.757-27.766c-9.253 0.745-19.839 0.745-37.219 0.745v-23.23c22.667 0.188 36.838 0.763 50.439 1.695zM987.231 395.596h54.412v29.474h-54.412v-29.474z" />
<glyph unicode="&#xe92b;" horiz-adv-x="6044" d="M1133.3 358.189c-2.646 4.911-5.856 9.253-9.823 13.038 6.988 8.496 11.343 15.691 16.817 29.849 3.779 9.81 9.253 32.12 10.204 42.331 5.662-2.471 9.635-3.979 15.873-5.305 3.96-0.751 4.329-1.896 1.32-4.154-1.145-0.751-2.465-3.397-10.017-21.341v-135.846h-14.358c1.32 12.644 1.883 22.855 1.883 36.456v69.54c-4.724-10.774-8.121-17.568-11.9-24.569zM1191.872 366.31c-8.321-0.169-12.281-0.926-19.27-3.003-0.576 4.336-1.514 6.976-3.591 10.373 4.736 1.514 7.376 3.779 8.89 9.078l10.949 34.548c-6.988 0-11.524-0.175-15.86-0.738v12.457c8.69-0.569 21.347-0.757 31.726 0-4.717-16.817-10.379-35.53-16.048-51.572 7.37 0.394 11.718 0.751 16.048 1.32-1.32-30.8-3.397-48.556-9.816-63.478 14.177-15.303 41.367-24.012 95.986-17.768-2.834-6.244-3.973-11.343-4.342-15.873-59.517-2.077-84.074 7.564-97.675 22.292-3.967-6.413-9.066-12.644-15.497-19.845-3.216 3.016-7.176 5.487-12.469 7.564 8.884 7.17 15.303 14.358 19.845 22.848-6.982 11.143-12.106 23.424-13.983 35.524l11.718 2.471c1.32-8.703 3.779-17.011 7.939-24.744 3.172 10.404 4.867 22.686 5.449 38.546zM1283.685 353.66v-13.226c-9.447 0.945-15.873 1.333-35.142 1.333v-14.728c17.95 0 28.154 0.394 37.219 1.502v-13.22c-8.69 0.926-19.088 1.326-37.219 1.326 0.194-5.869 0.576-11.531 1.139-18.338h-13.964c0.563 6.632 0.751 12.281 0.926 18.338-11.887-0.175-19.651-0.394-26.452-1.326v13.22c6.801-0.938 14.728-1.32 26.452-1.502v14.728c-11.337-0.181-16.817-0.388-23.987-1.333v13.226c7.376-0.945 12.65-1.333 23.987-1.508v15.491c-11.337 0-17.756-0.388-23.049-0.926v12.075c5.293-0.563 11.712-0.745 23.049-0.926v15.115c-13.414 0-20.765-0.563-29.080-1.32v13.038c8.315-0.757 15.691-1.151 29.080-1.151v14.54c-10.379 0-14.728-0.181-22.667-0.938v12.45c7.376-0.563 11.531-0.745 22.667-0.92-0.175 8.872-0.563 16.035-1.32 19.451 5.474-0.757 9.066-0.938 14.552-0.938 5.28 0 5.656-1.32 1.32-3.779-1.695-0.938-2.653-4.167-2.653-7.17v-7.551c17.193 0 23.618 0.394 31.739 1.695-0.569-3.779-0.569-6.413-0.569-10.78v-16.041c6.613 0 11.524 0.382 14.552 1.139v-12.644c-3.028 0.576-8.127 0.757-14.552 0.926v-10.561c0-5.869 0.194-10.398 0.757-15.309-6.050 0.394-12.844 0.582-31.933 0.582v-15.503c19.276-0.044 25.32 0.332 35.149 1.464zM1266.68 403.536v14.552h-18.125v-14.552h18.125zM1248.543 392.95v-15.103h18.131v15.103h-18.131z" />
<glyph unicode="&#xe92c;" horiz-adv-x="6044" d="M1348.889 409.204v16.254c16.254-0.932 30.613-1.502 56.114-1.695 3.973 10.029 6.988 20.765 8.127 26.458 7.551-2.64 13.608-3.973 20.784-4.905 3.779-0.563 3.96-1.883 0.563-3.973-4.717-3.009-8.309-8.309-11.706-17.581 60.631 0 70.272 0 89.548 1.695v-16.254c-21.341 1.508-35.324 1.896-95.973 1.896-3.779-7.17-7.952-13.971-12.281-20.771h33.434c19.095 0 37.407 0.569 50.646 1.902-0.757-5.312-1.514-15.291-1.514-25.689v-64.034c0-18.338-0.563-19.658-29.849-24.919-0.382 5.65-2.828 13.038-6.988 19.264 17.768-2.828 20.778-0.932 20.778 10.386v10.774h-69.158v-39.49h-17.562c1.126 9.622 1.695 19.445 1.695 27.009v59.511c-8.309-10.392-17.18-20.021-25.676-28.717-3.779 4.154-10.029 8.309-14.365 9.816 20.59 14.54 39.297 36.85 53.655 64.779-22.317-0.019-35.53-0.588-50.27-1.714zM1470.564 378.028h-69.152v-16.63h69.152v16.63zM1401.406 330.417h69.158v18.525h-69.158v-18.525z" />
<glyph unicode="&#xe92d;" horiz-adv-x="6044" d="M1607.548 378.779c11.9-13.958 17.38-27.384 16.817-40.604-0.569-13.42-7.376-24.175-27.209-27.215-0.194 5.869-1.896 11.524-7.176 17.756 15.115 0 16.442 0.757 18.7 12.281 2.077 9.066-2.077 21.747-13.795 34.961l15.115 49.132h-21.729v-145.649h-15.691c0.576 17.011 0.757 28.329 0.757 44.189v97.1c0 7.17-0.569 14.728-1.32 19.67 7.17-0.938 16.254-1.514 29.655-1.514 13.22 0 21.729 0.576 28.905 1.514l-23.030-61.619zM1709.766 361.78c3.21-4.542 9.066-10.035 12.463-12.281 1.145-0.745 0.938-1.902-0.394-2.259-4.154-1.32-13.026-7.564-31.157-21.735 7.739-11.537 23.605-21.341 41.367-25.902-5.299-6.037-8.496-13.038-9.816-18.119-14.928 5.862-30.231 17.355-39.678 32.296-8.309 13.214-13.22 28.154-15.685 50.445h-14.171v-62.176c6.794 3.779 14.728 8.315 19.451 11.343 0.576-5.65 1.32-9.81 2.828-14.728l-23.806-13.608c-4.542-2.653-9.453-6.225-12.106-8.696-2.077 4.911-4.717 9.453-7.939 13.971 4.905 2.465 7.176 6.231 7.176 16.436v113.585c0 7.727-0.194 13.958-0.951 19.833 6.813-0.932 23.061-1.695 39.297-1.695 17.374 0 33.447 0.745 39.497 1.695-0.576-6.619-0.938-12.281-0.938-19.833v-36.462c0-6.050 0.388-13.426 1.145-21.165-5.668 0.751-15.303 1.32-36.85 1.495 1.32-10.017 3.591-20.202 6.056-27.572 10.598 8.127 18.356 16.448 24.212 25.132zM1652.519 427.147v-20.765h48.181v20.765h-48.181zM1652.519 395.215v-19.639h48.181v19.639h-48.181z" />
<glyph unicode="&#xe92e;" horiz-adv-x="6044" d="M1851.292 430.169c-1.695-0.757-7.17-10.029-10.774-17.374-4.905-11.13-24.569-44.589-44.020-63.102-3.397 3.228-11.9 8.127-18.125 10.78 26.077 17.937 48.356 56.689 55.163 80.476 6.050-3.228 13.783-6.050 18.119-6.807 2.859-0.563 2.671-2.271-0.363-3.973zM1883.406 337.412l13.977 7.551c12.65-16.436 26.458-36.631 36.462-53.643l-18.519-10.961c-2.077 5.305-4.905 11.343-8.127 17.95-53.649-3.591-92.401-9.066-99.752-11.718-1.132 5.869-3.779 12.644-6.794 18.344 4.154 1.126 6.794 3.397 11.343 8.872 22.486 27.215 35.142 52.153 40.435 70.091 7.37-3.973 15.497-7.558 19.27-8.703 4.536-1.333 3.779-2.834-0.188-4.911-1.508-0.745-4.542-4.536-7.939-9.81-9.46-14.54-25.32-37.601-37.795-54.049l74.245 4.73c-5.274 9.253-11.124 18.519-16.617 26.258zM1938.018 350.638c-33.628 29.299-51.203 60.087-60.087 88.24 7.17 0 12.475 0.92 17.574 3.397 10.204-33.803 27.397-57.227 58.948-74.063-6.607-4.167-12.663-10.586-16.436-17.574z" />
<glyph unicode="&#xe92f;" horiz-adv-x="6044" d="M2068.959 387.857c-27.384 0-41.18-0.569-59.305-1.695v16.617c18.338-1.126 32.296-1.695 59.305-1.695 29.086 0 34.961 0.175 50.445 1.695v-16.617c-16.242 1.314-21.353 1.695-50.445 1.695zM2038.359 314.169v-19.658h-17.368c1.132 8.872 2.077 21.522 2.077 30.231v24.757c0 6.807-0.582 14.934-1.333 19.651 6.238-0.745 25.895-1.32 47.417-1.32 21.528 0 36.462 0.576 42.325 1.32-0.563-3.397-1.32-11.881-1.32-19.445v-24.907c0-8.721 0.388-14.365 1.32-21.359h-16.436v10.78l-56.683-0.050zM2151.713 415.054v-117.145c0-16.611-7.37-23.418-36.268-22.667-0.576 6.619-2.271 12.288-6.425 19.27 22.861-1.695 26.258 0.175 26.258 8.484v118.678h-54.037c-37.025 0-50.064-0.388-60.087-1.145v17.005c14.552-1.326 34.56-1.695 63.478-1.695 29.074 0 53.286 0.738 67.826 1.695-0.551-5.474-0.745-9.629-0.745-22.479zM2095.036 327.77v26.652h-56.696v-26.652h56.696z" />
<glyph unicode="&#xe930;" horiz-adv-x="6044" d="M2469.883 569.587c-1.958-15.647-4.893-30.794-8.797-45.459v-121.706c-2.934-3.904-5.869-3.904-8.797 0v101.179c-3.917-9.779-9.291-18.582-16.129-26.396-4.893-0.982-6.851 0.97-5.869 5.869 16.611 23.462 26.878 52.792 30.794 87.984 3.904 3.898 6.838 3.41 8.797-1.47zM2497.742 569.587c3.91 4.88 6.838 4.398 8.797-1.464-0.982-5.869-2.453-12.713-4.398-20.527h83.579c10.749 0 15.641-5.381 14.665-16.129-0.982-7.827-3.422-15.647-7.333-23.462-4.893-2.934-7.821-1.958-8.797 2.934 9.773 18.569 9.773 27.86 0 27.86h-39.591v-121.706c-0.982-10.749-8.315-15.635-21.998-14.665-5.869 0.982-11.249 2.453-16.129 4.398-2.934 5.869-1.464 8.797 4.398 8.797 15.641-6.838 23.943-5.869 24.926 2.934v120.236h-36.656c-5.869-14.665-12.713-26.396-20.527-35.192-4.893-0.982-6.851 0.97-5.869 5.869 11.737 14.659 20.039 34.692 24.932 60.118zM2502.141 497.732c3.91 4.88 6.838 4.398 8.797-1.464-5.869-25.42-16.129-49.857-30.794-73.319-5.869-2.934-8.315-1.464-7.333 4.398 13.683 22.479 23.468 45.941 29.33 70.385zM2569.591 496.268c0.976 4.88 3.91 5.869 8.797 2.934 9.773-22.492 17.105-47.417 21.998-74.783-0.982-6.838-3.917-7.814-8.797-2.934-4.893 27.366-12.225 52.291-21.998 74.783z" />
<glyph unicode="&#xe931;" horiz-adv-x="6044" d="M2701.858 490.4h158.369c3.91-2.934 3.91-5.869 0-8.797h-76.253v-21.998h67.45c3.91-2.934 3.91-5.869 0-8.797h-67.45v-35.192c12.707-4.88 38.127-6.838 76.253-5.869 3.91-2.934 3.91-5.869 0-8.797-32.258-0.97-55.72 0-70.385 2.934-25.42 5.869-43.989 17.599-55.72 35.192-8.797-17.599-20.527-30.3-35.192-38.127-4.893-0.97-6.851 1.464-5.869 7.333 21.503 12.713 33.234 29.812 35.192 51.321v13.195c2.934 3.904 5.869 3.904 8.797 0v-20.527c8.797-16.623 21.503-27.86 38.127-33.728v63.058h-73.319c-3.917 2.934-3.917 5.869 0 8.797zM2734.116 568.117h87.984c10.749 0 15.641-4.893 14.665-14.665v-35.192c0.976-10.761-3.917-15.647-14.665-14.665h-87.984c-9.779-0.982-14.665 3.904-14.665 14.665v35.199c0.006 9.766 4.886 14.659 14.665 14.659zM2819.166 559.32h-82.115c-5.869 0-8.797-2.934-8.797-8.797v-8.797h99.715v7.333c0.97 6.832-1.965 10.261-8.803 10.261zM2827.962 532.925h-99.715v-11.731c0-6.851 2.934-9.779 8.797-8.797h82.115c6.838-0.982 9.773 1.952 8.797 8.797v11.731z" />
<glyph unicode="&#xe932;" horiz-adv-x="6044" d="M3103.926 519.73c10.755 0 15.641-4.893 14.665-14.665v-8.797c0.976-10.761-3.91-15.647-14.665-14.665h-55.72v-17.599h61.588c10.755 0 15.641-4.893 14.665-14.665l-1.464-24.926c-2.934-12.701-11.243-20.033-24.926-21.998-8.797-0.97-19.551 0.982-32.258 5.869-2.934 3.917-1.958 6.851 2.934 8.797 11.731-4.88 21.51-6.838 29.33-5.869 8.797 1.958 14.177 6.851 16.129 14.665l1.464 20.527c0.976 5.869-1.958 8.797-8.797 8.797h-58.654v-52.792c-2.934-4.88-5.869-4.88-8.797 0v46.923c-16.617-20.527-43.013-36.656-79.181-48.387-5.869 0.982-6.851 3.917-2.934 8.797 34.21 10.761 59.63 25.902 76.247 45.459h-55.72c-9.779-0.982-14.665 3.904-14.665 14.665v5.869c0 9.773 4.88 14.665 14.665 14.665h61.582v20.527h-73.313c-3.917 2.934-3.917 5.869 0 8.797h137.823zM2983.691 572.515c3.91 2.934 6.838 1.952 8.797-2.934-0.982-4.893-2.453-8.797-4.398-11.731h54.249c4.886-2.934 4.886-5.869 0-8.797h-30.788c1.952-5.869 2.934-13.195 2.934-21.998-2.934-5.869-5.869-6.363-8.797-1.464 0 7.814-0.982 15.635-2.934 23.462h-17.599c-3.917-8.797-10.755-16.623-20.527-23.462-4.893-0.982-6.851 0.97-5.869 5.869 13.683 10.749 21.998 24.431 24.932 41.055zM3039.41 481.603h-58.654c-5.869 0-8.797-2.453-8.797-7.333v-2.934c0-5.869 2.934-8.315 8.797-7.333h58.654v17.599zM3061.402 572.515c3.91 3.904 6.845 3.416 8.797-1.464-0.976-2.934-2.446-7.333-4.398-13.195h58.654c4.886-2.934 4.886-5.869 0-8.797h-35.192c1.958-6.851 2.934-14.183 2.934-21.998-2.934-4.893-5.869-4.893-8.797 0 0 6.838-0.976 14.171-2.934 21.998h-17.599c-5.869-10.761-11.731-19.063-17.599-24.926-5.869-1.958-8.309 0-7.333 5.869 10.761 9.76 18.582 23.937 23.468 42.512zM3100.992 510.933h-52.792v-20.527h52.792c6.845-0.982 9.779 1.952 8.797 8.797v2.934c0.982 5.862-1.952 8.797-8.797 8.797z" />
<glyph unicode="&#xe933;" horiz-adv-x="6044" d="M3225.927 431.746h158.369c5.869-2.934 5.869-5.869 0-8.797h-158.369c-5.862 2.934-5.862 5.869 0 8.797zM3239.128 551.988h133.437c4.886-2.934 4.886-5.869 0-8.797h-133.437c-5.869 2.934-5.869 5.862 0 8.797z" />
<glyph unicode="&#xe934;" horiz-adv-x="6044" d="M3506.295 442.013c4.886 2.934 7.333 1.464 7.333-4.398-5.869-11.731-13.689-21.503-23.462-29.33-4.886-1.952-6.845 0-5.869 5.869 9.779 8.797 17.105 18.081 21.998 27.86zM3564.949 576.92c3.91-5.869 7.333-11.249 10.267-16.129h65.986c3.91-2.934 3.91-5.869 0-8.797h-24.926c-2.934-6.851-5.869-13.689-8.797-20.527h42.525c3.91-2.934 3.91-5.869 0-8.797h-161.297c-3.91 1.952-3.91 4.88 0 8.797h49.857c-1.958 5.869-4.886 12.701-8.797 20.527h-32.258c-3.91 2.934-3.91 5.869 0 8.797h67.45c-1.958 3.904-4.398 7.814-7.333 11.731-0.013 4.88 2.427 6.344 7.32 4.398zM3516.556 510.933h107.041c10.755-0.982 15.641-6.363 14.665-16.129v-27.86c0.976-10.761-4.398-15.647-16.129-14.665h-107.041c-9.779-0.982-14.665 3.904-14.665 14.665v27.86c0.976 10.742 6.357 16.129 16.129 16.129zM3620.669 502.131h-102.643c-5.869 0-8.797-2.934-8.797-8.797v-7.333h120.242v7.333c0.97 5.869-1.958 8.797-8.803 8.797zM3629.465 477.205h-120.242v-7.333c0-6.851 2.934-9.779 8.797-8.797h102.643c6.845-0.982 9.779 1.952 8.797 8.797v7.333zM3538.553 443.477v-26.396c0-6.838 2.934-9.773 8.797-8.797h42.525c7.821-0.97 11.243 7.333 10.267 24.926 2.934 3.904 5.869 3.904 8.797 0 1.958-23.462-3.91-34.698-17.599-33.728h-46.923c-9.779-0.97-14.665 3.917-14.665 14.665v29.33c2.934 3.904 5.869 3.904 8.803 0zM3606.004 551.988h-67.45c2.934-5.869 5.869-12.713 8.797-20.527h49.857c3.91 6.838 6.845 13.677 8.797 20.527zM3564.949 446.411c6.845-10.761 11.243-20.046 13.195-27.86-1.958-4.88-4.886-5.368-8.797-1.464-2.934 7.827-6.845 16.129-11.731 24.926 0 4.88 2.44 6.35 7.333 4.398zM3620.669 446.411c12.707-11.731 23.462-22.967 32.258-33.728 0.976-6.838-1.464-8.797-7.333-5.869-8.797 9.779-19.063 20.527-30.794 32.258-2.928 5.875-0.976 8.309 5.869 7.339z" />
<glyph unicode="&#xe935;" horiz-adv-x="6044" d="M3789.592 568.117h82.115c12.707 0 18.575-4.893 17.599-14.665v-74.783c0.976-9.779-4.398-14.183-16.129-13.195h-13.195v-42.525c0-6.838 3.422-10.267 10.267-10.267h27.86c6.845-0.97 10.267 9.779 10.267 32.258 2.934 3.904 5.869 3.904 8.797 0 0.976-27.366-4.398-41.061-16.129-41.061h-35.205c-9.779 0.982-14.665 6.363-14.665 16.129v45.459h-38.127c-1.958-32.258-21.998-52.792-60.118-61.588-4.886 1.958-5.869 4.893-2.934 8.797 34.216 7.827 52.297 25.414 54.256 52.792h-13.195c-10.755-0.982-16.129 4.398-16.129 16.129v71.861c0 9.766 4.886 14.659 14.665 14.659zM3880.504 551.988c0.976 4.88-2.446 7.333-10.267 7.333h-77.717c-5.869 0-8.797-2.453-8.797-7.333v-14.665h96.78v14.665zM3880.504 528.526h-96.78v-21.998h96.78v21.998zM3880.504 497.732h-96.78v-13.195c0-7.827 2.446-11.249 7.333-10.267h80.651c6.845-0.982 9.779 1.464 8.797 7.333v16.129z" />
<glyph unicode="&#xe936;" horiz-adv-x="6044" d="M4089.018 572.515c2.934 3.904 5.869 3.904 8.797 0v-10.267h73.319c4.886-2.934 4.886-5.869 0-8.797h-73.319v-11.731h38.127c12.707 0 18.575-5.381 17.599-16.129v-26.396c1.958-11.731-3.422-17.111-16.129-16.129h-39.591v-13.195l51.321 2.934-2.934 4.398c0 4.88 2.446 6.35 7.333 4.398 3.91-5.869 7.333-12.713 10.267-20.527 0-4.893-2.446-6.363-7.333-4.398l-4.398 8.797-13.195-1.464v-13.195h41.061c3.91-2.934 3.91-5.869 0-8.797h-41.061v-24.926c0-11.731-5.374-17.099-16.129-16.129-4.886-0.97-12.707 0.494-23.462 4.398-2.934 4.893-1.958 7.827 2.934 8.797 20.527-7.814 29.818-6.35 27.86 4.398v23.462h-115.844c-3.91 2.934-3.91 5.869 0 8.797h115.844v13.195c-35.192-1.958-69.897-3.429-104.113-4.398-3.91 1.952-4.398 4.88-1.464 8.797 23.462 0 44.971 0.482 64.522 1.464v13.201h-39.591c-10.755-0.982-16.129 4.398-16.129 16.129v24.926c0 11.731 5.869 17.599 17.599 17.599h38.127v11.731h-73.319c-3.91 2.934-3.91 5.869 0 8.797h73.319v10.261zM4089.018 532.925h-38.127c-5.869 0-8.797-3.429-8.797-10.267v-4.398h46.923v14.665zM4089.018 509.463h-46.923v-8.797c0-6.851 2.934-9.779 8.797-8.797h38.127v17.593zM4046.493 433.216c0.976 5.869 3.422 7.814 7.333 5.869 5.869-6.851 11.243-15.147 16.129-24.926 0-4.88-2.446-6.838-7.333-5.869-4.886 9.779-10.261 18.075-16.129 24.926zM4134.477 532.925h-36.656v-14.665h46.923v5.869c0.976 5.869-2.446 8.797-10.267 8.797zM4144.744 509.463h-46.923v-17.599h38.127c6.845-0.982 9.779 1.952 8.797 8.797v8.803z" />
<glyph unicode="&#xe937;" horiz-adv-x="6044" d="M4386.98 481.603c15.641-35.192 34.704-55.72 57.19-61.588 2.934-5.869 1.958-8.797-2.934-8.797-25.42 5.869-46.435 27.366-63.052 64.522l-8.797-5.869c3.91-11.731 5.374-22.492 4.398-32.258 0.976-20.527-7.333-33.234-24.926-38.127-9.779-2.934-21.51-1.464-35.192 4.398-1.958 4.893-0.488 7.827 4.398 8.797 10.755-4.88 20.527-6.35 29.33-4.398 12.707 2.934 18.575 16.623 17.599 41.061-16.617-15.647-45.459-30.3-86.514-43.989-4.886 1.958-5.374 4.893-1.464 8.797 41.061 14.665 69.897 29.812 86.514 45.459-1.958 4.88-4.398 10.267-7.333 16.129-16.617-15.647-40.567-27.86-71.849-36.656-4.886 0.97-5.869 3.416-2.934 7.333 35.192 11.731 58.654 24.431 70.385 38.127-2.934 4.88-6.357 9.773-10.267 14.665-17.599-11.731-35.68-19.558-54.256-23.462-4.886 1.952-5.374 4.88-1.464 8.797 26.396 5.869 48.881 18.081 67.45 36.656h-54.256c-4.886 2.934-4.886 5.869 0 8.797h111.446c3.91-2.934 3.91-5.869 0-8.797h-46.923c-1.958-3.917-7.333-9.291-16.129-16.129 7.821-9.779 13.689-18.582 17.599-26.396 15.641 8.797 27.372 20.033 35.192 33.728 4.886 0.97 7.333-0.982 7.333-5.869-5.881-9.785-12.726-18.094-20.546-24.932zM4356.186 573.985l4.398-17.599h61.588c17.599 0 20.527-14.183 8.797-42.525-4.886-3.917-7.821-2.934-8.797 2.934 8.797 20.527 8.797 30.794 0 30.794h-126.104c-5.869 0-8.797-2.934-8.797-8.797v-23.462c-2.934-4.893-5.869-4.893-8.797 0v24.926c0 10.749 5.374 16.129 16.129 16.129h57.19l-4.398 14.665c0.97 4.88 3.904 5.869 8.79 2.934z" />
<glyph unicode="&#xe938;" horiz-adv-x="6044" d="M853.838 537.604c-0.081 90.186-35.324 175.048-99.22 238.976-64.047 63.991-148.94 99.208-239.089 99.208-0.131 0-0.257 0-0.394 0-90.23 0-175.136-35.242-239.101-99.189-63.991-64.053-99.22-149.040-99.22-239.302 0-90.236 35.236-175.198 99.22-239.233 64.009-63.997 148.984-99.271 239.233-99.271v6.782c-88.453 0-171.707 34.542-234.447 97.306-62.689 62.702-97.231 145.987-97.231 234.415 0 88.459 34.542 171.732 97.25 234.484 62.689 62.702 145.887 97.237 234.296 97.237 0.131 0 0.257 0 0.394 0 88.322 0 171.526-34.529 234.284-97.237 62.639-62.645 97.156-145.812 97.237-234.484 0-85.3-32.408-166.108-91.237-228.053-5.412 3.835-12.006 6.125-19.138 6.125-18.375 0-33.297-14.953-33.297-33.265 0-18.381 14.947-33.309 33.297-33.309s33.272 14.959 33.272 33.309c0 8.753-3.485 16.717-9.041 22.667 59.93 63.184 92.933 145.562 92.933 232.832zM736.68 255.565c-14.627 0-26.515 11.887-26.515 26.527 0 14.615 11.887 26.471 26.515 26.471 14.621 0 26.502-11.862 26.502-26.471 0-14.621-11.881-26.527-26.502-26.527z" />
<glyph unicode="&#xe939;" horiz-adv-x="6044" d="M485.93 587.474l1.702-4.261c0.526-1.351 13.189-33.215 14.534-55.826 0.788-13.664-1.67-52.229-3.841-86.232-1.339-20.909-2.484-38.971-2.484-45.372 0-9.503 3.022-42.45 5.468-68.952 2.115-23.074 3.41-37.395 3.41-41.286 0-6.194 4.548-47.004 7.595-72.868l13.658-68.771-10.993-35.061 11.237-11.743 3.485 50.527c-1.433 8.027-8.471 48.356-7.201 62.295 1.239 13.689 10.048 162.373 10.154 163.856l0.432 7.214h15.435l0.413-7.214c0.1-1.483 8.934-150.192 10.167-163.856 1.308-14.496-2.759-59.667-2.953-61.588l0.325-51.159 11.036 10.611-8.74 36.369 10.561 68.72c3.016 25.676 7.526 66.437 7.526 72.631 0 3.898 1.308 18.219 3.435 41.292 2.465 26.465 5.487 59.436 5.487 68.952 0 6.388-1.164 24.413-2.478 45.284-2.215 34.041-4.68 72.643-3.885 86.314 1.32 22.604 13.977 54.475 14.509 55.813l1.702 4.267 148.333 17.074c0.576 0.050 14.897 0.632 25.945 0.632 9.247 0 12.044-0.394 13.689-0.788 0.963-0.244 2.040-0.657 3.247-1.283 0.607 1.833 1.633 3.998 3.166 6.519l-0.2-0.006c-0.632-0.031-70.823-3.823-93.715-2.515l-22.561 1.189c-52.035 2.74-103.343 5.524-109.35 6.513-12.313 2.040-14.815 19.839-15.322 27.391l-0.106 1.664 0.594 1.564c1.132 3.041 5.449 13.339 12.701 16.917 0.569 0.607 1.502 4.561 0.1 8.065l-3.285 8.196 0.219 1.933c0.394 3.779 0.231 15.003-5.243 21.103-2.878 3.185-6.976 4.711-12.557 4.711h-0.957c-5.574 0-9.691-1.527-12.55-4.711-5.487-6.1-5.643-17.33-5.255-21.14l0.181-1.896-3.26-8.171c-1.414-3.522-0.45-7.483 0.332-8.215 7.013-3.435 11.343-13.689 12.475-16.767l0.601-1.558-0.113-1.677c-0.513-7.564-3.041-25.351-15.347-27.391-6-0.989-57.346-3.779-109.425-6.519l-22.448-1.176z" />
<glyph unicode="&#xe93a;" horiz-adv-x="6044" d="M571.63 587.474l-1.695-4.261c-0.526-1.351-13.195-33.215-14.527-55.826-0.782-13.664 1.664-52.229 3.835-86.232 1.339-20.909 2.478-38.971 2.478-45.372 0-9.503-3.009-42.45-5.462-68.952-2.127-23.074-3.422-37.395-3.422-41.286 0-6.194-4.536-47.004-7.577-72.868l-13.67-68.771 10.993-35.061-11.224-11.743-3.491 50.527c1.433 8.027 8.471 48.356 7.195 62.295-1.245 13.689-10.054 162.373-10.142 163.856l-0.438 7.214h-15.435l-0.419-7.195c-1.27-20.771 7.927-138.167 5.606-163.862-1.295-14.502-13.001-59.68-12.819-61.588l-0.332-51.171-11.049 10.611 8.759 36.369-21.19 65.755c-3.016 25.658 3.091 69.452 3.091 75.653 0 3.885-1.32 18.219-3.447 41.299-2.453 26.458-5.474 59.436-5.474 68.952 0 6.388 1.164 24.413 2.484 45.284 2.196 34.022 4.667 72.631 3.866 86.301-1.32 22.611-13.989 54.475-14.502 55.813l-1.695 4.261-148.346 17.074c-0.576 0.050-14.897 0.632-25.939 0.632-9.253 0-12.050-0.394-13.689-0.788-0.957-0.238-2.040-0.657-3.235-1.276-0.632 1.833-1.633 3.998-3.166 6.519l0.2-0.006c0.626-0.038 70.81-3.823 93.715-2.515l22.561 1.182c52.035 2.74 103.337 5.524 109.35 6.513 12.306 2.040 14.815 19.845 15.316 27.391l0.119 1.67-0.588 1.564c-1.151 3.041-5.462 13.332-12.719 16.911-0.551 0.607-1.502 4.561-0.088 8.065l3.272 8.196-0.213 1.933c-0.394 3.779-0.231 15.003 5.243 21.103 2.872 3.185 6.963 4.711 12.563 4.711h0.951c5.568 0 9.679-1.527 12.538-4.711 5.493-6.1 5.637-17.33 5.268-21.14l-0.2-1.896 3.26-8.165c1.42-3.522 0.438-7.489-0.344-8.215-7.013-3.435-11.337-13.689-12.463-16.767l-0.601-1.558 0.119-1.683c0.507-7.564 3.022-25.357 15.328-27.397 6.012-0.989 57.365-3.773 109.437-6.519l22.436-1.176z" />
<glyph unicode="&#xe93b;" horiz-adv-x="6044" d="M550.796 587.474l-1.695-4.261c-0.532-1.351-13.182-33.215-14.527-55.826-0.795-13.664 1.664-52.229 3.835-86.232 1.333-20.909 2.478-38.971 2.478-45.372 0-9.503-3.009-42.45-5.474-68.952-2.115-23.074-3.41-37.395-3.41-41.286 0-6.194-4.536-47.004-7.589-72.868l-13.651-68.771 10.986-35.061-11.23-11.743-3.497 50.527c1.439 8.027 8.471 48.356 7.207 62.295-1.245 13.689-10.048 162.373-10.154 163.856l-0.425 7.214h-15.447l-0.407-7.195c-0.106-1.489-8.94-150.185-10.16-163.862-1.308-14.502 2.759-59.68 2.959-61.588l-0.332-51.171-11.049 10.611 8.746 36.369-10.561 68.733c-3.009 25.676-7.533 66.424-7.533 72.631 0 3.885-1.308 18.219-3.441 41.28-2.446 26.477-5.487 59.448-5.487 68.952 0 6.388 1.176 24.406 2.49 45.278 2.202 34.029 4.667 72.631 3.873 86.301-1.32 22.598-13.977 54.475-14.515 55.813l-1.702 4.267-148.333 17.099c-0.582 0.050-14.903 0.632-25.945 0.632-9.247 0-12.044-0.394-13.689-0.788-0.97-0.244-2.033-0.669-3.241-1.283-0.607 1.833-1.633 3.992-3.172 6.519l0.206-0.006c0.632-0.031 70.816-3.829 93.709-2.521l22.561 1.195c52.022 2.74 103.362 5.524 109.356 6.513 12.306 2.040 14.821 19.839 15.322 27.391l0.1 1.658-0.588 1.564c-1.139 3.047-5.449 13.339-12.707 16.924-0.563 0.607-1.502 4.561-0.088 8.065l3.278 8.196-0.213 1.933c-0.4 3.779-0.238 15.003 5.237 21.103 2.872 3.185 6.97 4.711 12.557 4.711h0.951c5.574 0 9.685-1.527 12.544-4.711 5.487-6.1 5.643-17.33 5.262-21.14l-0.194-1.896 3.266-8.171c1.414-3.522 0.432-7.483-0.344-8.215-7.020-3.435-11.343-13.689-12.475-16.767l-0.607-1.558 0.119-1.689c0.513-7.564 3.034-25.351 15.347-27.391 6.006-0.989 57.359-3.773 109.418-6.519l22.448-1.189z" />
<glyph unicode="&#xe93c;" horiz-adv-x="6044" d="M929.797 680.726c-0.563 4.542-2.265 8.696-6.050 14.546 13.983-1.695 44.020-1.695 71.035 1.695 26.070 3.228 36.65 5.481 47.236 9.46 3.397-6.056 9.253-13.789 11.706-16.442 2.259-2.471 1.32-3.779-0.938-3.228-7.564 1.702-11.912 2.083-20.027 1.333-12.65-1.333-24-2.465-34.385-3.222v-17.374c38.909 0 58.178 0.394 73.682 1.326v-14.934c-15.115 1.139-34.204 1.32-57.446 1.32 13.795-17.937 33.065-28.148 63.678-31.363-4.717-5.662-8.502-13.22-10.023-18.513-9.253 3.009-17.374 6.407-24.744 10.204-0.382-3.016-0.563-7.17-0.563-13.789v-40.248c0-8.496 0.181-15.691 0.932-23.612h-16.611v11.143h-74.063v-13.426h-15.873c0.563 8.703 0.757 15.115 0.757 23.605v42.512c0 4.905-0.194 8.496-0.382 11.712-6.238-3.591-13.032-6.988-20.784-10.392-3.779 5.668-7.17 9.453-13.032 13.226 25.889 7.551 39.49 15.866 67.444 39.103-24.575 0.175-44.020-0.394-59.893-1.508v14.934c15.297-0.932 34.016-1.326 71.799-1.326v16.054c-22.279-1.852-39.096-2.609-53.455-2.797zM941.885 615.922h41.374v37.407c-14.165-16.63-26.446-27.954-41.374-37.407zM1027.297 603.835h-74.063v-14.728h74.051v14.728h0.013zM1027.297 576.438h-74.063v-14.728h74.051v14.728h0.013zM998.374 655.212v-39.284h43.832c-18.694 10.029-32.114 23.061-40.804 39.284h-3.028z" />
<glyph unicode="&#xe93d;" horiz-adv-x="6044" d="M1151.424 624.994c-6.794 5.662-20.396 14.54-28.892 18.125l9.46 13.038c9.453-5.305 20.59-11.524 28.898-17.38l-9.466-13.783zM1151.255 572.096c-2.265-9.81-4.749-20.771-6.826-32.483-6.97 5.293-13.407 9.253-19.833 11.712 4.911 7.558 9.253 17.762 12.863 27.766 4.154 12.106 7.376 24.181 8.309 32.308 3.41-4.73 8.127-7.37 13.777-9.253-2.44-7.758-5.287-18.15-8.29-30.050zM1157.105 670.14c-6.619 6.988-16.248 14.365-25.501 19.852l10.204 12.281c9.259-5.869 17.574-12.106 25.138-18.338l-9.841-13.795zM1267.631 619.701c6.419-4.536 18.688-9.253 28.717-9.253-6.050-5.481-9.066-10.78-10.029-17.193-8.872 3.228-18.513 8.703-26.64 15.866-0.175-5.086-0.388-9.635-0.388-15.109 0-6.801 0.388-14.934 0.745-19.839-7.37 0.394-13.207 0.751-21.153 0.751h-35.887v-11.881c0-6.238 1.145-8.315 8.49-8.502 10.023-0.394 23.424-0.394 39.666 0.569 10.58 0.576 15.704 4.548 16.448 20.59 2.259-3.579 8.703-6.413 16.054-8.309-6.062-21.729-10.961-25.32-31.37-25.889-17.193-0.563-30.619-0.751-40.798-0.388-19.845 0.751-22.498 3.585-22.498 13.614v50.821c-5.093-4.342-11.524-9.46-17.937-13.977-2.834 4.342-6.231 7.745-10.78 10.774 8.127 3.985 13.426 7.383 22.861 15.297 9.253 7.745 14.728 13.22 18.331 18.513-11.143 0-27.222-0.388-35.718-1.32v15.679c8.321-0.926 23.437-1.695 34.216-1.695v22.848c-8.897-0.175-19.858-0.576-26.258-1.514v15.873c6.4-0.932 17.362-1.502 26.258-1.695-0.194 13.971-0.588 18.901-1.333 22.486 5.474-0.757 10.78-1.132 17.374-1.132 3.009 0 3.397-1.514 0.757-3.022-1.695-0.926-2.465-2.828-2.465-4.724v-13.608h25.883c0 15.115-0.563 20.027-1.32 23.812 5.474-0.751 10.774-1.139 17.368-1.139 3.591 0 3.397-1.695 0.757-3.228-1.695-0.926-2.471-2.822-2.471-4.724v-14.728c9.46 0.188 22.292 0.757 29.293 1.695v-15.873c-6.988 0.938-19.833 1.339-29.293 1.514v-22.848c11.143 0 27.215 0.569 35.887 1.695v-15.679c-9.629 0.938-25.501 1.32-36.462 1.32 3.679-7.376 8.584-12.851 13.695-16.448zM1239.853 636.137h-23.249c-4.905-6.988-10.192-13.426-18.675-22.292 18.513-0.745 38.346-0.569 56.683 0.175-7.195 7.758-11.931 14.934-14.759 22.116zM1203.002 586.83h43.082v15.497h-43.082v-15.497zM1240.234 648.8v22.848h-25.889v-22.848h25.889z" />
<glyph unicode="&#xe93e;" horiz-adv-x="6044" d="M1404.628 679.775c-20.59 0-41.017-0.394-55.557-1.32v17.193c15.86-1.333 37.782-2.252 80.476-2.252 48.356 0 64.616 0.738 81.221 2.252v-17.193c-12.281 0.932-27.203 1.32-57.997 1.32v-26.070c15.86 0 33.434 0.582 43.075 1.32-0.757-5.086-1.139-14.928-1.139-21.334v-45.34c0-17.193 0.757-35.705 1.695-46.667h-17.186v13.601h-100.71v-16.817h-16.817c0.738 10.955 1.495 32.696 1.495 49.889v45.34c0 6.407-0.563 16.442-1.145 21.334 9.641-0.738 26.458-1.32 42.512-1.32v26.077l0.075-0.013zM1418.592 640.673c-0.745-28.723-9.253-42.681-25.501-58.76-2.252 3.216-8.127 7.745-12.644 9.635 16.442 12.281 23.605 25.676 24.181 49.125h-26.077v-71.98h100.71v71.98h-26.458v-29.080c0-9.253 4.329-10.78 20.984-7.17-1.902-4.911-2.478-9.81-2.271-14.365-5.086-0.375-16.436-0.563-21.153-0.375-8.709 0.375-11.718 4.536-11.718 13.207v37.782h-20.052zM1438.631 679.775h-20.027v-26.070h20.027v26.070z" />
<glyph unicode="&#xe93f;" horiz-adv-x="6044" d="M1685.578 635.011c7.551 0 14.734 0.382 19.27 0.926l-6.050-68.952c-1.689-20.214-5.293-24.75-36.844-29.662-0.938 7.376-5.474 16.060-12.281 22.861 22.091-5.093 30.4-0.757 31.733 10.017l5.869 50.064h-51.96c-4.724-37.032-14.734-53.467-46.848-82.184-3.973 6.801-10.786 11.143-18.338 13.22 27.766 13.608 44.971 39.284 49.132 69.34 1.514 10.955 2.271 23.412 2.653 38.352-24.181-0.188-39.678-0.582-55.551-1.326v17.005c19.464-0.932 45.91-1.32 81.052-1.32 35.511 0 62.527 0.388 81.233 1.32v-17.005c-18.513 0.932-53.655 1.326-89.185 1.326-0.738-8.502-1.495-16.060-2.465-23.993l48.581 0.013zM1640.807 675.621c-1.902 8.14-6.988 19.852-10.386 25.683l20.415 6.425c1.514-6.819 5.856-17.95 9.816-24.938l-19.845-7.17z" />
<glyph unicode="&#xe940;" horiz-adv-x="6044" d="M1842.051 607.044c-23.261 0-44.202-0.569-60.087-1.32v12.463c20.778-0.751 44.971-1.326 83.511-1.326s62.921 0.576 83.511 1.326v-12.463c-16.436 0.751-37.958 1.32-62.164 1.32v-9.253c15.873 0 33.822 0.394 43.088 0.757-0.394-2.265-0.576-5.305-0.576-8.315v-31.363c0-8.703 0.382-15.109 1.502-23.424h-14.54v5.656h-100.503v-7.376h-15.103c0.926 8.127 1.32 14.734 1.32 23.424v33.059c0 3.009-0.181 6.050-0.576 8.315 8.884-0.394 25.32-0.757 40.629-0.757l-0.013 9.278zM1872.276 663.915v-11.537c-4.911 0.563-10.786 0.932-18.525 1.145 5.662-3.397 11.149-6.801 15.115-9.46l-9.453-8.878c-3.96 4.911-10.961 11.136-16.035 15.109-3.992-5.474-10.398-10.386-20.778-15.109-3.222 3.579-4.555 4.336-11.143 7.946 11.893 3.591 18.338 6.238 21.741 10.567-9.641-0.175-16.617-0.576-22.498-1.32v11.136c6.813-0.569 14.552-0.938 26.077-0.938 0.394 2.659 0.745 5.869 0.745 9.816h-9.798c-2.271-2.459-4.736-5.086-7.383-7.933-2.259 2.459-6.626 4.536-10.567 5.65 7.933 6.062 14.922 13.795 17.756 19.664h-21.735v-55.544h25.889c20.778 0 36.462 0.382 40.254 0.932v-12.281c-7.952 0.932-19.27 1.502-40.047 1.502-20.765 0-32.12-0.394-40.035-1.502 1.139 5.293 1.695 10.379 1.695 22.848v31.751c0 12.457-0.569 18.519-1.695 23.806 7.939-0.932 19.445-1.508 40.241-1.508s32.308 0.576 40.266 1.508v-12.457c-3.779 0.394-21.541 0.938-41.186 0.938 3.003-1.508 5.856-2.646 9.816-3.585 1.695-0.388 1.32-1.896-0.582-2.465-0.394-0.181-1.32-0.751-2.465-1.695h11.143c11.893 0 16.611 0.188 20.021 0.576v-10.774c-4.329 0.382-7.946 0.563-19.651 0.563-0.194-3.397-0.388-6.801-0.951-9.816 10.354 0.2 17.712 0.588 23.768 1.345zM1853.938 587.956c-2.653-10.379-11.136-16.617-28.536-20.202-0.757 4.329-2.259 6.976-6.231 9.635 14.358 3.967 19.651 6.044 21.729 10.561h-25.126v-21.516h100.503v4.536c-7.564-0.394-22.292-0.569-32.127-0.181-6.413 0.181-9.823 3.228-9.823 8.127v9.059l-20.39-0.019zM1815.781 550.743h100.497v6.988h-100.497v-6.988zM1874.353 607.044h-19.27v-9.253h19.27v9.253zM1924.229 668.639c-7.952 0.757-8.884 2.459-8.884 11.712v9.447h-19.833c0-11.143-2.653-17.943-13.038-24.375-2.077 2.259-6.644 4.548-11.543 6.056 12.463 5.862 14.365 15.685 11.718 28.536 4.893-0.394 12.863-0.394 23.599-0.394 10.774 0 18.694 0 23.605 0.394-1.32-2.459-2.259-8.878-2.259-16.248 0-3.591 0.394-3.985 4.542-3.985 3.397 0 8.302 0.757 14.202 2.478-0.757-4.911-0.757-8.878 0.169-11.9-8.477-1.914-17.556-2.108-22.279-1.721zM1877.181 654.468v10.78c9.629-0.188 20.59-0.394 31.376-0.394 10.561 0 21.522 0.188 31.151 0.394-6.231-11.712-10.961-18.131-17.193-23.993 8.309-3.222 16.436-6.632 24.181-10.392l-8.878-10.955c-9.635 5.862-17.574 10.204-24.932 13.789-9.059-6.231-19.658-10.21-34.204-13.22-0.569 3.009-2.252 5.662-6.231 10.386 10.21 0.932 19.27 3.779 27.572 8.127-6.982 2.646-14.358 4.911-23.418 7.558l6.056 8.127c-1.508-0.019-3.403-0.019-5.481-0.206zM1919.875 655.025h-23.074c-4.536 0-8.127-0.169-13.601-0.382 8.884-2.646 18.119-5.481 27.215-8.884 3.422 2.847 6.626 5.869 9.46 9.266zM1916.284 587.956h-29.474v-1.889c0-4.154 0.757-4.724 4.911-4.911 6.050-0.388 14.183-0.388 24.563 0.394v6.407z" />
<glyph unicode="&#xe941;" horiz-adv-x="6044" d="M2046.117 654.656v13.032c11.537-0.751 27.972-1.132 48.731-1.132 0.932 3.779 1.695 8.309 1.908 12.094 5.293-1.508 9.798-2.259 16.817-2.646 4.154 0 4.742-1.326 1.32-3.973-1.145-0.751-2.64-3.016-4.142-5.474 22.091 0 43.426 0.382 55.144 1.132v-13.032c-10.386 0.751-28.323 1.32-47.424 1.32 4.911-7.558 9.641-13.214 15.115-17.762 3.591 4.161 5.474 7.37 7.952 13.038 3.973-2.834 10.023-5.668 14.527-7.37 3.397-1.32 3.397-2.471-0.745-3.979-1.502-0.569-4.323-2.646-10.974-8.302 7.577-3.585 16.448-5.481 27.24-6.988-5.474-4.342-7.952-8.878-9.629-15.679-5.869 2.252-11.143 4.724-15.873 6.976v-21.735c0-4.905 0.757-10.961 1.514-13.22-8.14 0.757-13.795 0.938-33.253 0.938v-25.32c0-12.469-3.785-16.048-27.003-18.7-0.382 7.176-1.695 11.9-7.551 17.943 17.756-2.828 20.59-0.932 20.59 4.548v21.528c-22.861 0-28.536-0.181-37.219-0.938 0.757 2.259 1.514 8.315 1.514 13.22v19.457c-4.154-2.646-8.502-5.099-13.038-7.383-2.471 3.779-5.668 6.988-10.217 9.816-1.695-41.755-7.17-55.544-24.169-78.030-4.348 4.724-9.629 7.733-15.679 9.635 20.202 19.651 26.064 35.705 26.821 67.256-7.745-5.481-17.193-13.038-23.424-19.095-2.077 6.626-5.093 12.644-8.127 17.193 10.561 3.979 18.513 8.49 31.551 17.374-0.181 34.955-0.757 48.737-1.896 62.921 10.573-0.745 24.369-1.145 64.241-1.145-2.459 3.591-5.293 7.376-7.946 10.392l17.587 6.044c3.579-5.474 7.17-11.706 9.447-16.436 35.142 0 47.799 0.394 57.809 1.145v-14.183c-10.386 0.757-26.077 1.333-70.666 1.333h-55.357c0.175-26.458 0.382-46.854-0.194-62.921 9.253 3.009 17.768 7.17 25.32 12.1-5.293 6.044-9.81 10.204-14.54 13.038l13.977 9.635c3.397-5.869 6.407-10.21 10.386-15.115 6.231 5.481 11.136 11.706 14.728 18.694-19.113 0.069-34.404-0.494-45.178-1.245zM2008.147 635.198c0.169 10.379-1.151 18.119-7.739 35.887l14.922 3.973c2.653-12.288 5.487-23.812 8.496-34.767l-15.679-5.093zM2078.988 563.030c-7.17-5.668-19.451-13.983-28.911-19.67-2.822 5.099-5.656 7.558-11.887 10.774 17.95 7.952 27.766 15.115 37.044 25.151 2.815-3.591 7.551-7.558 11.699-9.253 3.003-1.145 3.003-2.834 0-3.222-2.29-0.194-4.548-1.326-7.946-3.779zM2133.775 620.652h-57.052v-8.715h57.052v8.715zM2076.723 592.498h57.052v8.884h-57.052v-8.884zM2106.003 656.163c-3.579-8.127-10.017-16.817-18.513-24.938h36.268c-6.988 6.619-12.475 14.74-17.756 24.938zM2153.796 544.505c-7.551 7.17-20.415 15.697-32.69 21.347l9.066 11.893c11.893-6.413 27.203-15.491 34.767-20.402l-11.143-12.838z" />
<glyph unicode="&#xe942;" horiz-adv-x="6044" d="M944.719 277.344h-16.617c1.32 10.78 2.077 24.375 2.077 40.798v61.194c-5.305-9.253-10.961-18.325-15.685-25.307-2.646 4.317-6.801 8.696-11.337 12.106 8.127 7.17 16.817 18.901 25.883 41.918 5.293 13.426 9.253 27.228 10.204 37.219 6.619-2.634 11.706-4.154 17.95-5.474 3.967-0.757 4.717-2.265 0.181-5.662-1.514-1.326-3.016-3.779-12.657-26.083v-130.709zM1070.348 361.968v-14.534c-11.524 0.932-23.806 1.508-41.355 1.695 14.728-26.652 26.821-34.567 51.753-40.448-5.086-4.142-10.398-11.887-13.226-18.119-23.412 10.792-38.17 30.231-46.479 58.566h-1.126v-41.374c0-8.477 0.757-19.845 1.883-30.231h-18.319c1.139 10.035 1.695 18.901 1.695 30.231v41.361h-0.938c-8.502-26.252-18.707-41.755-40.798-62.927-3.222 3.222-7.37 6.4-15.303 10.017 20.214 14.728 37.032 33.822 44.777 52.735-16.054-0.175-27.209-0.757-38.17-1.508v14.534c13.608-0.92 27.391-1.495 50.445-1.695v23.23c-16.817 0-24.563-0.175-33.247-0.745 0.576 6.988 0.757 14.728 0.757 27.766 0 9.253-0.181 21.159-0.757 28.154 10.78-0.945 19.088-1.17 42.888-1.17 20.59 0 31.551 0.394 42.318 1.17-0.576-6.995-0.757-18.901-0.757-28.154s0.181-20.778 0.757-27.766c-9.253 0.745-19.845 0.745-37.219 0.745v-23.23c22.654 0.188 36.819 0.763 50.42 1.695zM987.231 395.596h54.412v29.474h-54.412v-29.474z" />
<glyph unicode="&#xe943;" horiz-adv-x="6044" d="M1133.306 358.202c-2.653 4.911-5.869 9.253-9.816 13.026 6.988 8.484 11.343 15.691 16.817 29.849 3.779 9.823 9.259 32.127 10.204 42.343 5.668-2.478 9.641-3.985 15.873-5.305 3.96-0.757 4.336-1.896 1.32-4.161-1.139-0.751-2.459-3.403-10.023-21.341v-135.846h-14.358c1.333 12.644 1.896 22.848 1.896 36.462v69.528c-4.742-10.761-8.152-17.568-11.912-24.556zM1191.866 366.322c-8.309-0.181-12.288-0.932-19.27-3.003-0.569 4.323-1.502 6.976-3.579 10.373 4.736 1.514 7.376 3.779 8.884 9.066l10.949 34.56c-6.982 0-11.524-0.188-15.854-0.751v12.45c8.69-0.569 21.347-0.726 31.726 0-4.717-16.817-10.379-35.518-16.048-51.547 7.376 0.382 11.718 0.751 16.048 1.32-1.32-30.794-3.397-48.581-9.816-63.478 14.183-15.284 41.367-24 95.973-17.768-2.834-6.231-3.96-11.343-4.323-15.86-59.536-2.077-84.074 7.551-97.669 22.292-3.973-6.4-9.066-12.644-15.503-19.833-3.222 3.003-7.176 5.474-12.469 7.551 8.884 7.17 15.297 14.358 19.845 22.848-6.988 11.13-12.112 23.412-13.977 35.536l11.706 2.471c1.333-8.703 3.779-17.024 7.952-24.757 3.159 10.373 4.855 22.654 5.424 38.527zM1283.691 353.66v-13.214c-9.466 0.932-15.873 1.333-35.136 1.333v-14.728c17.943 0 28.154 0.394 37.213 1.502v-13.214c-8.709 0.932-19.095 1.32-37.213 1.32 0.188-5.869 0.563-11.531 1.139-18.338h-13.977c0.563 6.632 0.757 12.281 0.938 18.338-11.9-0.163-19.658-0.388-26.458-1.32v13.214c6.807-0.932 14.728-1.32 26.458-1.502v14.728c-11.343-0.175-16.817-0.394-24-1.333v13.214c7.37-0.932 12.65-1.333 24-1.495v15.503c-11.343 0-17.756-0.388-23.055-0.926v12.094c5.299-0.563 11.706-0.738 23.055-0.932v15.115c-13.426 0-20.784-0.563-29.092-1.32v13.026c8.309-0.757 15.691-1.145 29.092-1.145v14.521c-10.386 0-14.734-0.175-22.667-0.92v12.463c7.37-0.582 11.524-0.757 22.667-0.938-0.181 8.884-0.563 16.054-1.32 19.451 5.474-0.751 9.066-0.938 14.54-0.938 5.293 0 5.662-1.32 1.32-3.779-1.695-0.938-2.64-4.167-2.64-7.17v-7.564c17.186 0 23.593 0.394 31.726 1.695-0.582-3.779-0.582-6.413-0.582-10.805v-16.035c6.632 0 11.543 0.394 14.552 1.151v-12.644c-3.009 0.576-8.127 0.745-14.552 0.913v-10.561c0-5.869 0.194-10.398 0.757-15.297-6.050 0.394-12.844 0.563-31.933 0.563v-15.497c19.295-0.038 25.338 0.338 35.167 1.47zM1266.686 403.548v14.527h-18.125v-14.527h18.125zM1248.536 392.95v-15.103h18.125v15.103h-18.125z" />
<glyph unicode="&#xe944;" horiz-adv-x="6044" d="M1348.896 409.204v16.267c16.26-0.932 30.619-1.495 56.12-1.695 3.973 10.035 6.988 20.765 8.127 26.458 7.551-2.64 13.601-3.973 20.771-4.905 3.779-0.576 3.973-1.896 0.576-3.985-4.73-2.997-8.309-8.296-11.718-17.581 60.637 0 70.278 0 89.548 1.695v-16.254c-21.347 1.495-35.324 1.896-95.992 1.896-3.779-7.17-7.952-13.958-12.281-20.771h33.453c19.095 0 37.407 0.569 50.646 1.902-0.757-5.299-1.514-15.278-1.514-25.676v-64.028c0-18.344-0.563-19.664-29.849-24.932-0.382 5.662-2.822 13.038-6.988 19.27 17.768-2.834 20.784-0.92 20.784 10.379v10.792h-69.152v-39.497h-17.574c1.139 9.641 1.689 19.445 1.689 27.009v59.511c-8.315-10.392-17.186-20.021-25.676-28.729-3.785 4.154-10.029 8.309-14.358 9.81 20.59 14.546 39.278 36.869 53.655 64.785-22.298-0.013-35.543-0.582-50.264-1.721zM1470.558 378.028h-69.158v-16.617h69.158v16.617zM1401.399 330.417h69.158v18.525h-69.158v-18.525z" />
<glyph unicode="&#xe945;" horiz-adv-x="6044" d="M1607.567 378.792c11.893-13.971 17.368-27.397 16.817-40.617-0.576-13.426-7.37-24.175-27.215-27.215-0.181 5.869-1.883 11.537-7.17 17.768 15.115 0 16.448 0.757 18.694 12.281 2.077 9.066-2.077 21.735-13.783 34.948l15.115 49.138h-21.729v-145.637h-15.691c0.576 16.999 0.757 28.317 0.757 44.189v97.1c0 7.17-0.569 14.728-1.326 19.658 7.17-0.926 16.26-1.502 29.655-1.502 13.214 0 21.735 0.576 28.905 1.502l-23.030-61.613zM1709.759 361.793c3.222-4.561 9.066-10.035 12.463-12.3 1.139-0.738 0.951-1.896-0.388-2.252-4.148-1.32-13.038-7.551-31.163-21.741 7.745-11.531 23.618-21.347 41.374-25.895-5.305-6.050-8.49-13.038-9.823-18.119-14.922 5.862-30.218 17.343-39.666 32.283-8.321 13.214-13.232 28.154-15.691 50.445h-14.19v-62.164c6.807 3.779 14.728 8.29 19.457 11.343 0.569-5.65 1.326-9.816 2.834-14.728l-23.824-13.626c-4.536-2.653-9.447-6.231-12.087-8.703-2.090 4.911-4.73 9.46-7.946 13.971 4.899 2.478 7.17 6.219 7.17 16.436v113.61c0 7.727-0.181 13.958-0.938 19.833 6.813-0.92 23.067-1.695 39.297-1.695 17.362 0 33.453 0.745 39.497 1.695-0.588-6.619-0.951-12.281-0.951-19.833v-36.462c0-6.050 0.394-13.426 1.139-21.165-5.65 0.751-15.291 1.32-36.844 1.495 1.32-10.029 3.591-20.202 6.050-27.572 10.642 8.127 18.381 16.448 24.231 25.145zM1652.519 427.147v-20.753h48.174v20.753h-48.174zM1652.519 395.227v-19.664h48.174v19.664h-48.174z" />
<glyph unicode="&#xe946;" horiz-adv-x="6044" d="M1851.298 430.169c-1.695-0.745-7.17-10.029-10.774-17.362-4.905-11.143-24.569-44.589-44.008-63.115-3.416 3.241-11.9 8.14-18.144 10.792 26.077 17.937 48.356 56.702 55.169 80.476 6.050-3.228 13.789-6.062 18.119-6.819 2.84-0.563 2.671-2.271-0.363-3.973zM1883.412 337.412l13.971 7.564c12.644-16.436 26.452-36.644 36.462-53.655l-18.513-10.961c-2.077 5.318-4.911 11.343-8.127 17.95-53.655-3.579-92.407-9.066-99.759-11.718-1.145 5.869-3.779 12.657-6.794 18.344 4.154 1.151 6.794 3.397 11.343 8.884 22.479 27.228 35.13 52.153 40.423 70.084 7.389-3.979 15.51-7.558 19.27-8.696 4.555-1.333 3.779-2.834-0.175-4.911-1.502-0.757-4.542-4.548-7.952-9.81-9.447-14.54-25.307-37.614-37.789-54.049l74.245 4.73c-5.262 9.241-11.13 18.506-16.605 26.246zM1938.031 350.638c-33.634 29.299-51.228 60.087-60.087 88.24 7.17 0 12.475 0.932 17.587 3.41 10.204-33.791 27.397-57.221 58.948-74.063-6.644-4.179-12.694-10.586-16.448-17.587z" />
<glyph unicode="&#xe947;" horiz-adv-x="6044" d="M2068.978 387.87c-27.403 0-41.192-0.588-59.311-1.695v16.611c18.319-1.151 32.296-1.695 59.311-1.695 29.086 0 34.948 0.175 50.445 1.695v-16.611c-16.267 1.301-21.353 1.695-50.445 1.695zM2038.378 314.169v-19.658h-17.38c1.139 8.884 2.071 21.51 2.071 30.218v24.75c0 6.826-0.563 14.947-1.32 19.676 6.231-0.745 25.889-1.32 47.424-1.32 21.516 0 36.462 0.576 42.325 1.32-0.563-3.397-1.32-11.9-1.32-19.451v-24.913c0-8.715 0.382-14.371 1.32-21.347h-16.436v10.78l-56.683-0.056zM2151.719 415.054v-117.133c0-16.623-7.376-23.43-36.268-22.68-0.576 6.632-2.259 12.288-6.413 19.27 22.848-1.695 26.246 0.175 26.246 8.484v118.678h-54.037c-37.038 0-50.076-0.388-60.087-1.145v17.005c14.552-1.326 34.567-1.695 63.478-1.695 29.074 0 53.292 0.726 67.832 1.695-0.576-5.474-0.751-9.629-0.751-22.479zM2095.042 327.77v26.652h-56.683v-26.652h56.683z" />
<glyph unicode="&#xe948;" horiz-adv-x="3476" d="M2469.883 704.194c-1.958-15.647-4.893-30.794-8.797-45.459v-121.706c-2.934-3.904-5.869-3.904-8.797 0v101.179c-3.923-9.779-9.291-18.582-16.129-26.396-4.893-0.982-6.857 0.97-5.869 5.869 16.605 23.462 26.871 52.792 30.794 87.984 3.904 3.904 6.838 3.416 8.797-1.47zM2497.742 704.194c3.904 4.88 6.838 4.398 8.797-1.464-0.989-5.869-2.459-12.713-4.398-20.527h83.579c10.742 0 15.635-5.381 14.665-16.129-0.989-7.827-3.429-15.647-7.333-23.462-4.893-2.934-7.827-1.958-8.797 2.934 9.773 18.569 9.773 27.86 0 27.86h-39.591v-121.706c-0.989-10.749-8.321-15.635-21.998-14.665-5.869 0.982-11.255 2.453-16.129 4.398-2.934 5.869-1.464 8.797 4.398 8.797 15.635-6.838 23.937-5.869 24.926 2.934v120.236h-36.656c-5.869-14.665-12.719-26.396-20.527-35.192-4.893-0.982-6.857 0.97-5.869 5.869 11.737 14.665 20.039 34.698 24.932 60.118zM2502.147 632.345c3.904 4.88 6.838 4.398 8.797-1.464-5.869-25.42-16.129-49.857-30.794-73.319-5.869-2.934-8.321-1.464-7.333 4.398 13.677 22.479 23.462 45.941 29.33 70.385zM2569.597 630.881c0.97 4.88 3.904 5.869 8.797 2.934 9.773-22.492 17.099-47.417 21.998-74.783-0.989-6.838-3.923-7.814-8.797-2.934-4.899 27.359-12.231 52.291-21.998 74.783z" />
<glyph unicode="&#xe949;" horiz-adv-x="3476" d="M2701.858 625.013h158.369c3.904-2.934 3.904-5.869 0-8.797h-76.253v-21.998h67.45c3.904-2.934 3.904-5.869 0-8.797h-67.45v-35.192c12.701-4.88 38.127-6.838 76.253-5.869 3.904-2.934 3.904-5.869 0-8.797-32.258-0.97-55.72 0-70.385 2.934-25.42 5.869-43.989 17.599-55.72 35.192-8.797-17.599-20.527-30.3-35.192-38.127-4.893-0.97-6.857 1.464-5.869 7.333 21.503 12.713 33.234 29.812 35.192 51.321v13.195c2.934 3.904 5.869 3.904 8.797 0v-20.527c8.797-16.623 21.503-27.86 38.127-33.728v63.058h-73.319c-3.917 2.934-3.917 5.862 0 8.797zM2734.122 702.73h87.984c10.742 0 15.635-4.893 14.665-14.665v-35.192c0.97-10.761-3.923-15.647-14.665-14.665h-87.984c-9.785-0.982-14.665 3.904-14.665 14.665v35.192c0 9.773 4.874 14.665 14.665 14.665zM2819.166 693.933h-82.115c-5.869 0-8.797-2.934-8.797-8.797v-8.797h99.715v7.333c0.97 6.832-1.965 10.261-8.803 10.261zM2827.969 667.538h-99.715v-11.731c0-6.851 2.934-9.779 8.797-8.797h82.115c6.838-0.982 9.773 1.952 8.797 8.797v11.731z" />
<glyph unicode="&#xe94a;" horiz-adv-x="3476" d="M3103.933 654.343c10.742 0 15.635-4.893 14.665-14.665v-8.797c0.97-10.761-3.923-15.647-14.665-14.665h-55.72v-17.599h61.588c10.742 0 15.635-4.893 14.665-14.665l-1.464-24.926c-2.934-12.701-11.255-20.033-24.926-21.998-8.797-0.97-19.558 0.982-32.258 5.869-2.934 3.917-1.958 6.851 2.934 8.797 11.731-4.88 21.503-6.838 29.33-5.869 8.797 1.958 14.171 6.851 16.129 14.665l1.464 20.527c0.97 5.869-1.958 8.797-8.797 8.797h-58.654v-52.792c-2.934-4.88-5.869-4.88-8.797 0v46.923c-16.623-20.527-43.019-36.656-79.181-48.387-5.869 0.982-6.857 3.917-2.934 8.797 34.204 10.761 59.624 25.902 76.253 45.459h-55.72c-9.785-0.982-14.665 3.904-14.665 14.665v5.869c0 9.773 4.874 14.665 14.665 14.665h61.588v20.527h-73.319c-3.923 2.934-3.923 5.869 0 8.797h137.816zM2983.691 707.128c3.904 2.934 6.838 1.952 8.797-2.934-0.989-4.893-2.459-8.797-4.398-11.731h54.256c4.874-2.934 4.874-5.869 0-8.797h-30.794c1.946-5.869 2.934-13.195 2.934-21.998-2.934-5.869-5.869-6.363-8.797-1.464 0 7.814-0.989 15.635-2.934 23.462h-17.599c-3.923-8.797-10.761-16.623-20.527-23.462-4.893-0.982-6.857 0.97-5.869 5.869 13.683 10.742 22.004 24.431 24.932 41.055zM3039.417 616.216h-58.654c-5.869 0-8.797-2.453-8.797-7.333v-2.934c0-5.869 2.934-8.315 8.797-7.333h58.654v17.599zM3061.408 707.128c3.904 3.904 6.838 3.416 8.797-1.464-0.989-2.934-2.459-7.333-4.398-13.195h58.654c4.874-2.934 4.874-5.869 0-8.797h-35.192c1.946-6.851 2.934-14.183 2.934-21.998-2.934-4.893-5.869-4.893-8.797 0 0 6.838-0.989 14.171-2.934 21.998h-17.599c-5.869-10.761-11.731-19.063-17.599-24.926-5.869-1.958-8.321 0-7.333 5.869 10.749 9.76 18.575 23.931 23.468 42.512zM3100.998 645.54h-52.792v-20.527h52.792c6.838-0.982 9.773 1.952 8.797 8.797v2.934c0.976 5.869-1.958 8.797-8.797 8.797z" />
<glyph unicode="&#xe94b;" horiz-adv-x="3476" d="M3225.933 566.359h158.369c5.869-2.934 5.869-5.869 0-8.797h-158.369c-5.862 2.934-5.862 5.862 0 8.797zM3239.128 686.601h133.437c4.874-2.934 4.874-5.869 0-8.797h-133.437c-5.862 2.928-5.862 5.862 0 8.797z" />
</font>
</defs>
</svg>
